<?xml version="1.0" encoding="utf-8"?>
<svg version="1.1" xmlns="http://www.w3.org/2000/svg" xmlns:xlink="http://www.w3.org/1999/xlink" xml:space="preserve" viewBox="38.26838 16.91315 255.3248 142.6813">
    <path fill="none" opacity="1" stroke="#5980D4" stroke-width="1.5" stroke-height="3" stroke-linecap="round" d="M39.859375,49.0705718994141 L39.859375,48.9840698242188 L39.70556640625,48.9840698242188 L39.70556640625,48.9840698242188 L39.70556640625,48.949462890625 L39.70556640625,48.949462890625 L39.70556640625,48.949462890625 L39.70556640625,48.949462890625 L39.474853515625,48.8975524902344 L39.474853515625,48.8975524902344 L39.474853515625,48.8975524902344 L39.474853515625,48.8975524902344 L39.474853515625,48.8975524902344 L39.474853515625,48.8975524902344 L39.474853515625,48.8975524902344 L39.474853515625,48.8975524902344 L39.474853515625,48.8975524902344 L39.474853515625,48.8975524902344 L39.474853515625,48.8975524902344 L39.70556640625,48.9840698242188 L39.859375,49.0359802246094 L40.090087890625,49.1224822998047 L40.243896484375,49.1570892333984 L40.62841796875,49.2955017089844 L41.0126953125,49.3820037841797 L41.6279296875,49.4685211181641 L42.2431640625,49.4685211181641 L43.01220703125,49.5550231933594 L43.55029296875,49.5550231933594 L44.396240234375,49.5550231933594 L45.165283203125,49.4685211181641 L45.93408203125,49.4339141845703 L46.703125,49.3473968505859 L47.47216796875,49.2608947753906 L48.4716796875,49.1224822998047 L49.24072265625,48.949462890625 L50.009765625,48.7764434814453 L50.778564453125,48.6380310058594 L51.547607421875,48.4996185302734 L52.162841796875,48.3265991210938 L52.77783203125,48.1535949707031"/>
    <path fill="none" opacity="1" stroke="#5980D4" stroke-width="1.5" stroke-height="3" stroke-linecap="round" d="M42.2431640625,31.8900299072266 L42.39697265625,31.6824035644531 L42.781494140625,31.4574813842773 L43.01220703125,31.2844696044922 L43.165771484375,31.1460571289063 L43.396484375,31.0595474243164 L43.55029296875,30.9730377197266 L43.781005859375,30.9730377197266 L44.16552734375,30.9730377197266 L44.16552734375,30.9730377197266 L44.396240234375,31.0595474243164 L44.550048828125,31.1460571289063 L44.78076171875,31.2844696044922 L44.9345703125,31.4055786132813 L44.9345703125,31.630500793457 L45.165283203125,31.8035202026367 L45.165283203125,32.0284423828125 L45.319091796875,32.2879638671875 L45.319091796875,32.5128860473633 L45.319091796875,32.7724075317383 L45.319091796875,33.0319366455078 L45.319091796875,33.2568588256836 L45.165283203125,33.6893997192383 L45.165283203125,34.1392440795898 L45.165283203125,34.5371780395508 L44.9345703125,34.8832168579102 L44.9345703125,35.1946411132813 L44.78076171875,35.4541702270508 L44.78076171875,35.6790924072266 L44.78076171875,35.8521041870117 L44.550048828125,36.0251235961914 L44.550048828125,36.1635360717773 L44.550048828125,36.2500457763672 L44.396240234375,36.336555480957 L44.396240234375,36.4576644897461 L44.396240234375,36.5095672607422 L44.16552734375,36.5441741943359 L44.16552734375,36.5441741943359 L44.16552734375,36.5441741943359 L44.16552734375,36.5441741943359 L43.934814453125,36.5441741943359 L43.934814453125,36.5441741943359 L43.934814453125,36.5441741943359 L43.934814453125,36.5441741943359 L43.934814453125,36.5441741943359 L43.934814453125,36.5441741943359 L43.934814453125,36.5095672607422 L43.934814453125,36.4576644897461 L43.934814453125,36.3711547851563 L43.934814453125,36.336555480957 L44.16552734375,36.336555480957 L44.16552734375,36.336555480957 L44.16552734375,36.2500457763672 L44.396240234375,36.2500457763672 L44.550048828125,36.2500457763672 L44.78076171875,36.2500457763672 L44.9345703125,36.336555480957 L45.165283203125,36.3711547851563 L45.319091796875,36.4576644897461 L45.549560546875,36.5441741943359 L45.703369140625,36.6479797363281 L45.93408203125,36.7690963745117 L46.087890625,36.9940185546875 L46.472412109375,37.2189407348633 L46.933837890625,37.513069152832 L47.087646484375,37.7379913330078 L47.47216796875,37.9975128173828 L47.8564453125,38.2743377685547 L48.087158203125,38.4819564819336 L48.240966796875,38.6549758911133 L48.4716796875,38.8798980712891 L48.62548828125,39.018310546875 L48.856201171875,39.1394195556641 L48.856201171875,39.2778396606445 L48.856201171875,39.4162521362305 L48.856201171875,39.5027542114258 L48.856201171875,39.6238708496094 L48.856201171875,39.7103805541992 L48.856201171875,39.8487930297852 L48.856201171875,39.935302734375 L48.856201171875,40.0737152099609 L48.62548828125,40.19482421875 L48.240966796875,40.4197463989258 L47.8564453125,40.5927658081055 L47.47216796875,40.7657775878906 L47.087646484375,40.9906997680664 L46.472412109375,41.1637191772461 L46.087890625,41.3367309570313 L45.549560546875,41.5270538330078 L44.9345703125,41.6481628417969 L44.396240234375,41.8211822509766 L43.934814453125,41.9595947265625 L43.396484375,42.1326065063477 L42.781494140625,42.3056259155273 L42.39697265625,42.4440383911133 L42.012451171875,42.617057800293 L41.6279296875,42.7554702758789 L41.243408203125,42.9284896850586 L40.85888671875,43.1015014648438 L40.62841796875,43.2745208740234"/>
    <path fill="none" opacity="1" stroke="#5980D4" stroke-width="1.5" stroke-height="3" stroke-linecap="round" d="M42.012451171875,58.4826812744141 L42.012451171875,58.3096618652344 L42.012451171875,58.1712493896484 L42.012451171875,57.9982299804688 L42.012451171875,57.8598175048828 L42.012451171875,57.7733154296875 L42.012451171875,57.7733154296875 L42.012451171875,57.7733154296875 L42.012451171875,57.7733154296875 L42.012451171875,57.9117279052734 L42.012451171875,58.0847473144531 L42.012451171875,58.2577514648438 L42.012451171875,58.5172882080078 L42.012451171875,58.7941131591797 L41.858642578125,59.2266540527344 L41.858642578125,59.797607421875 L41.858642578125,60.3685607910156 L41.858642578125,60.9914245605469 L41.6279296875,61.5623779296875 L41.6279296875,62.1679382324219 L41.6279296875,62.7388916015625 L41.6279296875,63.2752380371094 L41.6279296875,63.7596893310547 L41.6279296875,64.1576232910156 L41.858642578125,64.5382690429688 L41.858642578125,64.8496856689453 L41.858642578125,65.1092224121094 L41.858642578125,65.3860473632813 L42.012451171875,65.5936584472656 L42.012451171875,65.8185882568359 L42.2431640625,65.9916076660156 L42.2431640625,66.1646118164063 L42.39697265625,66.3030242919922 L42.627685546875,66.3895416259766 L42.781494140625,66.4760437011719 L42.781494140625,66.4760437011719 L43.165771484375,66.4760437011719 L43.396484375,66.4760437011719 L43.55029296875,66.4414520263672 L43.781005859375,66.3895416259766 L43.934814453125,66.3030242919922 L44.16552734375,66.1646118164063 L44.550048828125,65.9916076660156 L44.9345703125,65.8185882568359 L45.165283203125,65.5936584472656 L45.549560546875,65.4206390380859 L45.703369140625,65.2476348876953 L45.93408203125,65.1092224121094 L46.087890625,65.022705078125 L46.318603515625,64.9362030029297 L46.472412109375,64.8496856689453 L46.472412109375,64.76318359375 L46.703125,64.7285766601563 L46.703125,64.7285766601563 L46.933837890625,64.6420745849609 L46.933837890625,64.6420745849609 L47.087646484375,64.6420745849609 L47.087646484375,64.6420745849609 L47.087646484375,64.6420745849609 L47.087646484375,64.7285766601563 L47.087646484375,64.8150939941406 L47.318359375,64.9362030029297 L47.318359375,65.1092224121094 L47.318359375,65.3341369628906 L47.318359375,65.5936584472656 L47.318359375,66.0781097412109 L47.087646484375,66.6144561767578 L47.087646484375,67.1854095458984 L47.087646484375,67.8428802490234 L46.933837890625,68.5003356933594 L46.933837890625,69.209716796875 L46.703125,69.8671722412109 L46.703125,70.5246429443359 L46.472412109375,71.2340087890625 L46.472412109375,71.9260711669922 L46.318603515625,72.6700439453125 L46.318603515625,73.3274993896484 L46.087890625,74.0022735595703 L46.087890625,74.6597290039063 L46.087890625,75.2306823730469 L46.318603515625,75.8016510009766 L46.318603515625,76.3206939697266 L46.472412109375,76.7186279296875 L46.703125,77.0300598144531 L47.087646484375,77.2376861572266 L47.318359375,77.3414916992188"/>
    <path fill="none" opacity="1" stroke="#5980D4" stroke-width="1.5" stroke-height="3" stroke-linecap="round" d="M62.543701171875,45.8697662353516 L62.543701171875,45.81787109375 L62.543701171875,45.81787109375 L62.543701171875,45.81787109375 L62.697509765625,45.81787109375 L62.697509765625,45.8697662353516 L62.92822265625,45.9562835693359 L63.08203125,46.0427856445313 L63.312744140625,46.1811981201172 L63.466552734375,46.3888244628906 L63.927978515625,46.6656494140625 L64.312255859375,46.9251708984375 L64.69677734375,47.2366027832031 L65.081298828125,47.5307312011719 L65.4658203125,47.8421630859375 L65.850341796875,48.1535949707031 L66.23486328125,48.4131164550781 L66.849853515625,48.7245483398438 L67.234375,48.9840698242188 L67.618896484375,49.2955017089844 L68.00341796875,49.5550231933594 L68.387939453125,49.8318481445313 L68.7724609375,50.0394744873047 L69.0029296875,50.2643890380859 L69.15673828125,50.4893188476563 L69.387451171875,50.6623229980469"/>
    <path fill="none" opacity="1" stroke="#5980D4" stroke-width="1.5" stroke-height="3" stroke-linecap="round" d="M69.0029296875,44.0703887939453 L68.7724609375,44.0703887939453 L68.541748046875,44.1569061279297 L68.387939453125,44.2953186035156 L68.00341796875,44.5029449462891 L67.772705078125,44.8143615722656 L67.38818359375,45.2123107910156 L67.003662109375,45.6102447509766 L66.619140625,46.0946960449219 L66.465576171875,46.7002410888672 L66.004150390625,47.2712097167969 L65.61962890625,47.8421630859375 L65.235107421875,48.4650115966797 L64.8505859375,49.1224822998047 L64.466064453125,49.6934356689453 L64.312255859375,50.2989959716797 L63.927978515625,50.9218597412109 L63.466552734375,51.5447082519531 L63.08203125,52.1502685546875 L62.92822265625,52.7212219238281 L62.697509765625,53.2921752929688 L62.543701171875,53.8285369873047 L62.543701171875,54.2264709472656 L62.31298828125,54.4859924316406"/>
    <path fill="none" opacity="1" stroke="#5980D4" stroke-width="1.5" stroke-height="3" stroke-linecap="round" d="M86.535400390625,43.8454742431641 L86.535400390625,43.8108673095703 L86.381591796875,43.6724548339844 L86.381591796875,43.5859527587891 L86.381591796875,43.4994354248047 L86.15087890625,43.4129333496094 L86.15087890625,43.3264312744141 L86.15087890625,43.2399139404297 L86.381591796875,43.1361083984375 L86.381591796875,43.0149993896484 L86.535400390625,42.9284896850586 L86.535400390625,42.7900695800781 L86.76611328125,42.6689605712891 L86.919921875,42.5305480957031 L87.150634765625,42.4440383911133 L87.304443359375,42.3575286865234 L87.53515625,42.2710266113281 L87.688720703125,42.1845169067383 L87.91943359375,42.1845169067383 L88.0732421875,42.1326065063477 L88.53466796875,42.1326065063477 L88.6884765625,42.1326065063477 L88.919189453125,42.1326065063477 L89.3037109375,42.1326065063477 L89.45751953125,42.2191162109375 L89.688232421875,42.2710266113281 L89.842041015625,42.3575286865234 L90.072509765625,42.4440383911133 L90.226318359375,42.5305480957031 L90.45703125,42.617057800293 L90.61083984375,42.8419799804688 L90.841552734375,43.1015014648438 L91.072265625,43.3264312744141 L91.22607421875,43.5859527587891 L91.22607421875,43.7589721679688 L91.456787109375,43.98388671875 L91.456787109375,44.1569061279297 L91.456787109375,44.3818206787109 L91.456787109375,44.5548400878906 L91.610595703125,44.7624664306641 L91.610595703125,44.9527740478516 L91.610595703125,45.160400390625 L91.456787109375,45.4718322753906 L91.22607421875,45.81787109375 L91.072265625,46.0946960449219 L90.841552734375,46.4407196044922 L90.61083984375,46.8386688232422 L90.226318359375,47.1846923828125 L89.842041015625,47.5826263427734 L89.45751953125,47.9805755615234 L89.072998046875,48.3785095214844 L88.6884765625,48.8110504150391 L88.303955078125,49.1570892333984 L87.688720703125,49.5550231933594 L87.304443359375,49.9183502197266 L86.919921875,50.2643890380859 L86.535400390625,50.6623229980469 L86.15087890625,50.9737548828125 L85.766357421875,51.3197937011719 L85.3818359375,51.6312255859375 L84.99755859375,51.8907470703125 L84.766845703125,52.2021789550781 L84.613037109375,52.4617004394531 L84.228515625,52.6866302490234 L84.228515625,52.8942413330078 L83.997802734375,53.0845642089844 L83.843994140625,53.2575836181641 L83.843994140625,53.3786926269531 L83.843994140625,53.5171051025391 L83.61328125,53.655517578125 L83.61328125,53.7420196533203 L83.61328125,53.8285369873047 L83.61328125,53.9150390625 L83.843994140625,54.0361480712891 L83.843994140625,54.0880584716797 L83.997802734375,54.174560546875 L84.228515625,54.2264709472656 L84.38232421875,54.2610778808594 L84.766845703125,54.3129730224609 L84.99755859375,54.3475799560547 L85.53564453125,54.3475799560547 L86.15087890625,54.3475799560547 L86.919921875,54.3475799560547 L87.53515625,54.3475799560547 L88.303955078125,54.3129730224609 L89.3037109375,54.2264709472656 L90.072509765625,54.2264709472656 L90.841552734375,54.1226654052734 L91.456787109375,54.1226654052734 L92.225830078125,54.1226654052734 L92.99462890625,54.1226654052734 L93.763671875,54.2264709472656 L94.53271484375,54.2610778808594 L95.301513671875,54.3475799560547 L95.916748046875,54.4859924316406 L96.531982421875,54.6590118408203 L97.30078125,54.8839416503906"/>
    <path fill="none" opacity="1" stroke="#5980D4" stroke-width="1.5" stroke-height="3" stroke-linecap="round" d="M117.370849609375,46.4926300048828 L117.370849609375,46.4926300048828 L117.217041015625,46.4926300048828 L117.217041015625,46.4926300048828 L117.217041015625,46.4926300048828 L116.986328125,46.4926300048828 L116.986328125,46.4926300048828 L116.986328125,46.4926300048828 L116.986328125,46.4926300048828 L116.986328125,46.4926300048828 L116.986328125,46.4926300048828 L116.986328125,46.4926300048828 L116.986328125,46.4926300048828 L116.986328125,46.4926300048828 L116.986328125,46.4926300048828 L117.217041015625,46.5272369384766 L117.370849609375,46.5791320800781 L117.6015625,46.5791320800781 L117.832275390625,46.5791320800781 L118.216552734375,46.6137390136719 L118.370361328125,46.6656494140625 L118.7548828125,46.7521514892578 L119.139404296875,46.7867584228516 L119.754638671875,46.7867584228516 L120.13916015625,46.7867584228516 L120.754150390625,46.7867584228516 L121.29248046875,46.7867584228516 L121.90771484375,46.7867584228516 L122.292236328125,46.7867584228516 L122.9072265625,46.7867584228516 L123.291748046875,46.7867584228516 L123.67626953125,46.7867584228516 L123.830078125,46.7867584228516"/>
    <path fill="none" opacity="1" stroke="#5980D4" stroke-width="1.5" stroke-height="3" stroke-linecap="round" d="M118.216552734375,50.2643890380859 L118.7548828125,50.3509063720703 L119.3701171875,50.4028015136719 L119.908447265625,50.4028015136719 L120.754150390625,50.4893188476563 L121.29248046875,50.5239105224609 L122.0615234375,50.5758209228516 L122.9072265625,50.6623229980469 L123.67626953125,50.6623229980469 L124.214599609375,50.783447265625 L124.829833984375,50.9218597412109"/>
    <path fill="none" opacity="1" stroke="#5980D4" stroke-width="1.5" stroke-height="3" stroke-linecap="round" d="M144.361328125,47.8421630859375 L144.361328125,47.8075561523438 L144.361328125,47.7556457519531 L144.361328125,47.7556457519531 L144.361328125,47.7556457519531 L144.361328125,47.6691436767578 L144.361328125,47.6691436767578 L144.361328125,47.6691436767578 L144.361328125,47.6345367431641 L144.361328125,47.6345367431641 L144.361328125,47.6345367431641 L144.592041015625,47.6345367431641 L144.592041015625,47.6345367431641 L144.745849609375,47.6345367431641 L144.9765625,47.6345367431641 L145.361083984375,47.6345367431641 L145.74560546875,47.6345367431641 L146.514404296875,47.6345367431641 L147.283447265625,47.6691436767578 L148.052490234375,47.6691436767578 L148.8212890625,47.7210540771484 L149.821044921875,47.7210540771484 L150.820556640625,47.7210540771484 L151.743408203125,47.7556457519531 L154.51171875,47.7556457519531 L156.2802734375,47.6691436767578 L158.048828125,47.6691436767578 L158.587158203125,47.5826263427734 L160.970947265625,47.6691436767578 L161.739990234375,47.6691436767578 L162.739501953125,47.6691436767578 L163.662353515625,47.6691436767578 L166.4306640625,47.7556457519531 L167.968505859375,47.5826263427734 L169.583251953125,47.4442138671875 L170.12158203125,47.4442138671875 L171.121337890625,47.4096221923828 L171.89013671875,47.4096221923828 L172.6591796875,47.3231048583984 L173.42822265625,47.2712097167969 L174.27392578125,47.2712097167969 L175.04296875,47.2712097167969 L175.581298828125,47.2712097167969 L176.42724609375,47.1846923828125 L176.8115234375,47.1846923828125 L177.196044921875,47.2712097167969 L177.58056640625,47.3577117919922 L177.734375,47.4442138671875 L177.965087890625,47.5307312011719 L177.965087890625,47.6691436767578"/>
    <path fill="none" opacity="1" stroke="#5980D4" stroke-width="1.5" stroke-height="3" stroke-linecap="round" d="M168.19921875,28.1182632446289 L168.35302734375,27.9452438354492 L168.35302734375,27.8068313598633 L168.35302734375,27.6684188842773 L168.35302734375,27.5819091796875 L168.35302734375,27.4608001708984 L168.35302734375,27.3742904663086 L168.35302734375,27.2877807617188 L168.35302734375,27.1839752197266 L168.19921875,27.0974655151367 L167.968505859375,26.9763565063477 L167.968505859375,26.8898468017578 L167.814697265625,26.8898468017578 L167.583984375,26.8379440307617 L167.43017578125,26.8379440307617 L167.0458984375,26.8379440307617 L166.815185546875,26.8379440307617 L166.199951171875,26.924446105957 L165.8154296875,27.0974655151367 L165.277099609375,27.3742904663086 L164.50830078125,27.6684188842773 L163.89306640625,28.0663604736328 L163.27783203125,28.4642944335938 L162.5087890625,29.0006484985352 L161.970703125,29.4850921630859 L161.35546875,30.0041427612305 L160.740234375,30.5751037597656 L160.355712890625,31.1460571289063 L159.817626953125,31.768913269043 L159.43310546875,32.3744735717773 L159.202392578125,32.9973297119141 L158.81787109375,33.6028900146484 L158.587158203125,34.2257537841797 L158.433349609375,34.8832168579102 L158.433349609375,35.5925827026367 L158.433349609375,36.1635360717773 L158.433349609375,36.7690963745117 L158.433349609375,37.3400497436523 L158.587158203125,37.8764038085938 L158.81787109375,38.3954544067383 L159.202392578125,38.8798980712891 L159.43310546875,39.3297424316406 L159.817626953125,39.7103805541992 L159.971435546875,40.1083145141602 L160.355712890625,40.5062561035156 L160.740234375,40.8176803588867 L161.124755859375,41.0772094726563 L161.50927734375,41.302131652832 L161.970703125,41.4232406616211 L162.12451171875,41.561653137207 L162.5087890625,41.6135635375977 L162.893310546875,41.6135635375977 L163.1240234375,41.6135635375977 L163.508544921875,41.6135635375977 L163.662353515625,41.561653137207 L163.89306640625,41.4751434326172 L164.123779296875,41.4232406616211 L164.277587890625,41.302131652832 L164.50830078125,41.1637191772461 L164.662109375,41.0772094726563 L164.662109375,40.9041900634766 L164.892578125,40.8176803588867 L164.892578125,40.6446685791016 L164.892578125,40.5062561035156 L164.892578125,40.3332366943359 L164.892578125,40.19482421875 L164.892578125,40.0218048095703 L164.662109375,39.9006958007813 L164.50830078125,39.7103805541992 L164.277587890625,39.5892639160156 L163.89306640625,39.4508514404297 L163.508544921875,39.3297424316406 L163.1240234375,39.1913299560547 L162.739501953125,39.1394195556641 L162.355224609375,39.1394195556641 L161.739990234375,39.2259292602539 L161.35546875,39.3297424316406 L160.970947265625,39.5373611450195 L160.355712890625,39.8487930297852 L159.971435546875,40.1083145141602"/>
    <path fill="none" opacity="1" stroke="#5980D4" stroke-width="1.5" stroke-height="3" stroke-linecap="round" d="M158.81787109375,52.2886810302734 L158.81787109375,52.2021789550781 L158.81787109375,52.1156616210938 L158.81787109375,52.1156616210938 L158.81787109375,52.2021789550781 L158.81787109375,52.3232879638672 L158.81787109375,52.4617004394531 L158.81787109375,52.6866302490234 L158.81787109375,52.8942413330078 L158.81787109375,53.1710662841797 L158.81787109375,53.6036071777344 L158.587158203125,54.0361480712891 L158.587158203125,54.4340972900391 L158.587158203125,54.9704437255859 L158.587158203125,55.4548950195313 L158.587158203125,56.0258483886719 L158.587158203125,56.5448913574219 L158.587158203125,57.0293426513672 L158.587158203125,57.4791870117188 L158.587158203125,57.8598175048828 L158.587158203125,58.3096618652344 L158.81787109375,58.7422027587891 L158.9716796875,59.0882415771484 L159.202392578125,59.4515686035156 L159.43310546875,59.7630004882813 L159.817626953125,60.0225219726563 L159.971435546875,60.2474517822266 L160.201904296875,60.4204711914063 L160.58642578125,60.5415802001953 L160.740234375,60.6280822753906 L160.970947265625,60.6799926757813 L161.35546875,60.6799926757813 L161.50927734375,60.6799926757813 L161.970703125,60.5934906005859 L162.355224609375,60.4550628662109 L162.893310546875,60.2820587158203 L163.27783203125,60.0225219726563 L163.662353515625,59.797607421875 L164.123779296875,59.5726776123047 L164.50830078125,59.3131561279297 L164.892578125,59.0536346435547 L165.04638671875,58.7941131591797 L165.430908203125,58.5172882080078 L165.66162109375,58.3096618652344 L165.8154296875,58.0847473144531 L166.046142578125,57.9117279052734 L166.199951171875,57.7733154296875 L166.199951171875,57.6002960205078 L166.4306640625,57.5137939453125 L166.4306640625,57.3753814697266 L166.4306640625,57.3407745361328 L166.4306640625,57.2888641357422 L166.661376953125,57.2023620605469 L166.661376953125,57.2023620605469 L166.661376953125,57.2023620605469 L166.661376953125,57.2023620605469 L166.661376953125,57.2023620605469 L166.661376953125,57.2542572021484 L166.661376953125,57.3407745361328 L166.4306640625,57.5137939453125 L166.4306640625,57.8252105712891 L166.199951171875,58.2577514648438 L166.046142578125,58.7422027587891 L165.8154296875,59.1920471191406 L165.66162109375,59.7111053466797 L165.66162109375,60.2820587158203 L165.430908203125,60.9049072265625 L165.277099609375,61.5623779296875 L165.04638671875,62.2198333740234 L164.892578125,62.9119110107422 L164.662109375,63.6731719970703 L164.50830078125,64.4517517089844 L164.277587890625,65.2476348876953 L164.123779296875,66.0435028076172 L163.89306640625,66.8393859863281 L163.662353515625,67.5314483642578 L163.508544921875,68.2754211425781 L163.27783203125,68.9847869873047 L163.1240234375,69.6422576904297 L163.1240234375,70.2132110595703 L163.1240234375,70.6976470947266 L163.1240234375,71.2340087890625 L163.1240234375,71.8049621582031 L163.1240234375,72.2375030517578 L163.1240234375,72.5835418701172"/>
    <path fill="none" opacity="1" stroke="#5980D4" stroke-width="1.5" stroke-height="3" stroke-linecap="round" d="M199.03466796875,48.3265991210938 L199.64990234375,48.3265991210938 L200.18798828125,48.3785095214844 L200.80322265625,48.4131164550781 L201.41845703125,48.4996185302734 L201.956787109375,48.5515289306641 L202.341064453125,48.6380310058594 L202.7255859375,48.7245483398438 L203.110107421875,48.7764434814453 L203.3408203125,48.8110504150391 L203.571533203125,48.8975524902344"/>
    <path fill="none" opacity="1" stroke="#5980D4" stroke-width="1.5" stroke-height="3" stroke-linecap="round" d="M199.03466796875,51.8907470703125 L199.03466796875,51.9253540039063 L199.265380859375,52.0291595458984 L199.265380859375,52.1156616210938 L199.419189453125,52.2021789550781 L199.64990234375,52.2886810302734 L200.18798828125,52.3751983642578 L200.80322265625,52.4097900390625 L201.572265625,52.4617004394531 L202.1875,52.4963073730469 L202.956298828125,52.4963073730469 L203.725341796875,52.6001129150391 L204.724853515625,52.6866302490234 L205.724609375,52.6866302490234 L206.49365234375,52.6866302490234"/>
    <path fill="none" opacity="1" stroke="#5980D4" stroke-width="1.5" stroke-height="3" stroke-linecap="round" d="M232.023193359375,40.8176803588867 L232.023193359375,40.7657775878906 L232.25390625,40.6792678833008 L232.25390625,40.6792678833008 L232.25390625,40.6792678833008 L232.25390625,40.6446685791016 L232.25390625,40.6446685791016 L232.25390625,40.6446685791016 L232.25390625,40.6792678833008 L232.25390625,40.7311782836914 L232.25390625,40.8176803588867 L232.25390625,40.9387969970703 L232.25390625,41.1637191772461 L232.25390625,41.3886413574219 L232.25390625,41.561653137207 L232.25390625,41.8730850219727 L232.25390625,42.2710266113281 L232.25390625,42.7554702758789 L232.25390625,43.3264312744141 L232.25390625,43.98388671875 L232.023193359375,44.641357421875 L232.023193359375,45.3853149414063 L232.023193359375,46.1292877197266 L231.869384765625,46.9251708984375 L231.869384765625,47.7210540771484 L231.638671875,48.4996185302734 L231.48486328125,49.2955017089844 L231.254150390625,50.0394744873047 L231.100341796875,50.7488403320313 L231.100341796875,51.4062957763672 L231.100341796875,52.1156616210938 L230.86962890625,52.8077392578125 L230.86962890625,53.4305877685547 L230.86962890625,54.1226654052734 L230.86962890625,54.6936187744141 L231.100341796875,55.1780700683594"/>
    <path fill="none" opacity="1" stroke="#5980D4" stroke-width="1.5" stroke-height="3" stroke-linecap="round" d="M247.86376953125,48.2054901123047 L247.86376953125,48.2054901123047 L247.86376953125,48.2054901123047 L247.86376953125,48.2054901123047 L248.094482421875,48.2400970458984 L248.248291015625,48.2920074462891 L248.47900390625,48.3265991210938 L248.6328125,48.3785095214844 L248.863525390625,48.3785095214844 L249.247802734375,48.3785095214844 L249.863037109375,48.4131164550781 L250.632080078125,48.4131164550781 L251.17041015625,48.4131164550781 L251.939208984375,48.4131164550781 L252.78515625,48.4131164550781 L253.55419921875,48.4131164550781 L254.322998046875,48.3265991210938 L255.092041015625,48.2054901123047 L255.861083984375,48.1189880371094 L256.6298828125,48.0151824951172 L257.2451171875,48.0151824951172 L257.8603515625,47.9805755615234 L258.629150390625,47.9805755615234 L259.013671875,47.9805755615234 L259.62890625,47.9286651611328 L260.167236328125,47.8421630859375"/>
    <path fill="none" opacity="1" stroke="#5980D4" stroke-width="1.5" stroke-height="3" stroke-linecap="round" d="M253.9384765625,31.0076446533203 L253.9384765625,31.0076446533203 L254.09228515625,31.0076446533203 L254.09228515625,31.0076446533203 L254.09228515625,31.0076446533203 L254.09228515625,31.0076446533203 L254.09228515625,31.1114501953125 L254.322998046875,31.2325668334961 L254.322998046875,31.370979309082 L254.322998046875,31.5439910888672 L254.322998046875,31.768913269043 L254.322998046875,31.9765319824219 L254.322998046875,32.2014541625977 L254.322998046875,32.5128860473633 L254.322998046875,32.9108276367188 L254.322998046875,33.4817810058594 L254.322998046875,33.9662246704102 L254.322998046875,34.4852752685547 L254.322998046875,35.0216293334961 L254.09228515625,35.5925827026367 L254.09228515625,36.1635360717773 L253.9384765625,36.7690963745117 L253.9384765625,37.3919525146484 L253.7080078125,37.9975128173828 L253.7080078125,38.5338668823242 L253.7080078125,39.0529174804688 L253.7080078125,39.5027542114258 L253.7080078125,40.1083145141602 L253.9384765625,40.6792678833008 L253.9384765625,41.2156219482422"/>
    <path fill="none" opacity="1" stroke="#5980D4" stroke-width="1.5" stroke-height="3" stroke-linecap="round" d="M250.4013671875,60.2820587158203 L250.4013671875,60.0225219726563 L250.4013671875,59.797607421875 L250.4013671875,59.6245880126953 L250.4013671875,59.3996734619141 L250.4013671875,59.0536346435547 L250.632080078125,58.7075958251953 L250.785888671875,58.3442687988281 L251.0166015625,57.9982299804688 L251.17041015625,57.6867980957031 L251.401123046875,57.3753814697266 L251.5546875,57.1677551269531 L251.785400390625,56.9428253173828 L251.939208984375,56.7698211669922 L252.169921875,56.6314086914063 L252.400634765625,56.5102844238281 L252.78515625,56.3718719482422 L252.93896484375,56.3199768066406 L253.169677734375,56.2334594726563 L253.323486328125,56.1469573974609 L253.55419921875,56.1123504638672 L253.7080078125,56.0604400634766 L254.09228515625,55.9739379882813 L254.322998046875,55.9393310546875 L254.5537109375,55.9393310546875 L254.70751953125,55.9393310546875 L254.938232421875,55.9393310546875 L255.092041015625,55.9739379882813 L255.32275390625,56.0604400634766 L255.32275390625,56.1469573974609 L255.4765625,56.2334594726563 L255.707275390625,56.3199768066406 L255.707275390625,56.5102844238281 L255.861083984375,56.6314086914063 L255.861083984375,56.7698211669922 L255.861083984375,56.8909301757813 L255.861083984375,57.2023620605469 L255.861083984375,57.5137939453125 L255.861083984375,57.8252105712891 L255.707275390625,58.2577514648438 L255.4765625,58.6557006835938 L255.32275390625,59.0536346435547 L255.092041015625,59.4515686035156 L254.938232421875,59.797607421875 L254.70751953125,60.1090393066406 L254.322998046875,60.5069732666016 L253.9384765625,60.8530120849609 L253.7080078125,61.2855529785156 L253.323486328125,61.6488800048828 L252.93896484375,62.0468292236328 L252.554443359375,62.4793701171875 L252.169921875,62.8773040771484 L251.785400390625,63.1887359619141 L251.5546875,63.586669921875 L251.17041015625,63.8807983398438 L251.0166015625,64.1576232910156 L250.632080078125,64.3652496337891 L250.4013671875,64.6420745849609 L250.4013671875,64.8150939941406 L250.24755859375,64.9362030029297 L250.016845703125,65.0746154785156 L250.016845703125,65.2130279541016 L250.016845703125,65.2995300292969 L250.016845703125,65.3341369628906 L249.863037109375,65.3860473632813 L249.863037109375,65.4725494384766 L249.63232421875,65.5590667724609 L249.63232421875,65.5936584472656 L249.63232421875,65.7320709228516 L249.401611328125,65.8185882568359 L249.401611328125,65.9050903320313 L249.401611328125,65.9570007324219 L249.401611328125,66.0435028076172 L249.401611328125,66.1300201416016 L249.401611328125,66.1646118164063 L249.401611328125,66.2511291503906 L249.401611328125,66.3895416259766 L249.63232421875,66.4760437011719 L249.863037109375,66.5625610351563 L250.016845703125,66.6490631103516 L250.24755859375,66.7355804443359 L250.632080078125,66.8393859863281 L251.0166015625,66.9258880615234 L251.5546875,67.0469970703125 L252.169921875,67.1335144042969 L252.554443359375,67.2200164794922 L253.169677734375,67.3065338134766 L253.7080078125,67.3584289550781 L254.09228515625,67.4449462890625 L254.70751953125,67.5833587646484 L255.092041015625,67.7044677734375 L255.707275390625,67.8428802490234 L256.245361328125,67.9293823242188 L256.860595703125,68.0677947998047 L257.629638671875,68.1889190673828 L258.244873046875,68.3273315429688 L258.782958984375,68.4484405517578"/>
    <path fill="none" opacity="1" stroke="#5980D4" stroke-width="1.5" stroke-height="3" stroke-linecap="round" d="M41.397216796875,126.945358276367 L41.243408203125,127.031860351563 L41.243408203125,127.031860351563 L41.243408203125,127.083770751953 L41.0126953125,127.118377685547 L41.0126953125,127.118377685547 L41.0126953125,127.204879760742 L41.0126953125,127.204879760742 L41.0126953125,127.204879760742 L41.0126953125,127.204879760742 L41.0126953125,127.256790161133 L41.243408203125,127.291381835938 L41.243408203125,127.291381835938 L41.6279296875,127.343292236328 L42.012451171875,127.343292236328 L42.39697265625,127.343292236328 L43.01220703125,127.343292236328 L43.55029296875,127.395202636719 L44.16552734375,127.429809570313 L44.9345703125,127.429809570313 L45.549560546875,127.429809570313 L46.472412109375,127.429809570313 L47.318359375,127.429809570313 L48.087158203125,127.429809570313 L48.856201171875,127.429809570313 L49.85595703125,127.429809570313 L50.624755859375,127.429809570313 L51.393798828125,127.395202636719 L52.162841796875,127.291381835938 L52.931640625,127.291381835938 L53.546875,127.256790161133 L54.31591796875,127.170272827148 L54.930908203125,127.170272827148 L55.3154296875,127.170272827148 L55.853759765625,127.083770751953 L56.23828125,127.031860351563 L56.468994140625,127.031860351563 L56.853515625,126.945358276367 L57.084228515625,126.910751342773 L57.23779296875,126.824249267578 L57.23779296875,126.772338867188"/>
    <path fill="none" opacity="1" stroke="#5980D4" stroke-width="1.5" stroke-height="3" stroke-linecap="round" d="M49.24072265625,112.135131835938 L49.471435546875,112.048629760742 L49.471435546875,111.962112426758 L49.471435546875,111.875610351563 L49.471435546875,111.789093017578 L49.471435546875,111.702590942383 L49.471435546875,111.650680541992 L49.471435546875,111.650680541992 L49.471435546875,111.564178466797 L49.471435546875,111.564178466797 L49.471435546875,111.564178466797 L49.471435546875,111.564178466797 L49.471435546875,111.650680541992 L49.471435546875,111.702590942383 L49.471435546875,111.875610351563 L49.471435546875,112.048629760742 L49.471435546875,112.273544311523 L49.471435546875,112.533065795898 L49.471435546875,112.965606689453 L49.471435546875,113.536575317383 L49.24072265625,114.124816894531 L49.24072265625,114.782287597656 L49.24072265625,115.439743041992 L49.010009765625,116.097213745117 L49.010009765625,116.789276123047 L49.010009765625,117.412139892578 L48.856201171875,118.035003662109 L48.856201171875,118.640563964844 L48.856201171875,119.29801940918 L48.856201171875,119.86897277832 L48.62548828125,120.439926147461 L48.62548828125,120.976287841797 L48.62548828125,121.495330810547 L48.4716796875,121.893264770508 L48.4716796875,122.291213989258 L48.4716796875,122.637237548828 L48.4716796875,122.948669433594 L48.4716796875,123.208190917969"/>
    <path fill="none" opacity="1" stroke="#5980D4" stroke-width="1.5" stroke-height="3" stroke-linecap="round" d="M45.165283203125,132.931732177734 L45.165283203125,132.84521484375 L45.165283203125,132.706802368164 L45.165283203125,132.654907226563 L44.9345703125,132.620300292969 L44.9345703125,132.533798217773 L44.9345703125,132.447280883789 L44.9345703125,132.395385742188 L44.9345703125,132.360778808594 L44.9345703125,132.360778808594 L44.9345703125,132.274261474609 L44.9345703125,132.274261474609 L44.9345703125,132.222366333008 L44.9345703125,132.222366333008 L44.78076171875,132.222366333008 L44.78076171875,132.222366333008 L44.78076171875,132.360778808594 L44.78076171875,132.395385742188 L44.78076171875,132.533798217773 L44.78076171875,132.706802368164 L44.78076171875,132.931732177734 L44.78076171875,133.104751586914 L44.78076171875,133.312362670898 L44.78076171875,133.58918762207 L44.78076171875,133.796813964844 L44.9345703125,134.021728515625 L44.9345703125,134.246658325195 L45.165283203125,134.558090209961 L45.319091796875,134.938720703125 L45.549560546875,135.215545654297 L45.93408203125,135.561584472656 L46.318603515625,135.873016357422 L46.472412109375,136.132537841797 L46.703125,136.357452392578 L47.087646484375,136.530471801758 L47.318359375,136.651580810547 L47.47216796875,136.790008544922 L47.702880859375,136.876510620117 L48.087158203125,136.928421020508 L48.240966796875,136.928421020508 L48.4716796875,136.928421020508 L48.856201171875,136.876510620117 L49.24072265625,136.755401611328 L49.625244140625,136.565078735352 L50.009765625,136.392059326172 L50.39404296875,136.184448242188 L50.778564453125,135.994125366211 L51.1630859375,135.821105957031 L51.393798828125,135.648086547852 L51.547607421875,135.475082397461 L51.7783203125,135.302062988281 L52.009033203125,135.129043579102 L52.162841796875,134.990631103516 L52.3935546875,134.85221862793 L52.3935546875,134.731109619141 L52.3935546875,134.592697143555 L52.547119140625,134.50617980957 L52.547119140625,134.419677734375 L52.77783203125,134.333160400391 L52.77783203125,134.246658325195 L52.77783203125,134.160140991211 L52.77783203125,134.108245849609 L52.77783203125,134.108245849609 L52.931640625,134.021728515625 L52.931640625,134.021728515625 L52.931640625,134.021728515625 L52.931640625,134.021728515625 L52.931640625,134.021728515625 L52.931640625,134.108245849609 L52.77783203125,134.246658325195 L52.77783203125,134.367767333984 L52.77783203125,134.558090209961 L52.547119140625,134.85221862793 L52.3935546875,135.250152587891 L52.162841796875,135.613494873047 L52.162841796875,135.994125366211 L52.009033203125,136.565078735352 L51.7783203125,137.101425170898 L51.7783203125,137.620483398438 L51.547607421875,138.243347167969 L51.393798828125,138.848892211914 L51.393798828125,139.38525390625 L51.1630859375,139.956207275391 L51.00927734375,140.527160644531 L51.00927734375,141.150024414063 L50.778564453125,141.720977783203 L50.778564453125,142.291931152344 L50.624755859375,142.810974121094 L50.624755859375,143.34733581543 L50.624755859375,143.831771850586 L50.624755859375,144.212417602539 L50.624755859375,144.523849487305 L50.624755859375,144.83528137207 L50.778564453125,145.094802856445 L50.778564453125,145.267822265625"/>
    <path fill="none" opacity="1" stroke="#5980D4" stroke-width="1.5" stroke-height="3" stroke-linecap="round" d="M71.309814453125,123.260101318359 L71.309814453125,123.260101318359 L71.309814453125,123.260101318359 L71.54052734375,123.260101318359 L71.54052734375,123.260101318359 L71.6943359375,123.346603393555 L71.6943359375,123.433120727539 L71.925048828125,123.571533203125 L72.078857421875,123.744552612305 L72.3095703125,123.952163696289 L72.694091796875,124.263595581055 L73.07861328125,124.52311706543 L73.463134765625,124.834548950195 L73.847412109375,125.232498168945 L74.078125,125.682327270508 L74.462646484375,126.062973022461 L74.616455078125,126.512817382813 L75.0009765625,126.945358276367 L75.231689453125,127.343292236328 L75.6162109375,127.741226196289 L76.00048828125,128.139175415039 L76.231201171875,128.571716308594 L76.61572265625,128.883148193359 L76.76953125,129.194564819336 L77.000244140625,129.4541015625 L77.154052734375,129.713623046875 L77.384765625,129.938537597656 L77.384765625,130.111557006836 L77.53857421875,130.284576416016"/>
    <path fill="none" opacity="1" stroke="#5980D4" stroke-width="1.5" stroke-height="3" stroke-linecap="round" d="M78.307373046875,122.948669433594 L78.15380859375,123.035186767578 L78.15380859375,123.121688842773 L77.923095703125,123.260101318359 L77.53857421875,123.485015869141 L77.154052734375,123.8310546875 L76.76953125,124.177093505859 L76.385009765625,124.626937866211 L76.00048828125,125.09407043457 L75.6162109375,125.578521728516 L75.0009765625,126.114883422852 L74.616455078125,126.633926391602 L74.23193359375,127.204879760742 L73.847412109375,127.775833129883 L73.232421875,128.346786499023 L72.847900390625,128.917739868164 L72.694091796875,129.4541015625 L72.3095703125,129.938537597656 L72.078857421875,130.422988891602 L71.925048828125,130.855529785156"/>
    <path fill="none" opacity="1" stroke="#5980D4" stroke-width="1.5" stroke-height="3" stroke-linecap="round" d="M99.453857421875,119.782470703125 L99.453857421875,119.609451293945 L99.453857421875,119.384536743164 L99.223388671875,119.263412475586 L99.223388671875,119.125 L99.069580078125,118.986587524414 L98.8388671875,118.900085449219 L98.68505859375,118.900085449219 L98.454345703125,118.900085449219 L98.06982421875,118.95198059082 L97.45458984375,119.090408325195 L97.070068359375,119.263412475586 L96.531982421875,119.436431884766 L95.916748046875,119.747863769531 L95.301513671875,120.180404663086 L94.76318359375,120.578338623047 L94.148193359375,120.976287841797 L93.60986328125,121.495330810547 L91.9951171875,122.862167358398 L91.84130859375,123.173599243164 L91.456787109375,123.692642211914 L91.072265625,124.315505981445 L90.61083984375,125.007568359375 L90.226318359375,125.682327270508 L89.842041015625,126.426300048828 L89.45751953125,127.118377685547 L89.3037109375,127.827743530273 L89.072998046875,128.537109375 L88.919189453125,129.22917175293 L88.6884765625,129.97314453125 L88.6884765625,130.682510375977 L88.53466796875,131.391876220703 L88.53466796875,132.049346923828 L88.6884765625,132.654907226563 L88.6884765625,133.225860595703 L88.919189453125,133.76220703125 L89.3037109375,134.194747924805 L89.45751953125,134.592697143555 L89.842041015625,134.938720703125 L90.072509765625,135.302062988281 L90.45703125,135.561584472656 L90.841552734375,135.786499023438 L91.456787109375,135.959518432617 L91.84130859375,136.046035766602 L92.225830078125,136.080627441406 L92.610107421875,136.080627441406 L92.99462890625,136.080627441406 L93.379150390625,136.080627441406 L93.763671875,136.046035766602 L94.37890625,135.907623291016 L94.76318359375,135.734603881836 L95.301513671875,135.509674072266 L95.762939453125,135.302062988281 L96.1474609375,135.042526245117 L96.531982421875,134.817611694336 L96.685791015625,134.592697143555 L97.070068359375,134.367767333984 L97.30078125,134.194747924805 L97.30078125,133.98713684082 L97.45458984375,133.796813964844 L97.45458984375,133.58918762207 L97.45458984375,133.364273071289 L97.45458984375,133.139343261719 L97.45458984375,132.931732177734 L97.45458984375,132.706802368164 L97.30078125,132.447280883789 L96.91650390625,132.170455932617 L96.531982421875,131.910934448242 L96.30126953125,131.651412963867 L95.916748046875,131.391876220703 L95.5322265625,131.166961669922 L95.147705078125,131.028549194336 L94.76318359375,130.907440185547 L94.37890625,130.907440185547 L93.994384765625,130.907440185547 L93.60986328125,130.907440185547 L93.225341796875,130.907440185547 L92.99462890625,130.907440185547 L92.610107421875,130.942031860352 L92.225830078125,130.993942260742 L91.9951171875,131.080459594727 L91.84130859375,131.166961669922"/>
    <path fill="none" opacity="1" stroke="#5980D4" stroke-width="1.5" stroke-height="3" stroke-linecap="round" d="M119.139404296875,126.374404907227 L119.139404296875,126.374404907227 L119.139404296875,126.374404907227 L119.3701171875,126.374404907227 L119.52392578125,126.374404907227 L119.754638671875,126.374404907227 L119.908447265625,126.426300048828 L120.36962890625,126.460906982422 L120.754150390625,126.460906982422 L121.29248046875,126.460906982422 L121.90771484375,126.512817382813 L122.6767578125,126.512817382813 L123.291748046875,126.547424316406 L123.67626953125,126.547424316406 L124.4453125,126.547424316406 L125.060302734375,126.547424316406 L125.5986328125,126.547424316406 L126.2138671875,126.547424316406 L126.752197265625,126.547424316406 L127.13671875,126.547424316406 L127.751708984375,126.547424316406 L128.13623046875,126.547424316406 L128.520751953125,126.547424316406 L128.75146484375,126.512817382813 L129.135986328125,126.512817382813"/>
    <path fill="none" opacity="1" stroke="#5980D4" stroke-width="1.5" stroke-height="3" stroke-linecap="round" d="M119.908447265625,132.222366333008 L120.13916015625,132.222366333008 L120.13916015625,132.274261474609 L120.5234375,132.308868408203 L120.907958984375,132.360778808594 L121.523193359375,132.360778808594 L122.0615234375,132.360778808594 L122.9072265625,132.360778808594 L123.67626953125,132.360778808594 L124.59912109375,132.308868408203 L125.44482421875,132.222366333008 L126.598388671875,132.135848999023 L127.597900390625,132.083953857422 L128.520751953125,132.083953857422 L129.5205078125,132.083953857422 L130.52001953125,132.049346923828 L131.44287109375,131.962844848633"/>
    <path fill="none" opacity="1" stroke="#5980D4" stroke-width="1.5" stroke-height="3" stroke-linecap="round" d="M149.821044921875,127.654724121094 L150.0517578125,127.654724121094 L150.0517578125,127.602813720703 L150.20556640625,127.602813720703 L150.20556640625,127.602813720703 L150.436279296875,127.516311645508 L150.820556640625,127.516311645508 L150.974365234375,127.516311645508 L151.589599609375,127.481704711914 L152.204833984375,127.429809570313 L152.973876953125,127.429809570313 L153.74267578125,127.429809570313 L154.742431640625,127.429809570313 L155.51123046875,127.429809570313 L156.43408203125,127.429809570313 L157.433837890625,127.429809570313 L158.587158203125,127.429809570313 L159.817626953125,127.291381835938 L160.740234375,127.256790161133 L161.970703125,127.256790161133 L162.893310546875,127.256790161133 L163.89306640625,127.256790161133 L164.892578125,127.256790161133 L165.8154296875,127.204879760742 L166.661376953125,127.204879760742 L167.43017578125,127.204879760742 L168.19921875,127.204879760742 L168.96826171875,127.118377685547 L169.583251953125,127.118377685547 L170.352294921875,127.031860351563"/>
    <path fill="none" opacity="1" stroke="#5980D4" stroke-width="1.5" stroke-height="3" stroke-linecap="round" d="M161.50927734375,110.508773803711 L161.50927734375,110.422271728516 L161.50927734375,110.387664794922 L161.50927734375,110.387664794922 L161.50927734375,110.335754394531 L161.739990234375,110.249252319336 L161.739990234375,110.249252319336 L161.739990234375,110.197341918945 L161.739990234375,110.11083984375 L161.739990234375,110.11083984375 L161.739990234375,110.076232910156 L161.739990234375,110.024337768555 L161.739990234375,109.93782043457 L161.50927734375,109.903213500977 L161.50927734375,109.903213500977 L161.35546875,109.816711425781 L161.35546875,109.730209350586 L161.124755859375,109.730209350586 L160.970947265625,109.678298950195 L160.740234375,109.678298950195 L160.58642578125,109.678298950195 L160.355712890625,109.626388549805 L159.971435546875,109.626388549805 L159.5869140625,109.626388549805 L159.202392578125,109.730209350586 L158.587158203125,109.851318359375 L158.048828125,110.024337768555 L157.433837890625,110.249252319336 L156.8955078125,110.508773803711 L156.43408203125,110.820205688477 L155.895751953125,111.166244506836 L155.51123046875,111.616088867188 L154.896240234375,112.048629760742 L154.51171875,112.498474121094 L154.127197265625,113.017517089844 L153.74267578125,113.588470458984 L153.511962890625,114.159423828125 L153.127685546875,114.81689453125 L152.973876953125,115.439743041992 L152.7431640625,116.045303344727 L152.7431640625,116.702774047852 L152.58935546875,117.273727416992 L152.58935546875,117.844680786133 L152.58935546875,118.467544555664 L152.58935546875,118.986587524414 L152.7431640625,119.609451293945 L152.973876953125,120.128494262695 L152.973876953125,120.612945556641 L153.358154296875,121.097396850586 L153.511962890625,121.547241210938 L153.74267578125,122.031677246094 L153.896484375,122.464218139648 L154.127197265625,122.896774291992 L154.35791015625,123.346603393555 L154.51171875,123.692642211914 L154.742431640625,123.952163696289 L155.126953125,124.315505981445 L155.28076171875,124.57502746582 L155.51123046875,124.799942016602 L155.895751953125,124.92106628418 L156.049560546875,125.059478759766 L156.2802734375,125.145980834961 L156.43408203125,125.197891235352 L156.8955078125,125.232498168945 L157.04931640625,125.284393310547 L157.280029296875,125.284393310547 L157.433837890625,125.284393310547 L157.66455078125,125.284393310547 L157.818115234375,125.284393310547 L158.048828125,125.197891235352 L158.433349609375,125.007568359375 L158.81787109375,124.799942016602 L159.202392578125,124.626937866211 L159.5869140625,124.402008056641 L159.817626953125,124.142486572266 L159.971435546875,123.952163696289 L160.201904296875,123.779144287109 L160.355712890625,123.65803527832 L160.355712890625,123.519622802734 L160.58642578125,123.346603393555 L160.58642578125,123.260101318359 L160.58642578125,123.08708190918 L160.58642578125,122.948669433594 L160.58642578125,122.810256958008 L160.58642578125,122.689147949219 L160.58642578125,122.602645874023 L160.355712890625,122.464218139648 L160.355712890625,122.325805664063 L160.201904296875,122.239303588867 L159.971435546875,122.204696655273 L159.817626953125,122.204696655273 L159.5869140625,122.204696655273 L158.9716796875,122.204696655273 L158.587158203125,122.239303588867 L158.20263671875,122.377716064453 L157.66455078125,122.464218139648 L157.280029296875,122.689147949219"/>
    <path fill="none" opacity="1" stroke="#5980D4" stroke-width="1.5" stroke-height="3" stroke-linecap="round" d="M157.433837890625,132.620300292969 L157.433837890625,132.481887817383 L157.66455078125,132.360778808594 L157.66455078125,132.222366333008 L157.66455078125,132.049346923828 L157.66455078125,131.962844848633 L157.66455078125,131.824417114258 L157.66455078125,131.737915039063 L157.818115234375,131.651412963867 L157.818115234375,131.599502563477 L157.818115234375,131.564895629883 L157.818115234375,131.564895629883 L157.818115234375,131.564895629883 L157.818115234375,131.564895629883 L157.818115234375,131.599502563477 L157.66455078125,131.737915039063 L157.66455078125,131.910934448242 L157.66455078125,132.135848999023 L157.433837890625,132.360778808594 L157.433837890625,132.568389892578 L157.433837890625,132.966339111328 L157.280029296875,133.41618347168 L157.280029296875,133.883316040039 L157.04931640625,134.333160400391 L157.04931640625,134.765701293945 L157.04931640625,135.129043579102 L157.04931640625,135.42317199707 L157.04931640625,135.786499023438 L157.04931640625,136.080627441406 L157.280029296875,136.357452392578 L157.280029296875,136.565078735352 L157.280029296875,136.841903686523 L157.433837890625,137.049530029297 L157.433837890625,137.326354980469 L157.66455078125,137.533966064453 L157.66455078125,137.706985473633 L157.818115234375,137.897308349609 L158.048828125,138.018417358398 L158.20263671875,138.156829833984 L158.433349609375,138.277938842773 L158.587158203125,138.381759643555 L158.81787109375,138.381759643555 L158.9716796875,138.416351318359 L159.202392578125,138.416351318359 L159.5869140625,138.329849243164 L159.971435546875,138.191436767578 L160.355712890625,138.018417358398 L160.970947265625,137.758895874023 L161.35546875,137.447463989258 L161.739990234375,137.136032104492 L161.970703125,136.790008544922 L162.5087890625,136.392059326172 L162.739501953125,136.046035766602 L162.893310546875,135.786499023438 L163.27783203125,135.42317199707 L163.508544921875,135.163650512695 L163.662353515625,134.938720703125 L163.89306640625,134.765701293945 L163.89306640625,134.644592285156 L164.123779296875,134.558090209961 L164.123779296875,134.50617980957 L164.277587890625,134.50617980957 L164.277587890625,134.45426940918 L164.277587890625,134.367767333984 L164.277587890625,134.367767333984 L164.277587890625,134.367767333984 L164.50830078125,134.367767333984 L164.50830078125,134.367767333984 L164.50830078125,134.367767333984 L164.50830078125,134.50617980957 L164.50830078125,134.644592285156 L164.50830078125,134.85221862793 L164.277587890625,135.215545654297 L164.277587890625,135.613494873047 L164.123779296875,136.080627441406 L163.89306640625,136.703491210938 L163.89306640625,137.326354980469 L163.662353515625,137.983810424805 L163.508544921875,138.727783203125 L163.27783203125,139.437149047852 L163.27783203125,140.181121826172 L163.1240234375,140.873199462891 L163.1240234375,141.634460449219 L162.893310546875,142.413040161133 L162.893310546875,143.157012939453 L162.739501953125,143.86637878418 L162.739501953125,144.575744628906 L162.739501953125,145.233215332031 L162.739501953125,145.838775634766 L162.739501953125,146.375122070313 L162.893310546875,146.807662963867 L163.1240234375,147.257507324219 L163.27783203125,147.638137817383"/>
    <path fill="none" opacity="1" stroke="#5980D4" stroke-width="1.5" stroke-height="3" stroke-linecap="round" d="M184.578125,125.682327270508 L184.962646484375,125.682327270508 L185.34716796875,125.630432128906 L185.962158203125,125.630432128906 L186.731201171875,125.578521728516 L187.346435546875,125.578521728516 L188.115478515625,125.578521728516 L188.73046875,125.682327270508 L189.268798828125,125.716934204102 L189.884033203125,125.768844604492 L190.42236328125,125.803451538086 L190.806640625,125.855346679688 L191.421875,125.855346679688 L191.806396484375,125.889953613281 L192.037109375,125.976455688477"/>
    <path fill="none" opacity="1" stroke="#5980D4" stroke-width="1.5" stroke-height="3" stroke-linecap="round" d="M182.8095703125,129.80012512207 L182.8095703125,129.852035522461 L183.040283203125,129.938537597656 L183.194091796875,129.97314453125 L183.4248046875,129.97314453125 L183.80908203125,130.076950073242 L184.193603515625,130.076950073242 L184.962646484375,130.111557006836 L185.731689453125,130.111557006836 L186.731201171875,130.111557006836 L187.73095703125,130.111557006836 L188.73046875,130.111557006836 L189.6533203125,130.111557006836 L190.806640625,130.076950073242 L191.806396484375,130.076950073242 L192.80615234375,130.076950073242 L193.8056640625,130.076950073242 L194.959228515625,129.97314453125"/>
    <path fill="none" opacity="1" stroke="#5980D4" stroke-width="1.5" stroke-height="3" stroke-linecap="round" d="M213.4912109375,122.550735473633 L213.4912109375,122.550735473633 L213.4912109375,122.550735473633 L213.4912109375,122.550735473633 L213.33740234375,122.550735473633 L213.33740234375,122.550735473633 L213.33740234375,122.550735473633 L213.33740234375,122.550735473633 L213.106689453125,122.637237548828 L213.106689453125,122.723754882813 L213.106689453125,122.862167358398 L213.106689453125,122.948669433594 L213.106689453125,123.08708190918 L213.106689453125,123.260101318359 L212.8759765625,123.485015869141 L212.8759765625,123.917572021484 L212.8759765625,124.402008056641 L212.72216796875,125.007568359375 L212.491455078125,125.578521728516 L212.491455078125,126.253295898438 L212.337646484375,126.858840942383 L212.337646484375,127.568222045898 L212.10693359375,128.139175415039 L212.10693359375,128.744735717773 L212.10693359375,129.402191162109 L211.953125,129.97314453125 L211.953125,130.509490966797 L211.722412109375,131.080459594727 L211.722412109375,131.564895629883 L211.722412109375,131.962844848633 L211.722412109375,132.274261474609 L211.722412109375,132.533798217773 L211.953125,132.654907226563"/>
    <path fill="none" opacity="1" stroke="#5980D4" stroke-width="1.5" stroke-height="3" stroke-linecap="round" d="M225.25634765625,128.485198974609 L225.25634765625,128.537109375 L225.25634765625,128.571716308594 L225.25634765625,128.623611450195 L225.25634765625,128.623611450195 L225.25634765625,128.623611450195 L225.25634765625,128.658218383789 L225.25634765625,128.744735717773 L225.25634765625,128.796630859375 L225.25634765625,128.796630859375 L225.41015625,128.831237792969 L225.640869140625,128.831237792969 L226.025146484375,128.831237792969 L226.5634765625,128.883148193359 L227.1787109375,128.883148193359 L227.94775390625,128.883148193359 L228.716552734375,128.883148193359 L229.485595703125,128.883148193359 L230.485107421875,128.831237792969 L231.48486328125,128.744735717773 L232.25390625,128.744735717773 L233.25341796875,128.71012878418 L235.560302734375,128.450607299805 L235.94482421875,128.450607299805 L236.7138671875,128.450607299805 L237.5595703125,128.346786499023 L238.097900390625,128.260284423828 L238.866943359375,128.173767089844 L239.482177734375,128.139175415039 L240.2509765625,128.087265014648 L240.8662109375,127.966156005859 L241.404541015625,127.879638671875"/>
    <path fill="none" opacity="1" stroke="#5980D4" stroke-width="1.5" stroke-height="3" stroke-linecap="round" d="M234.17626953125,109.626388549805 L234.17626953125,109.816711425781 L234.0224609375,110.11083984375 L234.0224609375,110.508773803711 L233.791748046875,110.906707763672 L233.791748046875,111.304656982422 L233.791748046875,111.702590942383 L233.791748046875,112.187042236328 L233.791748046875,112.792602539063 L233.791748046875,113.328948974609 L233.791748046875,113.934509277344 L233.791748046875,114.557373046875 L233.791748046875,115.128326416016 L233.791748046875,115.837692260742 L234.0224609375,116.443252563477 L234.0224609375,117.100708007813 L234.17626953125,117.723571777344 L234.17626953125,118.329132080078 L234.17626953125,118.986587524414 L234.17626953125,119.695953369141"/>
    <path fill="none" opacity="1" stroke="#5980D4" stroke-width="1.5" stroke-height="3" stroke-linecap="round" d="M229.8701171875,134.45426940918 L229.8701171875,134.45426940918 L229.8701171875,134.367767333984 L229.8701171875,134.367767333984 L229.8701171875,134.333160400391 L229.8701171875,134.281265258789 L229.8701171875,134.194747924805 L229.8701171875,134.108245849609 L230.100830078125,134.021728515625 L230.100830078125,133.883316040039 L230.33154296875,133.796813964844 L230.485107421875,133.675704956055 L230.7158203125,133.537292480469 L231.100341796875,133.41618347168 L231.48486328125,133.191253662109 L231.869384765625,133.104751586914 L232.40771484375,132.966339111328 L232.868896484375,132.879821777344 L233.25341796875,132.879821777344 L233.637939453125,132.84521484375 L234.0224609375,132.84521484375 L234.406982421875,132.84521484375 L234.79150390625,132.741409301758 L235.022216796875,132.741409301758 L235.17578125,132.84521484375 L235.406494140625,132.931732177734 L235.791015625,133.01823425293 L235.94482421875,133.191253662109 L236.329345703125,133.502685546875 L236.56005859375,133.796813964844 L236.7138671875,134.073638916016 L236.944580078125,134.45426940918 L236.944580078125,134.85221862793 L236.944580078125,135.336654663086 L236.944580078125,135.786499023438 L236.944580078125,136.184448242188 L236.944580078125,136.703491210938 L236.7138671875,137.274444580078 L236.56005859375,137.758895874023 L236.56005859375,138.243347167969 L236.329345703125,138.727783203125 L235.94482421875,139.21223449707 L235.791015625,139.696685791016 L235.406494140625,140.181121826172 L235.022216796875,140.613662719727 L234.79150390625,141.011611938477 L234.406982421875,141.409545898438 L234.17626953125,141.755584716797 L233.791748046875,142.101608276367 L233.4072265625,142.464950561523 L233.022705078125,142.862884521484 L232.638427734375,143.208923339844 L232.25390625,143.468444824219 L231.869384765625,143.779876708984 L231.48486328125,144.039398193359 L231.100341796875,144.298919677734 L230.86962890625,144.523849487305 L230.485107421875,144.748764038086 L230.33154296875,144.973693847656 L229.8701171875,145.181304931641 L229.485595703125,145.35432434082 L229.331787109375,145.544647216797 L229.10107421875,145.665756225586 L228.947265625,145.804168701172 L228.716552734375,145.838775634766 L228.716552734375,145.925277709961 L228.716552734375,146.063690185547 L228.716552734375,146.063690185547 L228.716552734375,146.063690185547 L228.562744140625,146.150207519531 L228.562744140625,146.202102661133 L228.562744140625,146.202102661133 L228.562744140625,146.236709594727 L228.562744140625,146.236709594727 L228.716552734375,146.323211669922 L228.716552734375,146.323211669922 L228.947265625,146.409729003906 L228.947265625,146.461624145508 L229.331787109375,146.461624145508 L229.485595703125,146.496231079102 L229.8701171875,146.548141479492 L230.33154296875,146.634643554688 L231.100341796875,146.548141479492 L231.869384765625,146.548141479492 L232.638427734375,146.548141479492 L233.637939453125,146.461624145508 L234.406982421875,146.409729003906 L235.406494140625,146.323211669922 L236.175537109375,146.288619995117 L236.944580078125,146.288619995117 L237.71337890625,146.288619995117 L238.482421875,146.288619995117 L239.09765625,146.288619995117 L239.635986328125,146.375122070313"/>
    <path fill="none" opacity="1" stroke="#5980D4" stroke-width="1.5" stroke-height="3" stroke-linecap="round" d="M244.941650390625,19.7615585327148 L244.32666015625,19.6750564575195 L243.788330078125,19.6750564575195 L243.019287109375,19.7615585327148 L242.404052734375,19.8480682373047 L241.63525390625,19.9345779418945 L240.8662109375,20.2114028930664 L240.09716796875,20.4709320068359 L239.482177734375,20.8169631958008 L238.482421875,21.2149047851563 L237.944091796875,21.6128387451172 L235.94482421875,22.6682434082031 L235.791015625,22.8931655883789 L235.17578125,23.3257064819336 L233.791748046875,24.6060256958008 L232.868896484375,25.6095199584961 L231.638671875,26.5784149169922 L230.86962890625,27.6684188842773 L230.100830078125,28.6373138427734 L229.331787109375,29.6062088012695 L228.562744140625,30.7135162353516 L227.94775390625,31.630500793457 L227.1787109375,32.5993957519531 L226.40966796875,33.7413024902344 L225.640869140625,34.8313064575195 L225.025634765625,35.8521041870117 L224.256591796875,36.8209991455078 L223.641357421875,37.8764038085938 L223.257080078125,39.1394195556641 L222.641845703125,40.2467269897461 L222.25732421875,41.4751434326172 L222.103515625,41.9595947265625 L221.872802734375,42.617057800293 L221.718994140625,43.4129333496094 L221.48828125,44.2953186035156 L221.33447265625,45.2123107910156 L221.103759765625,46.0946960449219 L220.9501953125,47.0981903076172 L220.9501953125,48.1189880371094 L220.719482421875,49.1570892333984 L220.719482421875,50.1778869628906 L220.719482421875,51.2332916259766 L220.719482421875,52.3232879638672 L220.9501953125,53.3786926269531 L220.9501953125,54.3994903564453 L221.103759765625,55.4548950195313 L221.33447265625,56.4237823486328 L221.48828125,57.3407745361328 L221.718994140625,58.3096618652344 L221.872802734375,59.2266540527344 L222.488037109375,61.3893585205078 L222.87255859375,62.5658721923828 L223.103271484375,63.0503234863281 L223.641357421875,64.6766815185547 L224.256591796875,65.6455688476563 L224.410400390625,66.0435028076172 L224.794921875,66.6144561767578 L225.25634765625,67.2719268798828 L225.640869140625,67.9293823242188 L226.025146484375,68.6387481689453 L226.5634765625,69.3308258056641 L227.7939453125,70.9225769042969 L228.562744140625,71.6665496826172 L228.947265625,71.9779815673828 L229.485595703125,72.4105224609375 L230.100830078125,72.9468688964844 L230.7158203125,73.4313201904297 L231.48486328125,73.8984680175781 L232.25390625,74.3829040527344 L233.022705078125,74.8673553466797 L233.791748046875,75.3171997070313 L235.560302734375,76.3726043701172 L235.94482421875,76.5802154541016 L236.7138671875,76.8051452636719 L237.5595703125,77.1165771484375 L238.32861328125,77.3760986328125 L239.25146484375,77.6875305175781 L240.09716796875,78.0335540771484 L241.02001953125,78.3449859619141 L242.019775390625,78.5699157714844 L242.78857421875,78.7775268554688 L243.788330078125,79.0024566650391 L244.787841796875,79.1754608154297 L245.710693359375,79.3484802246094 L246.71044921875,79.4868927001953 L247.7099609375,79.5734100341797 L248.863525390625,79.7118225097656 L249.63232421875,79.7983245849609 L250.785888671875,79.91943359375 L251.5546875,80.0232543945313 L252.554443359375,80.0232543945313 L253.55419921875,80.1097564697266 L254.5537109375,80.1097564697266 L255.32275390625,80.1097564697266 L256.245361328125,80.1097564697266 L257.2451171875,80.1097564697266 L258.244873046875,80.0232543945313 L259.16748046875,79.91943359375 L260.013427734375,79.8848419189453 L260.93603515625,79.7464294433594 L261.705078125,79.6253051757813 L262.704833984375,79.400390625 L263.4736328125,79.2619781494141 L264.473388671875,79.0889587402344 L265.242431640625,78.8640441894531 L267.3955078125,78.2065734863281 L268.010498046875,78.0335540771484 L268.779541015625,77.7740325927734 L269.548583984375,77.5145111083984 L271.470947265625,76.7186279296875 L272.701171875,76.1995849609375 L273.6240234375,75.6632232666016 L274.2392578125,75.4037017822266 L275.777099609375,74.4694213867188 L277.007568359375,73.8984680175781 L277.391845703125,73.6389312744141 L278.69921875,72.7565460205078 L279.69873046875,72.0990905761719 L280.31396484375,71.8049621582031 L281.467529296875,70.8360595703125 L281.851806640625,70.5246429443359 L282.467041015625,70.0747985839844 L283.00537109375,69.6076507568359 L284.6201171875,68.3273315429688 L285.38916015625,67.4968414306641 L285.773681640625,67.1335144042969 L286.388916015625,66.6490631103516 L287.542236328125,65.2130279541016 L287.696044921875,64.8496856689453 L288.08056640625,64.3306427001953 L288.465087890625,63.7596893310547 L288.92626953125,63.1022186279297 L290.079833984375,61.3893585205078 L290.233642578125,60.9914245605469 L290.46435546875,60.4204711914063 L290.6181640625,59.797607421875 L290.848876953125,59.14013671875 L291.233154296875,58.3961791992188 L291.4638671875,57.5656890869141 L291.61767578125,56.7698211669922 L291.848388671875,55.8874359130859 L291.848388671875,55.0050506591797 L292.002197265625,54.0880584716797 L292.002197265625,53.2575836181641 L292.002197265625,52.3751983642578 L292.002197265625,51.4582061767578 L292.002197265625,50.5758209228516 L292.002197265625,49.6934356689453 L292.002197265625,48.8110504150391 L291.848388671875,47.8940582275391 L291.848388671875,46.9251708984375 L291.61767578125,46.0081787109375 L291.002685546875,43.8108673095703 L290.46435546875,42.6689605712891 L290.079833984375,41.561653137207 L289.310791015625,40.4197463989258 L288.92626953125,39.1394195556641 L288.311279296875,37.911003112793 L287.542236328125,36.5441741943359 L286.927001953125,35.1946411132813 L286.158203125,33.6547927856445 L285.004638671875,32.2533645629883 L284.005126953125,30.8346252441406 L282.8515625,29.5716018676758 L281.467529296875,28.4296951293945 L279.929443359375,27.2877807617188 L278.314697265625,26.3534927368164 L276.77685546875,25.4365081787109 L275.008056640625,24.5541229248047 L273.085693359375,23.8101501464844 L270.9326171875,23.1526870727539 L268.39501953125,22.6163330078125 L265.626708984375,22.1837921142578 L262.935546875,21.8723678588867 L260.167236328125,21.5609359741211 L257.475830078125,21.3533172607422 L254.938232421875,21.2149047851563 L252.169921875,21.1802978515625 L249.863037109375,21.3014068603516 L247.479248046875,21.4744262695313 L245.326171875,21.6128387451172 L243.40380859375,21.837760925293 L241.404541015625,22.2183990478516 L239.635986328125,22.6682434082031 L238.097900390625,23.014274597168 L236.56005859375,23.4122085571289 L236.175537109375,23.4987182617188 L234.406982421875,24.2945938110352"/>
    <path fill="none" opacity="1" stroke="#5980D4" stroke-width="1.5" stroke-height="3" stroke-linecap="round" d="M232.868896484375,101.684936523438 L232.638427734375,101.511917114258 L232.40771484375,101.286987304688 L232.023193359375,101.062072753906 L231.638671875,100.802551269531 L231.254150390625,100.577621459961 L230.86962890625,100.35270690918 L230.485107421875,100.266189575195 L229.8701171875,100.145080566406 L229.331787109375,100.058578491211 L228.716552734375,100.058578491211 L228.17822265625,100.058578491211 L227.33251953125,100.058578491211 L226.5634765625,100.093170166016 L225.79443359375,100.266189575195 L225.025634765625,100.456512451172 L224.256591796875,100.664138793945 L223.487548828125,100.889053344727 L222.488037109375,101.235092163086 L221.718994140625,101.546508789063 L220.9501953125,101.892547607422 L218.95068359375,102.861434936523 L218.56640625,103.138275146484 L218.028076171875,103.484298706055 L216.4130859375,104.626205444336 L216.02880859375,104.937637329102 L215.644287109375,105.370178222656 L215.029052734375,105.854629516602 L214.49072265625,106.373672485352 L212.8759765625,107.913528442383 L212.10693359375,108.761306762695 L211.338134765625,109.626388549805 L210.569091796875,110.474166870117 L210.33837890625,110.872116088867 L209.953857421875,111.391159057617 L208.800537109375,112.965606689453 L208.031494140625,113.89990234375 L207.416259765625,114.868789672852 L207.03173828125,115.301330566406 L206.6474609375,115.872299194336 L205.87841796875,117.498641967773 L205.724609375,117.931182861328 L205.26318359375,118.60595703125 L204.878662109375,119.29801940918 L204.724853515625,120.093902587891 L204.494384765625,120.924377441406 L204.10986328125,121.754852294922 L203.9560546875,122.637237548828 L203.9560546875,123.571533203125 L203.725341796875,124.436614990234 L203.571533203125,125.405502319336 L203.571533203125,126.426300048828 L203.571533203125,127.395202636719 L203.571533203125,128.346786499023 L203.571533203125,129.28108215332 L203.725341796875,130.249969482422 L203.725341796875,131.218872070313 L203.9560546875,132.170455932617 L204.10986328125,133.104751586914 L204.10986328125,134.073638916016 L204.494384765625,134.938720703125 L204.724853515625,135.873016357422 L205.26318359375,137.931915283203 L205.493896484375,138.381759643555 L205.87841796875,139.039215087891 L206.262939453125,139.783187866211 L206.6474609375,140.527160644531 L207.64697265625,142.205413818359 L207.80078125,142.586059570313 L208.26220703125,143.122406005859 L209.41552734375,144.6103515625 L210.1845703125,145.406234741211 L210.569091796875,145.717651367188 L210.95361328125,146.150207519531 L212.337646484375,147.430526733398 L212.72216796875,147.741958618164 L213.33740234375,148.087982177734 L213.875732421875,148.57243347168 L214.49072265625,149.056884765625 L215.259765625,149.541320800781 L215.875,149.973861694336 L216.643798828125,150.406402587891 L217.18212890625,150.856246948242 L218.028076171875,151.254196166992 L218.796875,151.652130126953 L219.335205078125,152.032760620117 L220.104248046875,152.430709838867 L220.9501953125,152.742126464844 L221.872802734375,153.088165283203 L222.641845703125,153.399597167969 L223.487548828125,153.711029052734 L224.410400390625,153.970550537109 L225.25634765625,154.19548034668 L226.025146484375,154.455001831055 L226.947998046875,154.628021240234 L227.7939453125,154.852935791016 L228.716552734375,155.025955200195 L229.71630859375,155.198974609375 L230.485107421875,155.337387084961 L231.48486328125,155.475799560547 L232.25390625,155.562301635742 L233.022705078125,155.683410644531 L234.0224609375,155.735321044922 L234.79150390625,155.821823120117 L235.560302734375,155.908340454102 L236.329345703125,155.908340454102 L237.098388671875,155.908340454102 L237.944091796875,155.908340454102 L238.713134765625,155.821823120117 L239.482177734375,155.769927978516 L240.2509765625,155.683410644531 L241.02001953125,155.596908569336 L241.7890625,155.510406494141 L242.634765625,155.389282226563 L243.173095703125,155.198974609375 L244.1728515625,155.025955200195 L244.941650390625,154.852935791016 L245.710693359375,154.593414306641 L246.325927734375,154.333892822266 L247.0947265625,154.0224609375 L247.86376953125,153.711029052734 L248.6328125,153.399597167969 L249.401611328125,153.001663208008 L250.24755859375,152.655624389648 L251.0166015625,152.257690429688 L251.785400390625,151.825149536133 L252.400634765625,151.340698242188 L253.169677734375,150.856246948242 L253.9384765625,150.371810913086 L255.4765625,149.229888916016 L256.47607421875,148.520523071289 L256.860595703125,148.22639465332 L257.475830078125,147.776550292969 L258.782958984375,146.634643554688 L259.013671875,146.323211669922 L260.167236328125,145.267822265625 L260.39794921875,144.973693847656 L260.93603515625,144.489242553711 L261.320556640625,143.91828918457 L261.705078125,143.34733581543 L262.3203125,142.776382446289 L262.704833984375,142.101608276367 L263.08935546875,141.444152832031 L263.4736328125,140.838592529297 L263.858154296875,140.094619750977 L264.319580078125,139.38525390625 L264.473388671875,138.64128112793 L264.85791015625,137.897308349609 L265.088623046875,137.049530029297 L265.472900390625,136.270950317383 L265.626708984375,135.388565063477 L265.857421875,134.45426940918 L266.01123046875,133.537292480469 L266.241943359375,132.620300292969 L266.395751953125,131.686004638672 L266.395751953125,130.820922851563 L266.62646484375,130.025054931641 L266.62646484375,129.142669677734 L266.62646484375,128.398696899414 L266.62646484375,127.654724121094 L266.62646484375,126.910751342773 L266.62646484375,126.062973022461 L266.395751953125,125.284393310547 L266.241943359375,124.52311706543 L266.01123046875,123.779144287109 L265.626708984375,123.000579833984 L265.472900390625,122.239303588867 L265.088623046875,121.495330810547 L264.7041015625,120.751358032227 L263.4736328125,119.125 L262.935546875,118.121505737305 L262.16650390625,117.066101074219 L261.55126953125,115.872299194336 L260.5517578125,114.868789672852 L259.78271484375,113.588470458984 L259.013671875,112.394653320313 L258.01416015625,111.218139648438 L256.860595703125,110.197341918945 L255.707275390625,109.055435180664 L254.322998046875,108.103851318359 L252.93896484375,107.221466064453 L251.5546875,106.114151000977 L250.016845703125,105.197174072266 L248.47900390625,104.366683959961 L246.479736328125,103.657318115234 L244.787841796875,102.999862670898 L243.019287109375,102.376998901367 L240.8662109375,102.030960083008 L239.09765625,101.598419189453 L236.944580078125,101.286987304688 L235.17578125,101.062072753906 L233.637939453125,100.716033935547 L231.869384765625,100.491119384766 L230.100830078125,100.456512451172 L229.485595703125,100.456512451172 L228.562744140625,100.491119384766 L226.025146484375,100.802551269531 L225.41015625,100.837142944336 L223.641357421875,101.321594238281 L223.103271484375,101.546508789063 L222.488037109375,101.719528198242"/>
    <path fill="none" opacity="1" stroke="#5980D4" stroke-width="1.5" stroke-height="3" stroke-linecap="round" d="M242.78857421875,86.7016906738281 L242.78857421875,86.6497802734375 L242.78857421875,86.5632781982422 L242.78857421875,86.5632781982422 L242.78857421875,86.5632781982422 L242.78857421875,86.5632781982422 L242.78857421875,86.5632781982422 L242.78857421875,86.5632781982422 L242.78857421875,86.5978851318359 L242.78857421875,86.7016906738281 L242.78857421875,86.7881927490234 L242.78857421875,86.9612121582031 L242.634765625,87.0823211669922 L242.634765625,87.2207336425781 L242.17333984375,87.5321655273438 L242.019775390625,87.9301147460938 L241.7890625,88.2242431640625 L241.404541015625,88.6221771240234 L241.250732421875,89.072021484375 L240.8662109375,89.5564575195313 L240.481689453125,90.0409088134766 L240.2509765625,90.4215545654297 L240.09716796875,90.8194885253906 L239.866455078125,91.2693328857422 L239.635986328125,91.6672668457031 L239.482177734375,92.0133056640625 L239.482177734375,92.3593292236328 L239.482177734375,92.6188659667969 L239.25146484375,92.8437805175781 L239.25146484375,93.0686950683594 L239.25146484375,93.2417144775391 L239.25146484375,93.4147338867188 L239.482177734375,93.5531463623047 L239.482177734375,93.6742553710938"/>
    <path fill="none" opacity="1" stroke="#5980D4" stroke-width="1.5" stroke-height="3" stroke-linecap="round" d="M247.86376953125,87.2726440429688 L247.86376953125,87.2726440429688 L247.86376953125,87.2726440429688 L247.86376953125,87.2207336425781 L247.86376953125,87.2207336425781 L247.86376953125,87.2207336425781 L247.86376953125,87.2207336425781 L247.86376953125,87.2726440429688 L247.7099609375,87.3591461181641 L247.7099609375,87.4802703857422 L247.479248046875,87.7570953369141 L247.325439453125,88.1031188964844 L247.0947265625,88.5010681152344 L246.71044921875,88.9336090087891 L246.479736328125,89.2796325683594 L246.325927734375,89.6775817871094 L245.94140625,90.1620178222656 L245.710693359375,90.6118621826172 L245.326171875,91.0963134765625 L245.17236328125,91.5807647705078 L244.787841796875,92.0478973388672 L244.55712890625,92.4977416992188 L244.32666015625,92.8956909179688 L243.942138671875,93.3282318115234 L243.788330078125,93.7261657714844 L243.5576171875,94.0722045898438 L243.40380859375,94.3836212158203 L243.173095703125,94.6950531005859"/>
</svg>