<?xml version="1.0" encoding="utf-8"?>
<svg version="1.1" xmlns="http://www.w3.org/2000/svg" xmlns:xlink="http://www.w3.org/1999/xlink" xml:space="preserve" viewBox="30.52742 25.81791 209.546 52.04187">
    <path fill="none" opacity="1" stroke="#5980D4" stroke-width="1.5" stroke-height="3" stroke-linecap="round" d="M32.86181640625,45.7313537597656 L32.86181640625,45.7313537597656 L33.015625,45.7313537597656 L33.015625,45.7313537597656 L33.246337890625,45.6967468261719 L33.400146484375,45.6102447509766 L33.630859375,45.5237426757813 L33.78466796875,45.4372253417969 L34.01513671875,45.2469024658203 L34.399658203125,45.0392913818359 L34.7841796875,44.8143615722656 L35.014892578125,44.5548400878906 L35.3994140625,44.243408203125 L35.783935546875,43.8973846435547 L36.168212890625,43.4994354248047 L36.552734375,43.0495910644531 L36.70654296875,42.6689605712891 L36.937255859375,42.3575286865234 L37.16796875,42.0461044311523 L37.32177734375,41.7346725463867 L37.552490234375,41.4751434326172 L37.552490234375,41.2156219482422 L37.706298828125,40.9906997680664 L37.706298828125,40.8176803588867 L37.706298828125,40.5927658081055 L37.706298828125,40.4716491699219 L37.706298828125,40.3332366943359 L37.706298828125,40.1602172851563 L37.706298828125,40.0218048095703 L37.706298828125,39.935302734375 L37.706298828125,39.8487930297852 L37.706298828125,39.7968826293945 L37.706298828125,39.7103805541992 L37.706298828125,39.7103805541992 L37.552490234375,39.7103805541992 L37.552490234375,39.7103805541992 L37.552490234375,39.7622833251953 L37.32177734375,40.0218048095703 L37.16796875,40.4197463989258 L36.937255859375,40.8176803588867 L36.70654296875,41.3367309570313 L36.552734375,41.8730850219727 L36.322021484375,42.4440383911133 L36.322021484375,43.0495910644531 L36.168212890625,43.6205596923828 L36.168212890625,44.1915130615234 L36.168212890625,44.7624664306641 L36.168212890625,45.3334197998047 L36.168212890625,45.9562835693359 L36.168212890625,46.5791320800781 L36.168212890625,47.2366027832031 L36.168212890625,47.8421630859375 L36.168212890625,48.4131164550781 L36.168212890625,48.949462890625 L36.322021484375,49.3820037841797 L36.322021484375,49.7799377441406 L36.552734375,50.1778869628906 L36.552734375,50.4374084472656 L36.552734375,50.7488403320313 L36.552734375,50.9737548828125 L36.552734375,51.1813812255859 L36.70654296875,51.4062957763672 L36.70654296875,51.6312255859375 L36.70654296875,51.8042449951172 L36.70654296875,52.0291595458984 L36.70654296875,52.2367858886719 L36.70654296875,52.4097900390625 L36.552734375,52.6001129150391 L36.552734375,52.7731323242188 L36.322021484375,52.9461517333984 L36.322021484375,53.1191711425781 L36.168212890625,53.2575836181641 L35.783935546875,53.5517120361328 L35.55322265625,53.7766265869141 L35.168701171875,54.0015563964844 L34.7841796875,54.2264709472656 L34.63037109375,54.4340972900391 L34.1689453125,54.6071014404297 L33.78466796875,54.7974243164063 L33.630859375,54.9704437255859 L33.246337890625,55.091552734375 L33.015625,55.1780700683594 L32.86181640625,55.2818756103516 L32.86181640625,55.3683776855469 L32.631103515625,55.4548950195313 L32.477294921875,55.5413970947266 L32.24658203125,55.5760040283203 L32.24658203125,55.6625061035156 L32.0927734375,55.7144165039063 L32.0927734375,55.7490234375 L32.0927734375,55.8009185791016 L32.0927734375,55.8528289794922 L32.0927734375,55.8874359130859 L32.0927734375,55.9393310546875 L32.0927734375,55.9739379882813 L32.0927734375,55.9739379882813 L32.0927734375,55.9739379882813 L32.24658203125,55.9739379882813 L32.477294921875,55.9739379882813 L32.631103515625,55.9739379882813 L32.86181640625,55.9739379882813 L33.015625,55.9739379882813 L33.246337890625,55.9739379882813 L33.630859375,55.9393310546875 L34.01513671875,55.8528289794922 L34.399658203125,55.7490234375 L35.014892578125,55.6625061035156 L35.3994140625,55.5760040283203 L35.937744140625,55.4548950195313 L36.322021484375,55.3164825439453 L36.937255859375,55.091552734375 L37.552490234375,54.9185333251953 L37.93701171875,54.7455139160156"/>
    <path fill="none" opacity="1" stroke="#5980D4" stroke-width="1.5" stroke-height="3" stroke-linecap="round" d="M41.6279296875,27.4088973999023 L41.858642578125,27.5819091796875 L42.012451171875,27.8933410644531 L42.2431640625,28.3431854248047 L42.39697265625,28.8622360229492 L42.781494140625,29.4850921630859 L43.01220703125,30.0906524658203 L43.396484375,30.8346252441406 L44.396240234375,32.547492980957 L44.550048828125,32.9973297119141 L45.319091796875,34.5717849731445 L45.93408203125,35.6790924072266 L46.472412109375,36.7690963745117 L46.703125,37.2535400390625 L47.47216796875,38.8798980712891 L48.087158203125,39.935302734375 L48.087158203125,40.4197463989258 L48.240966796875,41.0772094726563 L48.4716796875,41.8730850219727 L48.856201171875,42.6689605712891 L49.010009765625,43.5340423583984 L49.24072265625,44.3818206787109 L49.471435546875,45.2988128662109 L49.471435546875,46.2158050537109 L49.471435546875,47.1846923828125 L49.471435546875,48.1535949707031 L49.471435546875,49.0705718994141 L49.24072265625,50.0048675537109 L48.856201171875,52.2021789550781 L48.240966796875,53.4305877685547 L48.087158203125,53.9150390625 L47.318359375,55.6625061035156 L46.472412109375,56.8044128417969 L45.93408203125,57.8598175048828 L45.319091796875,58.9152221679688 L44.550048828125,59.8841094970703 L43.781005859375,60.9914245605469 L43.01220703125,61.9084167480469 L42.627685546875,62.2544403076172 L42.2431640625,62.7388916015625 L41.858642578125,63.3098449707031 L41.243408203125,63.8807983398438 L40.62841796875,64.4517517089844 L40.090087890625,65.022705078125 L39.474853515625,65.5590667724609 L39.09033203125,66.0435028076172"/>
    <path fill="none" opacity="1" stroke="#5980D4" stroke-width="1.5" stroke-height="3" stroke-linecap="round" d="M83.45947265625,31.2325668334961 L83.45947265625,31.9765319824219 L83.61328125,32.7724075317383 L83.61328125,33.6547927856445 L83.61328125,34.5371780395508 L83.843994140625,35.4022598266602 L83.843994140625,36.2846450805664 L83.843994140625,37.1670303344727 L83.843994140625,38.0494155883789 L83.843994140625,38.9318008422852 L83.843994140625,39.7968826293945 L83.843994140625,40.6792678833008 L83.843994140625,41.561653137207 L83.843994140625,42.4440383911133 L83.843994140625,43.2399139404297 L83.843994140625,43.98388671875 L83.997802734375,44.641357421875 L83.997802734375,45.2469024658203 L83.997802734375,45.7832641601563"/>
    <path fill="none" opacity="1" stroke="#5980D4" stroke-width="1.5" stroke-height="3" stroke-linecap="round" d="M91.072265625,31.5439910888672 L91.072265625,31.4574813842773 L91.072265625,31.370979309082 L91.072265625,31.3190689086914 L91.072265625,31.2325668334961 L91.072265625,31.2325668334961 L91.22607421875,31.2325668334961 L91.22607421875,31.3190689086914 L91.22607421875,31.4574813842773 L91.22607421875,31.630500793457 L91.456787109375,31.9765319824219 L91.610595703125,32.4609832763672 L91.610595703125,33.0319366455078 L91.84130859375,33.6893997192383 L91.84130859375,34.4506759643555 L91.9951171875,35.1946411132813 L92.225830078125,35.9732208251953 L92.225830078125,36.7690963745117 L92.225830078125,37.5649719238281 L92.37939453125,38.3954544067383 L92.37939453125,39.2259292602539 L92.610107421875,40.0737152099609 L92.610107421875,40.9041900634766 L92.610107421875,41.7865753173828 L92.610107421875,42.617057800293 L92.610107421875,43.4129333496094 L92.610107421875,44.1569061279297 L92.610107421875,44.90087890625 L92.610107421875,45.5237426757813 L92.610107421875,46.0946960449219 L92.610107421875,46.5791320800781 L92.610107421875,47.0981903076172 L92.37939453125,47.5826263427734"/>
    <path fill="none" opacity="1" stroke="#5980D4" stroke-width="1.5" stroke-height="3" stroke-linecap="round" d="M76.76953125,52.5482177734375 L76.76953125,52.5482177734375 L77.000244140625,52.5482177734375 L77.154052734375,52.5482177734375 L77.53857421875,52.4617004394531 L78.15380859375,52.3232879638672 L78.768798828125,52.2021789550781 L79.691650390625,51.9253540039063 L80.460693359375,51.7177276611328 L82.61376953125,51.1467742919922 L83.45947265625,51.0083618164063 L85.1513671875,50.5239105224609 L85.766357421875,50.4374084472656 L86.535400390625,50.2989959716797 L87.304443359375,50.1259765625 L88.303955078125,50.0048675537109 L89.072998046875,49.866455078125 L90.072509765625,49.7799377441406 L90.841552734375,49.6934356689453 L91.610595703125,49.6934356689453 L92.37939453125,49.6934356689453 L93.225341796875,49.7280426025391 L93.994384765625,49.7280426025391 L94.76318359375,49.7799377441406 L95.301513671875,49.866455078125 L95.916748046875,49.866455078125 L96.531982421875,49.9183502197266"/>
    <path fill="none" opacity="1" stroke="#5980D4" stroke-width="1.5" stroke-height="3" stroke-linecap="round" d="M92.37939453125,59.3650665283203 L92.37939453125,59.14013671875 L92.37939453125,58.9671325683594 L92.37939453125,58.7422027587891 L92.225830078125,58.4826812744141 L92.225830078125,58.2577514648438 L91.9951171875,58.0847473144531 L91.84130859375,57.7733154296875 L91.610595703125,57.5137939453125 L91.456787109375,57.2888641357422 L91.072265625,57.1158447265625 L90.841552734375,56.9947357177734 L90.45703125,56.8909301757813 L90.226318359375,56.8909301757813 L89.688232421875,57.0293426513672 L89.3037109375,57.2023620605469 L88.919189453125,57.4272766113281 L88.303955078125,57.6867980957031 L87.91943359375,58.0847473144531 L87.53515625,58.5172882080078 L87.150634765625,59.0017242431641 L86.76611328125,59.5380859375 L86.381591796875,60.0225219726563 L86.15087890625,60.5934906005859 L85.9970703125,61.1125335693359 L85.9970703125,61.6834869384766 L85.766357421875,62.2198333740234 L85.766357421875,62.7907867431641 L85.9970703125,63.2233428955078 L85.9970703125,63.6731719970703 L86.15087890625,64.0711212158203 L86.381591796875,64.3652496337891 L86.535400390625,64.7285766601563 L86.919921875,65.0746154785156 L87.150634765625,65.3860473632813 L87.53515625,65.6455688476563 L87.91943359375,65.9050903320313 L88.303955078125,66.0781097412109 L88.6884765625,66.1646118164063 L89.3037109375,66.3030242919922 L89.688232421875,66.3030242919922 L90.072509765625,66.3030242919922 L90.45703125,66.3030242919922 L90.841552734375,66.3030242919922 L91.072265625,66.2511291503906 L91.456787109375,66.1646118164063 L91.610595703125,66.1300201416016 L91.84130859375,66.0435028076172 L91.9951171875,65.9916076660156 L92.225830078125,65.9050903320313 L92.610107421875,65.8185882568359 L92.763916015625,65.7320709228516 L92.99462890625,65.6455688476563 L93.225341796875,65.5936584472656 L93.225341796875,65.5071563720703 L93.379150390625,65.4725494384766 L93.60986328125,65.4725494384766 L93.763671875,65.4725494384766 L93.763671875,65.4725494384766 L93.994384765625,65.5071563720703 L94.148193359375,65.5590667724609 L94.37890625,65.5936584472656 L94.53271484375,65.7320709228516 L94.53271484375,65.9050903320313 L94.76318359375,66.0435028076172 L94.9169921875,66.2165222167969 L94.9169921875,66.4414520263672 L95.147705078125,66.8393859863281 L95.301513671875,67.1854095458984 L95.5322265625,67.5833587646484 L95.762939453125,67.9812927246094 L95.916748046875,68.3273315429688 L96.1474609375,68.811767578125 L96.1474609375,69.209716796875 L96.1474609375,69.5557403564453 L96.30126953125,69.9536895751953 L96.30126953125,70.2651062011719 L96.30126953125,70.5592346191406 L96.30126953125,70.8360595703125 L96.30126953125,71.0955963134766 L96.1474609375,71.4416198730469 L96.1474609375,71.8914642333984 L95.916748046875,72.2721099853516 L95.762939453125,72.6700439453125 L95.301513671875,73.0333709716797 L95.147705078125,73.4313201904297 L94.53271484375,73.7254486083984 L94.148193359375,74.0368804931641 L93.60986328125,74.2964019775391 L92.99462890625,74.6078338623047 L92.37939453125,74.8327484130859 L91.610595703125,75.0403747558594 L91.072265625,75.2652893066406 L90.226318359375,75.4037017822266 L89.45751953125,75.5248107910156 L88.53466796875,75.6632232666016 L87.91943359375,75.7497406005859 L87.150634765625,75.8016510009766 L86.381591796875,75.8881530761719 L85.766357421875,75.8881530761719 L85.1513671875,75.8881530761719 L84.766845703125,75.8362426757813 L84.38232421875,75.7497406005859 L83.997802734375,75.7151336669922 L83.843994140625,75.6286315917969"/>
    <path fill="none" opacity="1" stroke="#5980D4" stroke-width="1.5" stroke-height="3" stroke-linecap="round" d="M108.604736328125,51.9253540039063 L109.2197265625,52.3751983642578 L109.604248046875,52.8077392578125 L110.142578125,53.2575836181641 L110.7578125,53.7420196533203 L111.14208984375,54.174560546875 L111.75732421875,54.6071014404297 L112.295654296875,55.0569458007813 L112.757080078125,55.4548950195313 L113.29541015625,55.8009185791016 L113.6796875,56.1469573974609 L114.294921875,56.5102844238281 L114.44873046875,56.8044128417969 L114.833251953125,56.9947357177734 L115.294677734375,57.1677551269531 L115.448486328125,57.2888641357422 L115.67919921875,57.3407745361328 L115.832763671875,57.3407745361328"/>
    <path fill="none" opacity="1" stroke="#5980D4" stroke-width="1.5" stroke-height="3" stroke-linecap="round" d="M113.910400390625,49.4339141845703 L113.6796875,49.9183502197266 L113.29541015625,50.4374084472656 L113.1416015625,50.9737548828125 L112.757080078125,51.5447082519531 L112.5263671875,52.1502685546875 L112.295654296875,52.8077392578125 L112.141845703125,53.4651947021484 L111.9111328125,54.2264709472656 L111.75732421875,54.9185333251953 L111.526611328125,55.6625061035156 L111.14208984375,56.4237823486328 L110.988525390625,57.1158447265625 L110.988525390625,57.7733154296875 L110.7578125,58.4826812744141 L110.60400390625,59.14013671875 L110.373291015625,59.797607421875"/>
    <path fill="none" opacity="1" stroke="#5980D4" stroke-width="1.5" stroke-height="3" stroke-linecap="round" d="M145.514892578125,35.1427383422852 L145.514892578125,34.9697189331055 L145.74560546875,34.7967071533203 L145.74560546875,34.6236877441406 L145.74560546875,34.4506759643555 L145.74560546875,34.2257537841797 L145.74560546875,34.0873336791992 L145.74560546875,33.9662246704102 L145.514892578125,33.8278121948242 L145.514892578125,33.6893997192383 L145.514892578125,33.5682907104492 L145.361083984375,33.4817810058594 L145.13037109375,33.4298706054688 L144.9765625,33.4298706054688 L144.745849609375,33.4298706054688 L144.592041015625,33.4817810058594 L144.361328125,33.5682907104492 L143.976806640625,33.7413024902344 L143.592529296875,34.052734375 L143.36181640625,34.2603530883789 L142.977294921875,34.5717849731445 L142.5927734375,34.9351196289063 L142.43896484375,35.3157577514648 L141.9775390625,35.7656021118164 L141.82373046875,36.1635360717773 L141.593017578125,36.596076965332 L141.593017578125,37.1324310302734 L141.439208984375,37.5649719238281 L141.439208984375,37.9975128173828 L141.439208984375,38.3608474731445 L141.439208984375,38.7068786621094 L141.593017578125,39.018310546875 L141.593017578125,39.3297424316406 L141.82373046875,39.6238708496094 L141.9775390625,39.935302734375 L142.208251953125,40.2467269897461 L142.5927734375,40.4716491699219 L142.823486328125,40.6792678833008 L143.2080078125,40.9041900634766 L143.592529296875,40.9906997680664 L143.976806640625,41.0772094726563 L144.130615234375,41.1637191772461 L144.592041015625,41.1637191772461 L144.9765625,41.1637191772461 L145.13037109375,41.0772094726563 L145.514892578125,40.9906997680664 L145.8994140625,40.8176803588867 L146.1298828125,40.6792678833008 L146.514404296875,40.4197463989258 L146.89892578125,40.1083145141602 L147.129638671875,39.8487930297852 L147.283447265625,39.5373611450195 L147.51416015625,39.2259292602539 L147.66796875,38.9664077758789 L147.66796875,38.7068786621094 L147.898681640625,38.4473571777344 L147.898681640625,38.1705322265625 L147.898681640625,37.911003112793 L147.898681640625,37.7033843994141 L147.66796875,37.4784622192383 L147.66796875,37.2535400390625 L147.51416015625,37.0286178588867 L147.51416015625,36.8209991455078 L147.283447265625,36.6479797363281 L147.129638671875,36.4576644897461 L147.129638671875,36.2846450805664 L146.89892578125,36.1116333007813 L146.89892578125,35.9732208251953 L146.89892578125,35.8002014160156 L146.668212890625,35.6790924072266 L146.668212890625,35.5925827026367 L146.668212890625,35.5060729980469 L146.668212890625,35.4022598266602 L146.668212890625,35.4022598266602 L146.668212890625,35.4022598266602 L146.668212890625,35.4022598266602 L146.668212890625,35.5060729980469 L146.668212890625,35.5925827026367 L146.89892578125,35.6790924072266 L147.129638671875,35.8521041870117 L147.283447265625,36.1635360717773 L147.51416015625,36.5441741943359 L147.66796875,36.9940185546875 L148.052490234375,37.4265594482422 L148.283203125,37.911003112793 L148.66748046875,38.3954544067383 L148.8212890625,38.8798980712891 L149.205810546875,39.4162521362305 L149.4365234375,39.9006958007813 L149.821044921875,40.4197463989258 L150.0517578125,40.9041900634766 L150.20556640625,41.4232406616211 L150.436279296875,41.9595947265625 L150.590087890625,42.478645324707 L150.820556640625,42.9630889892578 L150.974365234375,43.4129333496094 L151.205078125,43.8108673095703 L151.205078125,44.1569061279297 L151.35888671875,44.4683380126953 L151.35888671875,44.7278594970703 L151.35888671875,44.9527740478516 L151.35888671875,45.160400390625 L151.35888671875,45.3853149414063 L151.205078125,45.5583343505859 L150.974365234375,45.8697662353516 L150.820556640625,46.1811981201172 L150.436279296875,46.4407196044922 L150.20556640625,46.6656494140625 L149.821044921875,46.8732604980469 L149.667236328125,47.0635833740234 L149.205810546875,47.1846923828125 L148.8212890625,47.3577117919922 L148.43701171875,47.5307312011719 L148.052490234375,47.7210540771484 L147.51416015625,47.8940582275391 L147.129638671875,48.0151824951172 L146.514404296875,48.2400970458984 L145.8994140625,48.3785095214844 L145.514892578125,48.4996185302734 L144.9765625,48.7245483398438 L144.592041015625,48.8110504150391 L144.130615234375,48.8975524902344 L143.746337890625,49.0705718994141"/>
    <path fill="none" opacity="1" stroke="#5980D4" stroke-width="1.5" stroke-height="3" stroke-linecap="round" d="M136.748779296875,52.0637664794922 L137.517578125,51.9772491455078 L138.28662109375,51.8388366699219 L139.2861328125,51.7177276611328 L140.285888671875,51.5793151855469 L141.208740234375,51.4582061767578 L143.746337890625,51.1467742919922 L145.361083984375,50.9218597412109 L145.8994140625,50.8872528076172 L146.89892578125,50.783447265625 L149.205810546875,50.5239105224609 L149.821044921875,50.4893188476563 L150.590087890625,50.3509063720703 L151.35888671875,50.2643890380859 L152.204833984375,50.2643890380859 L152.973876953125,50.1778869628906 L153.511962890625,50.1259765625 L154.127197265625,50.1259765625 L154.742431640625,50.1259765625 L155.126953125,50.1259765625 L155.51123046875,50.1259765625 L155.895751953125,50.1259765625 L156.049560546875,50.1778869628906 L156.2802734375,50.2643890380859 L156.43408203125,50.4028015136719 L156.43408203125,50.5239105224609"/>
    <path fill="none" opacity="1" stroke="#5980D4" stroke-width="1.5" stroke-height="3" stroke-linecap="round" d="M144.9765625,57.5656890869141 L144.9765625,57.8252105712891 L144.9765625,58.0847473144531 L144.9765625,58.3961791992188 L144.9765625,58.880615234375 L144.745849609375,59.4515686035156 L144.745849609375,59.9360198974609 L144.745849609375,60.5069732666016 L144.592041015625,60.9914245605469 L144.592041015625,61.4239654541016 L144.592041015625,61.8218994140625 L144.592041015625,62.1679382324219 L144.592041015625,62.4793701171875 L144.592041015625,62.7388916015625 L144.592041015625,63.0157165527344 L144.592041015625,63.1887359619141 L144.592041015625,63.3617553710938 L144.592041015625,63.4828643798828 L144.592041015625,63.586669921875 L144.592041015625,63.6731719970703 L144.592041015625,63.7596893310547 L144.592041015625,63.7942962646484 L144.592041015625,63.8807983398438 L144.592041015625,63.8807983398438 L144.592041015625,63.9327087402344 L144.592041015625,63.9327087402344 L144.592041015625,63.9327087402344 L144.592041015625,63.9327087402344 L144.592041015625,63.9327087402344 L144.592041015625,63.9327087402344 L144.592041015625,63.8807983398438 L144.745849609375,63.7942962646484 L144.745849609375,63.7077789306641 L144.9765625,63.6731719970703 L144.9765625,63.586669921875 L145.13037109375,63.4828643798828 L145.361083984375,63.4482574462891 L145.514892578125,63.3617553710938 L145.74560546875,63.3098449707031 L145.8994140625,63.1887359619141 L146.28369140625,63.0503234863281 L146.668212890625,62.9638061523438 L147.129638671875,62.9119110107422 L147.51416015625,62.8253936767578 L147.898681640625,62.8253936767578 L148.283203125,62.8253936767578 L148.66748046875,62.8773040771484 L149.052001953125,62.9119110107422 L149.667236328125,63.0157165527344 L150.20556640625,63.1368255615234 L150.820556640625,63.3098449707031 L151.35888671875,63.4828643798828 L151.97412109375,63.6731719970703 L152.58935546875,63.8807983398438 L152.973876953125,64.105712890625 L153.511962890625,64.3652496337891 L153.896484375,64.6420745849609 L154.35791015625,64.9362030029297 L154.742431640625,65.2130279541016 L154.896240234375,65.5071563720703 L155.126953125,65.8185882568359 L155.28076171875,66.1300201416016 L155.28076171875,66.4414520263672 L155.51123046875,66.7355804443359 L155.51123046875,67.0124053955078 L155.51123046875,67.2719268798828 L155.51123046875,67.4968414306641 L155.51123046875,67.7563781738281 L155.28076171875,68.1024017333984 L155.28076171875,68.5003356933594 L154.896240234375,68.8982849121094 L154.742431640625,69.2962188720703 L154.51171875,69.5557403564453 L154.127197265625,69.9017791748047 L153.896484375,70.1786041259766 L153.511962890625,70.3516235351563 L153.127685546875,70.5592346191406 L152.58935546875,70.7841644287109 L152.204833984375,70.9225769042969 L151.743408203125,71.0436859130859 L151.35888671875,71.0955963134766 L150.974365234375,71.1820983886719 L150.436279296875,71.2340087890625 L149.821044921875,71.2340087890625 L149.205810546875,71.2340087890625 L148.8212890625,71.1301879882813 L148.283203125,71.1301879882813 L147.66796875,71.1301879882813 L147.283447265625,71.0955963134766 L146.89892578125,71.0090789794922 L146.28369140625,70.8360595703125"/>
    <path fill="none" opacity="1" stroke="#5980D4" stroke-width="1.5" stroke-height="3" stroke-linecap="round" d="M146.668212890625,59.4515686035156 L146.89892578125,59.3131561279297 L147.129638671875,59.14013671875 L147.51416015625,58.9671325683594 L147.898681640625,58.7422027587891 L148.43701171875,58.4826812744141 L149.205810546875,58.2577514648438 L150.0517578125,58.0847473144531 L150.820556640625,57.8598175048828 L151.589599609375,57.6867980957031 L152.58935546875,57.5656890869141 L153.358154296875,57.4272766113281 L154.35791015625,57.3407745361328 L155.28076171875,57.2542572021484 L156.049560546875,57.1677551269531 L157.04931640625,57.1677551269531 L158.048828125,57.1677551269531 L158.81787109375,57.2888641357422"/>
    <path fill="none" opacity="1" stroke="#5980D4" stroke-width="1.5" stroke-height="3" stroke-linecap="round" d="M78.307373046875,61.8738098144531 L77.923095703125,61.5623779296875 L77.53857421875,61.2509460449219 L77.384765625,60.9914245605469 L77.000244140625,60.6799926757813 L77.000244140625,60.5069732666016 L76.76953125,60.2820587158203 L76.76953125,60.1955413818359 L76.76953125,60.1090393066406 L76.76953125,60.1090393066406 L77.000244140625,60.1955413818359 L77.154052734375,60.4204711914063 L77.53857421875,60.6280822753906 L78.15380859375,61.0260314941406 L79.537841796875,62.2544403076172 L80.460693359375,63.0503234863281 L81.69091796875,64.1576232910156 L82.844482421875,65.1611175537109 L83.997802734375,66.1646118164063 L85.1513671875,67.2719268798828 L86.381591796875,68.2754211425781 L87.53515625,69.209716796875 L88.6884765625,70.2132110595703 L89.688232421875,71.0955963134766 L90.61083984375,71.9779815673828 L91.610595703125,72.8949584960938 L92.610107421875,73.6908416748047 L93.763671875,74.3829040527344 L94.53271484375,75.0403747558594 L95.147705078125,75.2652893066406 L95.762939453125,75.5767211914063 L96.531982421875,75.8881530761719 L97.30078125,76.0957794189453 L97.839111328125,76.2341918945313 L98.8388671875,76.2860870361328 L99.607666015625,76.2341918945313"/>
    <path fill="none" opacity="1" stroke="#5980D4" stroke-width="1.5" stroke-height="3" stroke-linecap="round" d="M137.36376953125,38.7414855957031 L137.36376953125,38.5684661865234 L137.133056640625,38.3608474731445 L137.133056640625,38.1705322265625 L137.133056640625,37.9975128173828 L137.133056640625,37.7898941040039 L137.133056640625,37.5995712280273 L136.90234375,37.4784622192383 L136.90234375,37.3054428100586 L136.90234375,37.1670303344727 L136.90234375,37.0805282592773 L137.133056640625,36.9940185546875 L137.133056640625,36.9940185546875 L137.36376953125,36.9940185546875 L137.748291015625,36.9940185546875 L138.28662109375,37.1670303344727 L139.0556640625,37.3919525146484 L141.054931640625,38.1359252929688 L142.43896484375,38.7414855957031 L143.976806640625,39.1394195556641 L145.514892578125,39.6757736206055 L146.89892578125,40.4716491699219 L148.43701171875,41.1291122436523 L150.0517578125,41.6481628417969 L151.589599609375,42.3921356201172 L153.127685546875,42.8419799804688 L154.742431640625,43.6205596923828 L156.2802734375,44.2953186035156 L158.048828125,44.8662719726563 L159.202392578125,45.6102447509766 L160.58642578125,46.2677001953125 L161.970703125,46.9251708984375 L163.1240234375,47.6691436767578 L164.50830078125,48.2400970458984 L165.66162109375,48.8975524902344 L166.815185546875,49.5550231933594 L167.968505859375,50.0394744873047"/>
    <path fill="none" opacity="1" stroke="#5980D4" stroke-width="1.5" stroke-height="3" stroke-linecap="round" d="M184.039794921875,49.6934356689453 L184.193603515625,49.6934356689453 L184.42431640625,49.6934356689453 L184.962646484375,49.6934356689453 L185.577880859375,49.6934356689453 L186.3466796875,49.60693359375 L187.11572265625,49.5550231933594 L188.115478515625,49.4685211181641 L188.88427734375,49.3820037841797 L189.884033203125,49.3820037841797 L190.65283203125,49.3820037841797 L191.421875,49.3820037841797 L192.19091796875,49.3820037841797 L192.959716796875,49.3820037841797 L193.8056640625,49.3820037841797 L194.57470703125,49.3473968505859 L194.959228515625,49.3473968505859 L195.497314453125,49.3473968505859"/>
    <path fill="none" opacity="1" stroke="#5980D4" stroke-width="1.5" stroke-height="3" stroke-linecap="round" d="M181.656005859375,55.2818756103516 L181.88671875,55.3683776855469 L182.425048828125,55.4894866943359 L183.040283203125,55.5760040283203 L183.80908203125,55.7144165039063 L184.962646484375,55.7490234375 L185.962158203125,55.7490234375 L188.73046875,55.6625061035156 L189.49951171875,55.6625061035156 L190.2685546875,55.6625061035156 L192.959716796875,55.5413970947266"/>
    <path fill="none" opacity="1" stroke="#5980D4" stroke-width="1.5" stroke-height="3" stroke-linecap="round" d="M218.95068359375,30.9730377197266 L218.95068359375,30.9730377197266 L218.95068359375,30.9730377197266 L218.95068359375,30.9730377197266 L218.95068359375,31.0595474243164 L218.95068359375,31.2325668334961 L218.95068359375,31.4055786132813 L218.95068359375,31.8035202026367 L219.181396484375,32.3398666381836 L219.335205078125,32.945426940918 L219.56591796875,33.5682907104492 L219.7197265625,34.2257537841797 L219.950439453125,34.9697189331055 L220.104248046875,35.6790924072266 L220.3349609375,36.4230651855469 L220.565673828125,37.1324310302734 L220.719482421875,37.8764038085938 L220.9501953125,38.5684661865234 L221.103759765625,39.3297424316406 L221.103759765625,39.9872055053711 L221.33447265625,40.5062561035156 L221.33447265625,40.9906997680664 L221.48828125,41.561653137207 L221.718994140625,42.0461044311523 L221.872802734375,42.4440383911133 L221.872802734375,42.7554702758789"/>
    <path fill="none" opacity="1" stroke="#5980D4" stroke-width="1.5" stroke-height="3" stroke-linecap="round" d="M227.33251953125,33.3433685302734 L227.33251953125,33.5163803100586 L227.33251953125,33.6893997192383 L227.33251953125,33.9662246704102 L227.33251953125,34.1738433837891 L227.33251953125,34.4506759643555 L227.33251953125,34.7101974487305 L227.33251953125,35.1427383422852 L227.33251953125,35.7136917114258 L227.563232421875,36.2846450805664 L227.563232421875,36.9421081542969 L227.563232421875,37.5995712280273 L227.7939453125,38.1705322265625 L227.7939453125,38.8452911376953 L227.94775390625,39.4162521362305 L228.17822265625,39.935302734375 L228.33203125,40.4197463989258 L228.562744140625,40.9041900634766 L228.716552734375,41.2156219482422 L228.947265625,41.561653137207"/>
    <path fill="none" opacity="1" stroke="#5980D4" stroke-width="1.5" stroke-height="3" stroke-linecap="round" d="M215.029052734375,49.4685211181641 L215.259765625,49.5204162597656 L215.490478515625,49.5550231933594 L215.644287109375,49.60693359375 L215.875,49.60693359375 L216.4130859375,49.60693359375 L217.18212890625,49.60693359375 L218.028076171875,49.5550231933594 L218.95068359375,49.4685211181641 L219.950439453125,49.3820037841797 L220.9501953125,49.2955017089844 L222.103515625,49.2608947753906 L223.103271484375,49.1570892333984 L224.256591796875,49.1224822998047 L225.41015625,48.9840698242188 L226.40966796875,48.949462890625 L227.33251953125,48.8629608154297 L228.33203125,48.8110504150391 L229.331787109375,48.7245483398438 L230.33154296875,48.5515289306641 L231.48486328125,48.4131164550781 L232.40771484375,48.2920074462891 L233.25341796875,48.1535949707031 L234.17626953125,48.0151824951172 L235.022216796875,47.9805755615234"/>
    <path fill="none" opacity="1" stroke="#5980D4" stroke-width="1.5" stroke-height="3" stroke-linecap="round" d="M225.25634765625,55.2299652099609 L225.025634765625,55.3164825439453 L225.025634765625,55.4548950195313 L225.025634765625,55.5760040283203 L224.794921875,55.8528289794922 L224.64111328125,56.1988677978516 L224.64111328125,56.5448913574219 L224.410400390625,57.0293426513672 L224.256591796875,57.4791870117188 L224.02587890625,57.9463348388672 L224.02587890625,58.3961791992188 L223.8720703125,58.8287200927734 L223.8720703125,59.3131561279297 L223.641357421875,59.7111053466797 L223.641357421875,60.1090393066406 L223.487548828125,60.5069732666016 L223.487548828125,60.8530120849609 L223.487548828125,61.1644439697266 L223.257080078125,61.4239654541016 L223.257080078125,61.6488800048828 L223.257080078125,61.8738098144531 L223.103271484375,62.0468292236328 L223.103271484375,62.2198333740234 L223.103271484375,62.3409576416016 L223.103271484375,62.4447631835938 L223.103271484375,62.5312652587891 L223.103271484375,62.5658721923828 L223.103271484375,62.5658721923828 L223.103271484375,62.5658721923828 L223.103271484375,62.5658721923828 L223.103271484375,62.5312652587891 L223.257080078125,62.4447631835938 L223.257080078125,62.3928527832031 L223.257080078125,62.3063507080078 L223.487548828125,62.2198333740234 L223.641357421875,62.0814208984375 L223.8720703125,61.9603118896484 L224.02587890625,61.8218994140625 L224.410400390625,61.6488800048828 L224.64111328125,61.5623779296875 L224.794921875,61.5104675292969 L225.025634765625,61.4758605957031 L225.41015625,61.4758605957031 L225.640869140625,61.4758605957031 L225.79443359375,61.4758605957031 L226.025146484375,61.5104675292969 L226.40966796875,61.5969848632813 L226.947998046875,61.7353973388672 L227.33251953125,61.8738098144531 L227.7939453125,62.0814208984375 L228.17822265625,62.3928527832031 L228.562744140625,62.6523742675781 L228.716552734375,63.0157165527344 L229.10107421875,63.3098449707031 L229.485595703125,63.6212768554688 L229.71630859375,63.9327087402344 L229.8701171875,64.244140625 L229.8701171875,64.5382690429688 L229.8701171875,64.8496856689453 L230.100830078125,65.1611175537109 L230.100830078125,65.4206390380859 L230.100830078125,65.6455688476563 L229.8701171875,66.0435028076172 L229.8701171875,66.4760437011719 L229.71630859375,66.9258880615234 L229.485595703125,67.3584289550781 L229.10107421875,67.7909698486328 L228.947265625,68.1543121337891 L228.562744140625,68.4138336181641 L228.33203125,68.5868530273438 L228.17822265625,68.7598724365234 L227.94775390625,68.8463745117188 L227.563232421875,68.8982849121094 L227.33251953125,68.8982849121094 L226.947998046875,68.8982849121094 L226.5634765625,68.7252655029297 L226.40966796875,68.5003356933594 L226.025146484375,68.1889190673828 L225.640869140625,67.8774871826172 L225.25634765625,67.5314483642578"/>
    <path fill="none" opacity="1" stroke="#5980D4" stroke-width="1.5" stroke-height="3" stroke-linecap="round" d="M225.025634765625,54.5205993652344 L225.41015625,54.3129730224609 L226.178955078125,54.1226654052734 L226.794189453125,53.9150390625 L227.563232421875,53.7420196533203 L228.33203125,53.655517578125 L229.331787109375,53.5171051025391 L230.100830078125,53.3440856933594 L230.86962890625,53.1710662841797 L231.869384765625,52.9807586669922 L232.868896484375,52.8077392578125 L233.791748046875,52.6866302490234 L234.79150390625,52.4617004394531 L235.791015625,52.3232879638672 L236.7138671875,52.2021789550781 L237.71337890625,52.0291595458984 L238.482421875,51.8907470703125"/>
</svg>