<svg id="svg" xmlns="http://www.w3.org/2000/svg" viewBox="12.5 12.530000686645508 353.3299865722656 189.16000366210938" height="189.16000366210938"><rect x="22.5" y="22.53" fill="none" stroke="#3794ff" stroke-width="2" width="97.5" height="93.33" rx="10" ry="10" d="M 22.5 32.53 a 10 10 0 0 1 10 -10 h 77.5 a 10 10 0 0 1 10 10 v 73.33 a 10 10 0 0 1 -10 10 h -77.5 a 10 10 0 0 1 -10 -10 Z"></rect><rect x="165" y="45.03" fill="none" stroke="#3794ff" stroke-width="2" width="133.32999999999998" height="30.83" rx="10" ry="10" d="M 165 55.03 a 10 10 0 0 1 10 -10 h 113.32999999999998 a 10 10 0 0 1 10 10 v 10.829999999999998 a 10 10 0 0 1 -10 10 h -113.32999999999998 a 10 10 0 0 1 -10 -10 Z"></rect><path d="M 56.67,28.36" fill="none" stroke="#3794ff" stroke-width="2"></path><path d="M 53.33,25.86 L 53.33,26.69 L 54.17,28.36 L 54.17,30.03 L 54.17,30.86 L 54.17,31.69 L 54.17,34.19 L 54.17,35.03 L 54.17,36.69 L 54.17,37.53 L 55,39.19 L 55,40.03 L 55,40.86 L 55,42.53 L 55,44.19 L 55.83,45.03 L 55.83,47.53 L 55.83,48.36 L 55.83,49.19 L 55.83,50.03 L 55.83,50.86" fill="none" stroke="#3794ff" stroke-width="2"></path><path d="M 55,55.86 L 55,56.69 L 55,57.53 L 55,59.19 L 55,60.03 L 55,62.53 L 55,63.36 L 55,65.03 L 55,65.86 L 55,66.69 L 55,67.53 L 55,68.36 L 55,69.19 L 55,70.03 L 55,70.86" fill="none" stroke="#3794ff" stroke-width="2"></path><path d="M 55.83,64.19 L 55.83,65.03 L 55,66.69 L 55,68.36 L 55,70.03 L 55,70.86 L 55,73.36 L 55,74.19 L 55,75.03 L 55,77.53 L 55,79.19 L 55,80.03 L 55,82.53 L 55,84.19 L 55,85.03 L 55,85.86 L 55.83,87.53 L 55.83,88.36 L 55.83,89.19 L 55.83,90.03 L 55.83,90.86 L 55.83,91.69 L 55.83,92.53 L 55.83,93.36" fill="none" stroke="#3794ff" stroke-width="2"></path><path d="M 55,85.86 L 54.17,88.36 L 54.17,89.19 L 54.17,90.03 L 54.17,90.86 L 54.17,91.69 L 54.17,93.36 L 54.17,94.19 L 54.17,96.69 L 54.17,97.53 L 54.17,98.36 L 54.17,99.19 L 54.17,100.03 L 54.17,100.86 L 53.33,102.53 L 53.33,103.36 L 53.33,104.19 L 53.33,105.03 L 53.33,105.86 L 53.33,106.69 L 53.33,107.53 L 53.33,108.36 L 53.33,109.19" fill="none" stroke="#3794ff" stroke-width="2"></path><path d="M 85.83,26.69 L 85.83,27.53 L 85.83,29.19 L 85.83,30.86 L 85.83,32.53 L 85.83,34.19 L 85.83,35.86 L 85.83,36.69 L 85.83,39.19 L 85.83,40.86 L 85.83,43.36 L 85.83,44.19 L 85.83,46.69 L 85.83,47.53 L 85.83,49.19 L 85.83,50.86 L 85.83,51.69 L 85.83,52.53" fill="none" stroke="#3794ff" stroke-width="2"></path><path d="M 85.83,55.86 L 85.83,56.69 L 86.67,57.53 L 86.67,58.36 L 86.67,59.19 L 86.67,60.86 L 86.67,62.53 L 86.67,64.19 L 86.67,65.03 L 86.67,65.86 L 86.67,67.53 L 86.67,68.36 L 86.67,69.19 L 86.67,70.03 L 86.67,70.86 L 86.67,71.69" fill="none" stroke="#3794ff" stroke-width="2"></path><path d="M 86.67,75.86 L 86.67,76.69 L 86.67,77.53 L 86.67,78.36 L 86.67,79.19 L 86.67,80.03 L 86.67,80.86 L 86.67,81.69 L 86.67,82.53 L 86.67,83.36 L 86.67,84.19 L 86.67,85.03 L 86.67,85.86 L 86.67,86.69 L 86.67,88.36 L 86.67,89.19 L 86.67,90.03 L 86.67,90.86 L 86.67,91.69 L 86.67,92.53 L 86.67,93.36" fill="none" stroke="#3794ff" stroke-width="2"></path><path d="M 86.67,94.19 L 86.67,95.03 L 86.67,95.86 L 86.67,96.69 L 87.5,97.53 L 87.5,98.36 L 87.5,99.19 L 87.5,100.03 L 87.5,100.86 L 88.33,100.86 L 88.33,102.53 L 88.33,103.36 L 89.17,104.19 L 89.17,105.03 L 89.17,105.86 L 89.17,106.69 L 89.17,107.53 L 89.17,108.36 L 89.17,109.19 L 90,109.19 L 90,110.03" fill="none" stroke="#3794ff" stroke-width="2"></path><path d="M 29.17,51.69 L 29.17,50.86 L 30,50.86 L 30.83,50.03 L 31.67,50.03 L 32.5,50.03 L 33.33,50.03 L 34.17,50.03 L 35,50.03 L 35.83,50.03 L 37.5,50.86 L 38.33,50.86 L 39.17,50.86" fill="none" stroke="#3794ff" stroke-width="2"></path><path d="M 49.17,50.03 L 50,50.03 L 50.83,50.86 L 51.67,50.86 L 53.33,50.86 L 55.83,50.86 L 56.67,50.86 L 58.33,50.86 L 59.17,50.86 L 60,50.86 L 60.83,50.86 L 61.67,50.86 L 62.5,50.86 L 64.17,50.86 L 65.83,50.86 L 66.67,50.86 L 67.5,50.86" fill="none" stroke="#3794ff" stroke-width="2"></path><path d="M 70.83,52.53 L 71.67,53.36 L 72.5,53.36 L 73.33,53.36 L 74.17,53.36 L 75,53.36 L 75.83,53.36 L 77.5,53.36 L 78.33,53.36 L 79.17,53.36 L 80,53.36 L 82.5,53.36 L 83.33,53.36 L 85.83,53.36 L 86.67,53.36 L 87.5,53.36 L 88.33,53.36 L 89.17,53.36" fill="none" stroke="#3794ff" stroke-width="2"></path><path d="M 94.17,54.19 L 95,54.19 L 95.83,53.36 L 96.67,53.36 L 97.5,53.36 L 98.33,53.36 L 99.17,53.36 L 100.83,53.36 L 101.67,53.36 L 103.33,53.36 L 104.17,53.36 L 105.83,53.36 L 106.67,53.36 L 107.5,53.36 L 108.33,53.36 L 109.17,53.36 L 110,53.36 L 110.83,53.36 L 110.83,54.19 L 111.67,54.19" fill="none" stroke="#3794ff" stroke-width="2"></path><path d="M 29.17,80.03 L 30,80.03 L 30,80.86 L 30.83,80.86" fill="none" stroke="#3794ff" stroke-width="2"></path><path d="M 29.17,81.69 L 28.33,81.69 L 29.17,81.69 L 30,81.69 L 30.83,81.69 L 31.67,81.69 L 33.33,81.69 L 35,81.69 L 37.5,80.86 L 39.17,80.86 L 40,80.86 L 42.5,80.86 L 44.17,80.86 L 46.67,80.86 L 47.5,80.86 L 50,80.86 L 50.83,80.86 L 52.5,80.86 L 53.33,80.86 L 55.83,80.86 L 56.67,80.86 L 57.5,80.86 L 59.17,80.86 L 60,80.86 L 60.83,80.86 L 61.67,80.86 L 62.5,80.86 L 63.33,80.86 L 64.17,80.86" fill="none" stroke="#3794ff" stroke-width="2"></path><path d="M 60,80.86 L 60,81.69 L 60.83,81.69 L 61.67,81.69 L 62.5,81.69 L 63.33,81.69 L 65,80.86 L 65.83,80.86 L 67.5,80.86 L 68.33,80.86 L 70.83,80.86 L 72.5,80.86 L 73.33,80.86 L 75,80.03 L 75.83,80.03 L 76.67,80.03 L 78.33,80.03 L 80,80.03 L 80.83,80.03 L 81.67,80.03 L 82.5,80.03 L 83.33,80.03 L 85,80.03 L 85.83,80.03 L 87.5,80.03 L 88.33,80.03 L 89.17,80.03 L 90,80.03 L 90.83,80.03 L 90.83,80.86" fill="none" stroke="#3794ff" stroke-width="2"></path><path d="M 92.5,80.86 L 93.33,80.86 L 94.17,80.86 L 95,80.86 L 95.83,80.86 L 96.67,80.86 L 97.5,80.86 L 98.33,80.86 L 99.17,80.86 L 100,80.86 L 100.83,80.86 L 102.5,81.69 L 103.33,81.69 L 104.17,81.69 L 105,81.69 L 105.83,81.69 L 106.67,81.69 L 107.5,81.69 L 108.33,81.69 L 109.17,81.69 L 110,80.86 L 110.83,80.86 L 111.67,80.86 L 112.5,80.86 L 113.33,80.86 L 113.33,81.69 L 114.17,81.69" fill="none" stroke="#3794ff" stroke-width="2"></path><path d="M 190,50.03 L 189.17,50.03 L 189.17,49.19 L 189.17,50.03 L 189.17,50.86 L 189.17,51.69 L 190,51.69 L 190,52.53 L 190,53.36 L 190,54.19 L 190,55.86 L 190,56.69 L 190,58.36 L 190.83,59.19 L 190.83,60.86 L 190.83,62.53 L 190.83,63.36 L 190.83,64.19 L 191.67,65.03 L 191.67,65.86 L 191.67,66.69 L 191.67,67.53 L 191.67,68.36 L 192.5,69.19 L 192.5,70.03 L 192.5,70.86 L 192.5,71.69 L 192.5,72.53 L 192.5,73.36 L 192.5,74.19 L 192.5,75.03 L 192.5,75.86" fill="none" stroke="#3794ff" stroke-width="2"></path><path d="M 219.17,49.19 L 219.17,50.03 L 219.17,50.86 L 219.17,52.53 L 218.33,53.36 L 218.33,55.03 L 218.33,56.69 L 218.33,57.53 L 218.33,59.19 L 218.33,60.03 L 218.33,60.86 L 218.33,62.53 L 218.33,63.36 L 218.33,64.19 L 218.33,65.86 L 218.33,66.69 L 218.33,67.53 L 218.33,68.36 L 218.33,69.19 L 218.33,70.03 L 218.33,70.86" fill="none" stroke="#3794ff" stroke-width="2"></path><path d="M 244.17,48.36 L 244.17,49.19 L 244.17,50.03 L 244.17,50.86 L 245,51.69 L 245,52.53 L 245,54.19 L 245,55.03 L 245,56.69 L 245,58.36 L 245,59.19 L 245,60.86 L 245,61.69 L 245,62.53 L 245,63.36 L 245,64.19 L 245,65.86 L 245,66.69 L 245,67.53 L 245,68.36 L 245,69.19 L 245,70.03 L 245.83,70.86" fill="none" stroke="#3794ff" stroke-width="2"></path><path d="M 268.33,49.19 L 268.33,50.03 L 268.33,50.86 L 268.33,52.53 L 269.17,53.36 L 269.17,54.19 L 269.17,55.86 L 269.17,56.69 L 269.17,58.36 L 269.17,60.03 L 269.17,60.86 L 269.17,61.69 L 269.17,63.36 L 269.17,64.19 L 269.17,65.86 L 269.17,66.69 L 268.33,67.53 L 268.33,69.19 L 268.33,70.03 L 268.33,70.86 L 268.33,71.69" fill="none" stroke="#3794ff" stroke-width="2"></path><path d="M 60.83,53.36 L 60,53.36 L 60,54.19 L 59.17,55.03 L 59.17,55.86 L 58.33,56.69 L 58.33,57.53 L 57.5,57.53 L 57.5,58.36 L 56.67,58.36 L 56.67,59.19" fill="none" stroke="#3794ff" stroke-width="1"></path><path d="M 64.17,53.36 L 64.17,54.19 L 63.33,54.19 L 62.5,55.03 L 61.67,55.86 L 60.83,56.69 L 60.83,57.53 L 60,58.36 L 59.17,59.19 L 58.33,60.03 L 57.5,60.86 L 57.5,61.69 L 56.67,61.69 L 56.67,62.53" fill="none" stroke="#3794ff" stroke-width="1"></path><path d="M 67.5,54.19 L 66.67,54.19 L 66.67,55.03 L 65.83,55.03 L 65,56.69 L 64.17,57.53 L 63.33,57.53 L 62.5,59.19 L 61.67,60.03 L 60,61.69 L 59.17,61.69 L 58.33,63.36 L 57.5,64.19 L 56.67,65.03 L 56.67,65.86 L 55.83,65.86 L 55.83,66.69" fill="none" stroke="#3794ff" stroke-width="1"></path><path d="M 67.5,55.03 L 68.33,55.03 L 67.5,55.03 L 67.5,55.86 L 66.67,56.69 L 65.83,57.53 L 65,58.36 L 64.17,59.19 L 63.33,60.86 L 62.5,61.69 L 61.67,62.53 L 60.83,64.19 L 59.17,65.86 L 58.33,66.69 L 58.33,67.53 L 57.5,68.36 L 57.5,69.19" fill="none" stroke="#3794ff" stroke-width="1"></path><path d="M 70,55.86 L 69.17,56.69 L 68.33,57.53 L 67.5,58.36 L 66.67,59.19 L 65.83,60.03 L 65,61.69 L 63.33,63.36 L 62.5,64.19 L 60.83,65.86 L 60.83,66.69 L 59.17,68.36 L 59.17,69.19 L 58.33,70.03 L 57.5,70.03" fill="none" stroke="#3794ff" stroke-width="1"></path><path d="M 81.67,54.19 L 80.83,55.03 L 80,55.86 L 79.17,56.69 L 78.33,57.53 L 77.5,58.36 L 75.83,60.03 L 75,60.86 L 73.33,63.36 L 71.67,65.03 L 69.17,67.53 L 68.33,68.36 L 67.5,69.19 L 65.83,71.69 L 65,72.53 L 64.17,74.19 L 63.33,74.19 L 62.5,75.86 L 61.67,76.69 L 61.67,77.53 L 62.5,76.69 L 63.33,75.86 L 64.17,75.03 L 65,74.19 L 65.83,73.36 L 66.67,72.53" fill="none" stroke="#3794ff" stroke-width="1"></path><path d="M 77.5,60.03 L 78.33,59.19 L 78.33,58.36 L 77.5,58.36 L 76.67,59.19 L 74.17,60.86 L 72.5,62.53 L 71.67,63.36 L 70,65.03 L 69.17,65.86 L 67.5,67.53 L 65.83,68.36" fill="none" stroke="#3794ff" stroke-width="1"></path><path d="M 75,59.19 L 75,58.36 L 74.17,59.19 L 72.5,60.03 L 72.5,60.86 L 70.83,61.69 L 69.17,63.36 L 68.33,64.19 L 66.67,65.86 L 65.83,65.86 L 64.17,67.53 L 63.33,68.36 L 63.33,69.19 L 61.67,70.86 L 60.83,70.86 L 60.83,71.69 L 60,71.69 L 60,72.53 L 59.17,72.53 L 59.17,73.36 L 60,73.36 L 60,72.53 L 61.67,71.69 L 62.5,70.86 L 62.5,70.03 L 64.17,68.36 L 65,67.53 L 66.67,65.86 L 67.5,65.03 L 69.17,63.36 L 69.17,62.53 L 70,61.69 L 70.83,60.86 L 70.83,60.03 L 71.67,60.03 L 71.67,59.19 L 71.67,58.36 L 71.67,59.19 L 70.83,59.19 L 70,60.03 L 68.33,60.86 L 67.5,61.69 L 65.83,63.36 L 65,65.03 L 64.17,65.86 L 62.5,68.36 L 61.67,69.19 L 60,70.86 L 60,71.69 L 58.33,73.36 L 58.33,74.19 L 57.5,74.19 L 57.5,75.03 L 58.33,75.03 L 59.17,74.19 L 60,73.36 L 61.67,72.53 L 62.5,72.53 L 63.33,71.69 L 65,69.19 L 67.5,67.53 L 68.33,66.69 L 69.17,65.86 L 70.83,64.19 L 73.33,62.53 L 74.17,61.69 L 75,60.86 L 75.83,60.03 L 76.67,59.19 L 76.67,60.03 L 75.83,60.03 L 75,60.86 L 75,61.69 L 73.33,62.53 L 72.5,63.36 L 71.67,65.03 L 70,66.69 L 69.17,68.36 L 68.33,70.03 L 66.67,71.69 L 65.83,72.53 L 65,73.36 L 64.17,74.19 L 64.17,75.03 L 63.33,75.86 L 63.33,76.69 L 64.17,75.86 L 65,75.03 L 65.83,74.19 L 66.67,72.53 L 68.33,70.86 L 69.17,70.03 L 70,69.19 L 71.67,66.69 L 72.5,65.86 L 74.17,64.19 L 75,63.36 L 76.67,61.69 L 77.5,60.86 L 78.33,60.03 L 78.33,59.19 L 79.17,59.19 L 79.17,58.36 L 80,58.36 L 79.17,58.36 L 78.33,59.19 L 77.5,60.03 L 76.67,60.86 L 76.67,61.69 L 75,62.53 L 74.17,63.36 L 73.33,65.03 L 72.5,66.69 L 70.83,68.36 L 70,69.19 L 69.17,70.86 L 68.33,72.53 L 67.5,72.53 L 67.5,73.36 L 66.67,73.36 L 66.67,74.19 L 66.67,75.03 L 66.67,74.19 L 67.5,73.36 L 67.5,72.53 L 68.33,71.69 L 69.17,70.86 L 70,69.19 L 70.83,68.36 L 71.67,66.69 L 72.5,65.86 L 74.17,64.19 L 75,63.36 L 75,62.53 L 76.67,61.69 L 76.67,60.86 L 77.5,60.86 L 77.5,60.03 L 77.5,59.19 L 77.5,60.03 L 76.67,60.03 L 75.83,60.86 L 75.83,61.69 L 74.17,63.36 L 74.17,64.19 L 73.33,65.86 L 71.67,67.53 L 70.83,70.03 L 70,70.86 L 69.17,72.53 L 68.33,73.36 L 68.33,74.19 L 67.5,74.19 L 67.5,75.03 L 67.5,75.86 L 67.5,75.03 L 68.33,74.19 L 69.17,73.36 L 70,73.36 L 70.83,71.69 L 71.67,70.86 L 73.33,69.19 L 74.17,68.36 L 75.83,66.69 L 76.67,65.86 L 77.5,64.19 L 78.33,63.36 L 79.17,62.53 L 80,62.53 L 80,61.69 L 80.83,61.69 L 80.83,60.86 L 80,61.69 L 79.17,62.53 L 78.33,63.36 L 77.5,64.19 L 76.67,65.03 L 75.83,65.86 L 75,67.53 L 73.33,69.19 L 72.5,70.03 L 71.67,71.69 L 70.83,72.53 L 70.83,74.19 L 70,74.19 L 70,75.03 L 69.17,75.03 L 69.17,75.86 L 69.17,76.69 L 69.17,75.86 L 70,75.03 L 70.83,74.19 L 71.67,73.36 L 71.67,72.53 L 72.5,71.69 L 73.33,70.86 L 74.17,70.03 L 75,69.19 L 75.83,67.53 L 76.67,66.69 L 76.67,65.86 L 77.5,65.86 L 77.5,65.03 L 77.5,64.19 L 77.5,65.03 L 76.67,65.03 L 75.83,65.86 L 75,67.53 L 73.33,69.19 L 72.5,70.03 L 71.67,70.86 L 71.67,71.69 L 70.83,73.36 L 70,73.36 L 70,74.19 L 69.17,75.03 L 69.17,75.86 L 70,75.86 L 70,75.03 L 70.83,75.03 L 70.83,74.19 L 72.5,72.53 L 73.33,71.69 L 74.17,70.86 L 75,70.03 L 75.83,69.19 L 77.5,67.53 L 78.33,66.69 L 80,65.03 L 81.67,63.36 L 82.5,62.53 L 83.33,62.53 L 83.33,61.69 L 82.5,62.53 L 81.67,63.36 L 80.83,64.19 L 80,65.86 L 78.33,67.53 L 78.33,68.36 L 76.67,70.03 L 75.83,70.86 L 75,72.53 L 74.17,73.36 L 73.33,74.19 L 72.5,75.86 L 72.5,76.69 L 71.67,77.53 L 71.67,78.36 L 72.5,78.36 L 73.33,76.69 L 74.17,75.86 L 75,75.03 L 76.67,73.36 L 77.5,72.53 L 78.33,70.86 L 79.17,70.03 L 80.83,68.36 L 80.83,67.53 L 81.67,67.53 L 81.67,66.69 L 81.67,67.53 L 80.83,67.53 L 80,69.19 L 79.17,70.03 L 78.33,70.86 L 76.67,72.53 L 76.67,73.36 L 75,75.03 L 75,75.86 L 74.17,76.69 L 73.33,77.53 L 73.33,78.36 L 72.5,79.19 L 73.33,79.19 L 74.17,78.36 L 75,77.53 L 75.83,76.69 L 76.67,75.86 L 77.5,75.03 L 78.33,74.19 L 79.17,73.36 L 80,72.53 L 81.67,70.86 L 83.33,69.19 L 84.17,68.36 L 85,68.36 L 85,67.53 L 85.83,67.53 L 85,67.53 L 85,68.36 L 84.17,68.36 L 83.33,70.03 L 82.5,70.86 L 81.67,71.69 L 81.67,72.53 L 80,74.19 L 80,75.03 L 79.17,75.86 L 78.33,76.69 L 78.33,77.53 L 77.5,77.53 L 77.5,78.36 L 77.5,79.19 L 76.67,79.19 L 77.5,79.19 L 77.5,78.36 L 78.33,78.36 L 79.17,76.69 L 80,75.86 L 80.83,75.03 L 81.67,74.19 L 82.5,73.36 L 83.33,72.53 L 83.33,71.69 L 84.17,71.69 L 84.17,70.86 L 85,70.86 L 85,70.03 L 85,70.86 L 84.17,70.86 L 83.33,71.69 L 83.33,72.53 L 82.5,72.53 L 82.5,73.36 L 81.67,74.19 L 80.83,75.03 L 80.83,75.86 L 80,76.69 L 80,77.53 L 79.17,77.53 L 79.17,78.36" fill="none" stroke="#3794ff" stroke-width="1"></path><path d="M 35,140.86 L 35,140.03 L 35,140.86 L 35,141.69 L 35,142.53 L 35,143.36 L 35,144.19 L 35,145.03 L 35,145.86 L 35,146.69 L 35,147.53 L 35,149.19 L 35,150.03 L 35,150.86 L 35,151.69 L 35,152.53 L 35.83,153.36 L 35.83,154.19" fill="none" stroke="#3794ff" stroke-width="1"></path><path d="M 26.67,163.36 L 25.83,163.36 L 26.67,162.53 L 27.5,162.53 L 28.33,162.53 L 30.83,162.53 L 32.5,161.69 L 33.33,161.69 L 35,161.69 L 35.83,161.69 L 36.67,161.69 L 38.33,160.86 L 39.17,160.86 L 40,160.86 L 40.83,160.86 L 41.67,160.86 L 42.5,160.86" fill="none" stroke="#3794ff" stroke-width="1"></path><path d="M 37.5,170.03 L 36.67,170.03 L 36.67,169.19 L 35.83,169.19 L 35,169.19 L 35,170.03 L 34.17,170.03 L 33.33,170.03 L 33.33,170.86 L 32.5,170.86 L 32.5,171.69 L 32.5,172.53 L 32.5,173.36 L 32.5,174.19 L 33.33,174.19 L 33.33,175.03 L 34.17,175.03 L 34.17,175.86 L 35,175.86 L 35.83,175.86 L 35.83,175.03 L 35.83,174.19 L 36.67,174.19 L 36.67,175.03 L 36.67,175.86 L 36.67,176.69 L 36.67,177.53 L 37.5,178.36 L 37.5,179.19 L 37.5,180.03 L 37.5,180.86 L 38.33,181.69 L 38.33,182.53 L 38.33,183.36 L 38.33,184.19 L 38.33,185.03 L 38.33,185.86 L 38.33,186.69 L 37.5,186.69 L 37.5,187.53 L 36.67,188.36 L 35.83,188.36 L 35,188.36 L 34.17,188.36 L 33.33,188.36 L 32.5,189.19 L 31.67,189.19 L 30.83,189.19 L 30,189.19 L 29.17,189.19 L 28.33,189.19 L 27.5,189.19" fill="none" stroke="#3794ff" stroke-width="1"></path><path d="M 34.17,29.19 L 34.17,30.03 L 33.33,30.86 L 30.83,32.53 L 30,33.36 L 28.33,35.03 L 28.33,35.86 L 27.5,36.69 L 26.67,37.53" fill="none" stroke="#f14c4c" stroke-width="1"></path><path d="M 42.5,25.03 L 42.5,24.19 L 43.33,24.19 L 42.5,25.03 L 41.67,25.86 L 41.67,26.69 L 40,27.53 L 39.17,28.36 L 38.33,29.19 L 35.83,31.69 L 35,31.69 L 33.33,33.36 L 31.67,35.03 L 31.67,35.86 L 30,36.69 L 30,37.53 L 29.17,37.53 L 29.17,38.36 L 30.83,37.53 L 31.67,36.69 L 32.5,35.86 L 34.17,34.19 L 35,33.36 L 37.5,31.69 L 38.33,30.86 L 40.83,29.19 L 41.67,28.36 L 43.33,26.69 L 44.17,25.86 L 45.83,24.19 L 46.67,24.19 L 46.67,23.36 L 47.5,23.36 L 47.5,22.53 L 48.33,22.53 L 47.5,22.53 L 46.67,23.36 L 45.83,24.19 L 43.33,26.69 L 42.5,27.53 L 40.83,29.19 L 38.33,30.86 L 37.5,31.69 L 35.83,33.36 L 35,34.19 L 33.33,35.86 L 32.5,36.69 L 30.83,38.36 L 30,38.36 L 30,39.19 L 29.17,40.03 L 29.17,40.86 L 30,40.03 L 31.67,39.19 L 32.5,38.36" fill="none" stroke="#f14c4c" stroke-width="1"></path><path d="M 45.83,27.53 L 44.17,29.19 L 43.33,30.03 L 42.5,30.86 L 41.67,31.69 L 40,33.36 L 38.33,35.03 L 37.5,35.86 L 36.67,36.69 L 35,37.53 L 34.17,38.36 L 33.33,39.19 L 33.33,40.03 L 32.5,40.03 L 32.5,40.86" fill="none" stroke="#f14c4c" stroke-width="1"></path><path d="M 44.17,31.69 L 45,31.69 L 45,30.86 L 45,31.69 L 44.17,32.53 L 43.33,33.36 L 42.5,34.19 L 41.67,35.03 L 40.83,35.86 L 39.17,37.53 L 38.33,38.36 L 37.5,39.19 L 36.67,40.03 L 35.83,41.69 L 35,41.69 L 35,42.53 L 34.17,42.53 L 34.17,43.36 L 33.33,43.36 L 34.17,43.36" fill="none" stroke="#f14c4c" stroke-width="1"></path><path d="M 47.5,33.36 L 47.5,34.19 L 46.67,34.19 L 45.83,35.03 L 45.83,35.86 L 44.17,36.69 L 43.33,37.53 L 42.5,38.36 L 41.67,39.19 L 40,40.86 L 39.17,41.69 L 39.17,42.53 L 38.33,42.53 L 38.33,43.36 L 37.5,43.36 L 37.5,44.19 L 38.33,44.19 L 38.33,43.36" fill="none" stroke="#f14c4c" stroke-width="1"></path><path d="M 49.17,37.53 L 49.17,36.69 L 50,37.53 L 49.17,37.53 L 49.17,38.36 L 48.33,39.19 L 46.67,40.03 L 45.83,40.86 L 44.17,42.53 L 43.33,43.36 L 42.5,44.19 L 42.5,45.03 L 41.67,45.03 L 40.83,45.86 L 40.83,46.69 L 40,46.69 L 40.83,46.69 L 41.67,45.86 L 42.5,45.86 L 42.5,45.03 L 43.33,44.19 L 44.17,44.19 L 45.83,43.36 L 45.83,42.53 L 46.67,42.53 L 47.5,41.69 L 48.33,41.69 L 48.33,42.53 L 47.5,42.53 L 47.5,43.36 L 46.67,44.19 L 45.83,44.19 L 45.83,45.03 L 45,45.86" fill="none" stroke="#f14c4c" stroke-width="1"></path><path d="M 65.83,29.19 L 65,29.19 L 65,30.03 L 64.17,30.03 L 63.33,31.69 L 62.5,31.69 L 61.67,32.53 L 60.83,33.36 L 60,34.19 L 59.17,35.03 L 58.33,35.86 L 58.33,36.69 L 57.5,37.53 L 57.5,38.36" fill="none" stroke="#f14c4c" stroke-width="1"></path><path d="M 74.17,28.36 L 73.33,28.36 L 73.33,29.19 L 72.5,30.03 L 71.67,30.86 L 70.83,31.69 L 69.17,33.36 L 68.33,34.19 L 67.5,35.03 L 65.83,36.69 L 64.17,38.36 L 63.33,39.19 L 62.5,40.03 L 61.67,40.86 L 60.83,41.69 L 60,42.53 L 60,43.36 L 60.83,42.53" fill="none" stroke="#f14c4c" stroke-width="1"></path><path d="M 70.83,32.53 L 71.67,31.69 L 73.33,30.03 L 74.17,29.19 L 75,29.19 L 74.17,29.19 L 73.33,30.03 L 72.5,30.86 L 71.67,32.53 L 70.83,33.36 L 69.17,35.03 L 68.33,35.86 L 66.67,37.53 L 65,38.36 L 64.17,40.03 L 62.5,41.69 L 60.83,43.36 L 60,44.19 L 59.17,45.86 L 58.33,46.69 L 57.5,46.69 L 57.5,47.53 L 58.33,47.53 L 59.17,46.69 L 60,45.86" fill="none" stroke="#f14c4c" stroke-width="1"></path><path d="M 77.5,31.69 L 79.17,30.86 L 79.17,30.03 L 80,30.03 L 79.17,30.03 L 78.33,31.69 L 77.5,31.69 L 76.67,32.53 L 75.83,33.36 L 74.17,35.03 L 72.5,35.86 L 71.67,36.69 L 70,38.36 L 68.33,40.03 L 66.67,41.69 L 65.83,42.53 L 64.17,43.36 L 63.33,45.03 L 62.5,45.86 L 62.5,46.69 L 61.67,46.69 L 61.67,47.53 L 62.5,46.69" fill="none" stroke="#f14c4c" stroke-width="1"></path><path d="M 75.83,35.86 L 76.67,35.03 L 78.33,33.36 L 79.17,32.53 L 80,32.53 L 80,31.69 L 80,31.69 L 80,32.53 L 79.17,33.36 L 78.33,34.19 L 77.5,35.03 L 76.67,35.86 L 75,37.53 L 73.33,39.19 L 72.5,40.03 L 70.83,41.69 L 70,42.53 L 69.17,43.36 L 68.33,45.03 L 67.5,45.86 L 66.67,45.86 L 66.67,46.69 L 65.83,47.53 L 66.67,47.53 L 67.5,46.69 L 68.33,45.86 L 69.17,45.03 L 70,45.03" fill="none" stroke="#f14c4c" stroke-width="1"></path><path d="M 80,37.53 L 80.83,36.69 L 81.67,36.69 L 81.67,35.86 L 82.5,35.86 L 81.67,36.69 L 80.83,37.53 L 80,38.36 L 79.17,38.36 L 78.33,40.03 L 76.67,41.69 L 75.83,42.53 L 74.17,44.19 L 74.17,45.03 L 73.33,45.03 L 71.67,46.69 L 71.67,47.53 L 70.83,47.53 L 70.83,48.36 L 70.83,49.19 L 70,49.19 L 70.83,49.19 L 70.83,48.36 L 71.67,47.53 L 72.5,47.53 L 73.33,46.69 L 75,45.86 L 75,45.03 L 76.67,44.19 L 77.5,43.36 L 78.33,42.53 L 79.17,42.53 L 80,41.69 L 80.83,41.69 L 80.83,40.86 L 81.67,40.86 L 80.83,40.86 L 80.83,41.69 L 79.17,43.36 L 78.33,44.19 L 78.33,45.03 L 76.67,45.86 L 76.67,46.69 L 75.83,46.69 L 75,47.53 L 75,48.36 L 74.17,48.36 L 74.17,49.19 L 73.33,50.03 L 74.17,50.03" fill="none" stroke="#f14c4c" stroke-width="1"></path><path d="M 78.33,46.69 L 79.17,46.69 L 79.17,45.86 L 79.17,46.69 L 78.33,46.69 L 78.33,47.53 L 77.5,48.36 L 77.5,49.19 L 76.67,49.19 L 76.67,50.03" fill="none" stroke="#f14c4c" stroke-width="1"></path><path d="M 95,27.53 L 95.83,27.53 L 95,27.53 L 94.17,28.36 L 94.17,29.19 L 93.33,29.19 L 93.33,30.03 L 92.5,30.86 L 90.83,31.69 L 90,33.36 L 89.17,34.19 L 89.17,35.03 L 87.5,35.86 L 87.5,36.69 L 86.67,36.69 L 86.67,37.53 L 85.83,37.53 L 85.83,38.36 L 85.83,39.19" fill="none" stroke="#f14c4c" stroke-width="1"></path><path d="M 101.67,28.36 L 102.5,28.36 L 101.67,29.19 L 100.83,30.03 L 100,30.86 L 99.17,32.53 L 98.33,33.36 L 95,35.86 L 93.33,37.53 L 92.5,38.36 L 90.83,40.03 L 90,40.03 L 89.17,41.69 L 88.33,42.53 L 88.33,43.36 L 89.17,43.36 L 90,42.53" fill="none" stroke="#f14c4c" stroke-width="1"></path><path d="M 104.17,31.69 L 104.17,30.86 L 104.17,31.69 L 102.5,33.36 L 101.67,33.36 L 100.83,34.19 L 99.17,35.86 L 97.5,37.53 L 95.83,39.19 L 95,39.19 L 94.17,40.86 L 93.33,41.69 L 92.5,42.53 L 90.83,44.19 L 90,45.03 L 90,45.86 L 89.17,45.86 L 90,45.86 L 90.83,45.86 L 91.67,45.03 L 92.5,43.36 L 93.33,43.36 L 94.17,42.53 L 95.83,40.86 L 97.5,40.03 L 98.33,39.19 L 100,37.53 L 100.83,36.69 L 102.5,35.86 L 104.17,35.03 L 105.83,33.36 L 106.67,32.53 L 107.5,31.69 L 108.33,31.69 L 108.33,30.86 L 109.17,30.86 L 108.33,31.69 L 107.5,32.53 L 106.67,34.19 L 105.83,35.03 L 105,35.86 L 102.5,37.53 L 101.67,38.36 L 99.17,40.03 L 98.33,40.86 L 96.67,42.53 L 95.83,43.36 L 95,44.19 L 94.17,45.86 L 93.33,45.86 L 93.33,46.69 L 92.5,46.69 L 92.5,47.53 L 93.33,46.69 L 95,45.86 L 96.67,44.19 L 98.33,43.36 L 99.17,42.53 L 100,41.69 L 101.67,40.86 L 102.5,40.03 L 104.17,39.19 L 105,38.36 L 105.83,37.53 L 106.67,37.53 L 106.67,36.69 L 107.5,36.69 L 106.67,36.69 L 106.67,37.53 L 105,39.19 L 103.33,40.03 L 103.33,40.86 L 101.67,42.53 L 100.83,43.36 L 100.83,44.19 L 100,44.19 L 100,45.03 L 99.17,45.03 L 99.17,45.86 L 100,45.86 L 100.83,45.86 L 100.83,45.03 L 101.67,44.19 L 102.5,44.19 L 104.17,43.36 L 105,42.53 L 105.83,41.69 L 106.67,40.86 L 108.33,40.03 L 109.17,40.03 L 109.17,39.19 L 110,39.19 L 110.83,39.19 L 110.83,38.36 L 110.83,39.19 L 110,39.19 L 109.17,40.03 L 109.17,40.86 L 108.33,41.69 L 107.5,41.69 L 106.67,43.36 L 105,44.19 L 104.17,45.03 L 103.33,45.86 L 103.33,46.69 L 102.5,46.69 L 102.5,47.53 L 101.67,47.53 L 101.67,48.36 L 102.5,48.36 L 102.5,47.53 L 103.33,47.53 L 105,45.86 L 105,45.03 L 106.67,44.19 L 107.5,44.19 L 108.33,43.36 L 110,41.69 L 110.83,41.69 L 111.67,40.03 L 112.5,40.03 L 113.33,39.19 L 114.17,39.19 L 114.17,38.36 L 115,38.36 L 114.17,39.19 L 112.5,40.03 L 112.5,40.86 L 111.67,41.69 L 110,43.36 L 108.33,45.03 L 107.5,45.86 L 106.67,46.69 L 106.67,47.53 L 105.83,47.53 L 105.83,48.36 L 105,48.36 L 105,49.19 L 105.83,49.19 L 106.67,48.36 L 107.5,48.36 L 107.5,47.53 L 108.33,47.53 L 108.33,46.69 L 109.17,46.69 L 110,46.69 L 110,45.86 L 110,46.69 L 109.17,46.69" fill="none" stroke="#f14c4c" stroke-width="1"></path><path d="M 96.67,87.53 L 97.5,86.69 L 97.5,85.86 L 98.33,85.03 L 98.33,84.19 L 97.5,85.03 L 95.83,86.69 L 95.83,87.53 L 94.17,88.36 L 94.17,89.19 L 92.5,90.86 L 91.67,91.69 L 91.67,92.53 L 90.83,92.53 L 90.83,93.36 L 90,93.36 L 90,94.19 L 90,95.03" fill="none" stroke="#f14c4c" stroke-width="1"></path><path d="M 101.67,85.03 L 101.67,84.19 L 101.67,85.03 L 100.83,86.69 L 99.17,87.53 L 98.33,88.36 L 97.5,90.86 L 96.67,91.69 L 95.83,93.36 L 94.17,95.03 L 94.17,95.86 L 93.33,95.86 L 93.33,97.53 L 92.5,97.53 L 92.5,98.36" fill="none" stroke="#f14c4c" stroke-width="1"></path><path d="M 107.5,85.03 L 107.5,85.86 L 106.67,86.69 L 105.83,87.53 L 105,88.36 L 104.17,89.19 L 103.33,90.03 L 102.5,91.69 L 101.67,92.53 L 99.17,95.86 L 98.33,96.69 L 97.5,97.53 L 96.67,98.36 L 95,100.03 L 94.17,101.69 L 93.33,102.53 L 92.5,103.36 L 92.5,104.19 L 93.33,104.19 L 93.33,103.36" fill="none" stroke="#f14c4c" stroke-width="1"></path><path d="M 109.17,87.53 L 110,86.69 L 109.17,87.53 L 108.33,88.36 L 107.5,89.19 L 106.67,90.03 L 105,91.69 L 104.17,92.53 L 103.33,93.36 L 101.67,95.86 L 100.83,96.69 L 98.33,99.19 L 97.5,100.86 L 96.67,101.69 L 95.83,103.36 L 95,103.36 L 95,104.19 L 94.17,104.19 L 94.17,105.03" fill="none" stroke="#f14c4c" stroke-width="1"></path><path d="M 110.83,90.03 L 110.83,90.86 L 110.83,91.69 L 110,92.53 L 108.33,93.36 L 108.33,94.19 L 107.5,95.03 L 105.83,97.53 L 105,98.36 L 103.33,100.03 L 102.5,100.86 L 100.83,103.36 L 100,104.19 L 99.17,105.03 L 98.33,105.86 L 98.33,106.69 L 97.5,106.69 L 97.5,107.53" fill="none" stroke="#f14c4c" stroke-width="1"></path><path d="M 111.67,94.19 L 111.67,95.03 L 110.83,95.86 L 110.83,96.69 L 110,96.69 L 109.17,97.53 L 108.33,98.36 L 107.5,100.03 L 106.67,100.86 L 105,102.53 L 104.17,104.19 L 103.33,105.03 L 102.5,106.69 L 101.67,107.53 L 101.67,108.36 L 100.83,108.36" fill="none" stroke="#f14c4c" stroke-width="1"></path><path d="M 112.5,98.36 L 111.67,99.19 L 110.83,100.86 L 110,101.69 L 109.17,103.36 L 108.33,104.19 L 107.5,105.86 L 106.67,105.86 L 105,107.53 L 105,108.36 L 104.17,109.19 L 103.33,110.03 L 103.33,110.86 L 102.5,110.86 L 102.5,111.69" fill="none" stroke="#f14c4c" stroke-width="1"></path><path d="M 110.83,104.19 L 111.67,104.19 L 111.67,103.36 L 112.5,103.36 L 112.5,102.53 L 113.33,102.53 L 112.5,103.36 L 111.67,104.19 L 111.67,105.03 L 110.83,105.86 L 109.17,107.53 L 109.17,108.36 L 108.33,108.36 L 106.67,110.03 L 105.83,110.86 L 105,112.53" fill="none" stroke="#f14c4c" stroke-width="1"></path><path d="M 74.17,143.36 L 74.17,142.53 L 74.17,143.36 L 74.17,144.19 L 74.17,145.03 L 73.33,145.86 L 73.33,146.69 L 73.33,147.53 L 72.5,148.36 L 72.5,149.19 L 72.5,150.03 L 71.67,150.86 L 71.67,151.69 L 71.67,152.53 L 72.5,152.53 L 72.5,153.36 L 73.33,153.36 L 74.17,153.36 L 75,153.36 L 75.83,153.36 L 76.67,153.36" fill="none" stroke="#f14c4c" stroke-width="1"></path><path d="M 80.83,149.19 L 80.83,148.36 L 80.83,149.19 L 80,149.19 L 80,150.03 L 80,150.86 L 79.17,151.69 L 79.17,152.53 L 79.17,153.36 L 79.17,154.19 L 78.33,155.03 L 78.33,155.86 L 78.33,156.69 L 78.33,157.53 L 78.33,158.36 L 78.33,159.19 L 78.33,160.03 L 78.33,160.86 L 78.33,161.69" fill="none" stroke="#f14c4c" stroke-width="1"></path><path d="M 65.83,167.53 L 66.67,167.53 L 67.5,167.53 L 70,167.53 L 70.83,166.69 L 72.5,166.69 L 75,166.69 L 76.67,165.86 L 78.33,165.86 L 80.83,165.03 L 82.5,165.03 L 83.33,165.03 L 84.17,165.03 L 85.83,165.03 L 86.67,165.03 L 87.5,165.03 L 88.33,165.03" fill="none" stroke="#f14c4c" stroke-width="1"></path><path d="M 77.5,172.53 L 77.5,171.69 L 76.67,171.69 L 76.67,170.86 L 75.83,170.86 L 75.83,170.03 L 75,170.03 L 74.17,170.03 L 74.17,170.86 L 73.33,170.86 L 73.33,171.69 L 72.5,171.69 L 72.5,172.53 L 72.5,173.36 L 72.5,174.19 L 73.33,175.03 L 73.33,175.86 L 74.17,175.86 L 74.17,176.69 L 75,176.69 L 75.83,176.69 L 76.67,177.53 L 77.5,177.53 L 77.5,178.36 L 78.33,178.36 L 78.33,179.19 L 78.33,180.03 L 78.33,180.86 L 79.17,181.69 L 79.17,182.53 L 80,182.53 L 80,183.36 L 80,184.19 L 80.83,184.19 L 80.83,185.03 L 80.83,185.86 L 80.83,186.69 L 80.83,187.53 L 80.83,188.36 L 80,189.19 L 79.17,189.19 L 78.33,190.03 L 77.5,190.03 L 76.67,190.03 L 75.83,190.86 L 75,190.86 L 74.17,190.86 L 73.33,190.86 L 72.5,190.86 L 71.67,191.69" fill="none" stroke="#f14c4c" stroke-width="1"></path><path d="M 225,170.86 L 225,170.03 L 224.17,170.03 L 223.33,170.03 L 224.17,170.03 L 225.83,170.03 L 226.67,170.03 L 227.5,170.03 L 230,169.19 L 231.67,169.19 L 232.5,169.19 L 233.33,169.19 L 236.67,169.19 L 237.5,169.19 L 238.33,169.19 L 240,169.19 L 240.83,169.19 L 241.67,169.19 L 242.5,169.19 L 243.33,169.19 L 244.17,169.19 L 245,169.19 L 245.83,169.19" fill="none" stroke="#3794ff" stroke-width="1"></path><path d="M 232.5,175.86 L 232.5,176.69 L 231.67,176.69 L 231.67,177.53 L 230.83,178.36 L 230.83,179.19 L 230.83,180.03 L 230,180.03 L 230,180.86 L 230,181.69 L 229.17,181.69 L 230,181.69 L 230.83,181.69 L 230.83,180.86 L 231.67,180.86 L 232.5,180.86 L 233.33,180.86 L 234.17,180.86 L 235,180.86 L 235.83,181.69 L 236.67,181.69 L 237.5,182.53 L 238.33,183.36 L 238.33,184.19 L 239.17,184.19 L 239.17,185.03 L 239.17,185.86 L 239.17,186.69 L 238.33,187.53 L 237.5,187.53 L 237.5,188.36 L 236.67,188.36 L 235.83,189.19 L 235,189.19 L 234.17,189.19 L 233.33,190.03 L 232.5,190.03 L 231.67,190.03 L 230.83,190.03 L 230,190.03 L 229.17,190.03 L 228.33,190.03 L 227.5,190.03" fill="none" stroke="#3794ff" stroke-width="1"></path><path d="M 230.83,179.19 L 231.67,179.19 L 232.5,178.36 L 233.33,178.36 L 234.17,178.36 L 235.83,178.36 L 236.67,178.36 L 237.5,177.53 L 238.33,177.53 L 239.17,177.53 L 240,177.53 L 240.83,177.53 L 241.67,177.53" fill="none" stroke="#3794ff" stroke-width="1"></path><path d="M 175,49.19 L 174.17,50.03 L 174.17,50.86 L 173.33,50.86 L 173.33,51.69 L 171.67,52.53 L 171.67,53.36 L 170.83,53.36 L 170.83,54.19 L 170,54.19 L 170,55.03 L 170,55.86 L 169.17,55.86 L 170,55.86" fill="none" stroke="#d18616" stroke-width="3"></path><path d="M 176.67,51.69 L 176.67,50.86 L 177.5,50.86 L 177.5,51.69 L 176.67,51.69 L 176.67,52.53 L 175.83,53.36 L 175,54.19 L 174.17,55.03 L 172.5,56.69 L 172.5,57.53 L 171.67,57.53 L 171.67,58.36 L 170.83,59.19 L 170.83,60.03 L 170.83,59.19 L 171.67,58.36 L 172.5,58.36 L 173.33,57.53" fill="none" stroke="#d18616" stroke-width="3"></path><path d="M 175.83,55.03 L 176.67,55.03 L 176.67,54.19 L 177.5,54.19 L 177.5,53.36 L 178.33,53.36 L 178.33,52.53 L 178.33,53.36 L 177.5,54.19 L 176.67,55.03 L 175.83,55.86 L 175,55.86 L 174.17,57.53 L 173.33,58.36 L 172.5,59.19 L 171.67,60.03 L 170.83,60.86 L 171.67,60.86" fill="none" stroke="#d18616" stroke-width="3"></path><path d="M 180.83,53.36 L 180,54.19 L 179.17,55.03 L 178.33,55.86 L 177.5,56.69 L 176.67,56.69 L 175.83,57.53 L 174.17,58.36 L 174.17,59.19 L 172.5,60.03 L 171.67,60.86 L 170.83,61.69 L 170,62.53 L 169.17,62.53 L 170,62.53" fill="none" stroke="#d18616" stroke-width="3"></path><path d="M 180.83,55.03 L 181.67,55.03 L 182.5,54.19 L 181.67,54.19 L 181.67,55.03 L 180,55.86 L 180,56.69 L 179.17,57.53 L 177.5,58.36 L 176.67,59.19 L 175,60.03 L 174.17,61.69 L 173.33,61.69 L 172.5,62.53 L 171.67,63.36 L 171.67,64.19 L 170.83,64.19 L 170,65.03 L 170.83,65.03 L 171.67,64.19 L 172.5,63.36 L 173.33,63.36 L 173.33,62.53 L 175,61.69 L 175.83,60.86 L 176.67,60.03 L 177.5,60.03 L 178.33,59.19 L 179.17,58.36 L 180,58.36 L 180,57.53 L 180.83,57.53 L 180,57.53 L 180,58.36 L 178.33,59.19 L 176.67,60.86 L 175,61.69 L 174.17,62.53 L 173.33,63.36 L 172.5,64.19 L 171.67,65.03 L 170.83,65.86 L 170,65.86 L 169.17,67.53 L 168.33,67.53 L 168.33,68.36 L 167.5,68.36 L 168.33,68.36 L 168.33,67.53 L 170,67.53 L 170,66.69 L 170.83,65.86 L 171.67,65.86 L 174.17,64.19 L 175.83,63.36 L 176.67,62.53 L 177.5,61.69 L 179.17,60.86 L 180,60.03 L 180.83,59.19 L 181.67,59.19 L 182.5,58.36 L 183.33,58.36 L 182.5,59.19 L 180.83,60.03 L 180.83,60.86 L 180,60.86 L 178.33,62.53 L 177.5,63.36 L 175.83,64.19 L 175,65.03 L 174.17,65.86 L 173.33,65.86 L 172.5,66.69 L 172.5,67.53 L 171.67,67.53 L 172.5,67.53 L 173.33,66.69 L 174.17,65.86 L 175.83,65.03 L 176.67,64.19 L 178.33,63.36 L 179.17,63.36 L 179.17,62.53 L 180.83,61.69 L 181.67,60.86 L 182.5,60.86 L 182.5,60.03 L 183.33,60.03 L 184.17,60.03 L 183.33,60.03 L 182.5,60.86 L 181.67,61.69 L 180.83,62.53 L 180,62.53 L 180,63.36 L 179.17,64.19 L 177.5,65.03 L 177.5,65.86 L 176.67,65.86 L 176.67,66.69 L 175.83,66.69 L 175.83,67.53 L 176.67,67.53 L 176.67,66.69 L 177.5,66.69 L 178.33,65.86 L 180,65.86 L 180,65.03 L 181.67,64.19 L 182.5,64.19 L 183.33,63.36 L 184.17,63.36 L 184.17,62.53 L 185,62.53 L 184.17,62.53 L 184.17,63.36 L 183.33,63.36 L 182.5,64.19 L 181.67,65.03 L 180.83,65.86 L 180,66.69 L 179.17,67.53 L 178.33,68.36 L 177.5,68.36 L 177.5,69.19 L 176.67,69.19 L 176.67,70.03 L 175.83,70.03 L 176.67,70.03 L 177.5,70.03 L 178.33,69.19 L 180,68.36 L 180.83,67.53 L 181.67,67.53 L 182.5,66.69 L 183.33,66.69 L 184.17,65.86 L 185,65.03 L 185.83,65.03 L 186.67,65.03 L 186.67,64.19 L 187.5,64.19 L 187.5,65.03 L 186.67,65.03 L 186.67,65.86 L 185.83,65.86 L 185,66.69 L 184.17,67.53 L 183.33,68.36 L 182.5,68.36 L 182.5,69.19 L 181.67,69.19 L 181.67,70.03 L 180.83,70.03 L 181.67,70.03 L 182.5,70.03 L 183.33,69.19 L 185,68.36 L 185,67.53 L 185.83,67.53 L 186.67,67.53 L 186.67,66.69 L 187.5,66.69 L 187.5,65.86 L 187.5,66.69 L 186.67,66.69 L 185.83,68.36 L 185,68.36 L 185,69.19" fill="none" stroke="#d18616" stroke-width="3"></path><path d="M 204.17,53.36 L 203.33,53.36 L 202.5,54.19 L 201.67,54.19 L 200.83,55.03 L 200,55.86 L 199.17,55.86 L 199.17,56.69 L 198.33,56.69 L 197.5,57.53 L 196.67,57.53 L 196.67,58.36 L 196.67,57.53 L 197.5,57.53 L 197.5,56.69 L 198.33,56.69 L 199.17,55.86 L 200,55.03 L 200.83,55.03 L 201.67,54.19 L 202.5,53.36 L 203.33,52.53 L 203.33,51.69 L 204.17,51.69 L 203.33,51.69 L 202.5,52.53 L 201.67,52.53 L 200.83,53.36 L 200,54.19 L 199.17,54.19 L 198.33,54.19 L 198.33,55.03 L 197.5,55.03 L 197.5,55.86 L 196.67,55.86" fill="none" stroke="#d18616" stroke-width="3"></path><path d="M 206.67,52.53 L 205.83,52.53 L 205.83,53.36 L 205,53.36 L 204.17,55.03 L 202.5,55.86 L 201.67,56.69 L 201.67,57.53 L 200.83,57.53 L 200,58.36 L 200,59.19 L 199.17,59.19 L 199.17,60.03 L 200,60.03 L 200,59.19 L 200.83,59.19 L 202.5,58.36 L 203.33,57.53 L 204.17,57.53 L 205.83,56.69 L 207.5,55.86 L 208.33,55.03 L 209.17,55.03 L 209.17,54.19 L 210,54.19 L 210.83,53.36 L 210.83,54.19 L 210,54.19 L 209.17,54.19 L 208.33,55.03 L 207.5,55.86 L 206.67,55.86 L 205.83,56.69 L 204.17,57.53 L 203.33,58.36 L 202.5,59.19 L 200.83,60.03 L 200,60.03 L 200,60.86 L 199.17,60.86 L 198.33,61.69 L 199.17,61.69 L 199.17,60.86 L 200,60.86 L 200.83,60.86 L 202.5,59.19 L 204.17,58.36 L 205,57.53 L 205.83,57.53 L 206.67,56.69 L 208.33,55.86 L 210,55.03 L 210,54.19 L 210.83,54.19 L 211.67,54.19 L 210.83,54.19 L 210,54.19 L 209.17,55.03 L 207.5,55.86 L 206.67,56.69 L 205.83,57.53 L 204.17,58.36 L 202.5,59.19 L 200.83,60.03 L 199.17,61.69 L 198.33,62.53 L 197.5,62.53 L 197.5,63.36 L 196.67,63.36 L 196.67,64.19 L 198.33,63.36 L 199.17,63.36 L 200,62.53 L 200.83,62.53 L 202.5,61.69 L 204.17,60.03 L 205.83,60.03 L 206.67,59.19 L 209.17,58.36 L 210,57.53 L 211.67,56.69 L 212.5,56.69 L 213.33,55.86 L 214.17,55.86 L 213.33,55.86 L 211.67,56.69 L 211.67,57.53 L 210,58.36 L 209.17,59.19 L 207.5,60.03 L 205.83,60.86 L 205,61.69 L 203.33,62.53 L 202.5,63.36 L 201.67,64.19 L 200.83,64.19 L 200.83,65.03 L 200,65.03 L 199.17,65.03 L 199.17,65.86 L 200,65.03 L 200.83,65.03 L 201.67,64.19 L 202.5,64.19 L 203.33,63.36 L 204.17,63.36 L 205,62.53 L 205.83,62.53 L 206.67,61.69 L 207.5,61.69 L 208.33,60.86 L 209.17,60.86 L 209.17,60.03 L 209.17,60.86 L 207.5,61.69 L 206.67,61.69 L 205,62.53 L 205,63.36 L 204.17,64.19 L 202.5,65.03 L 201.67,65.86 L 200.83,65.86 L 200.83,66.69 L 200,66.69 L 200,67.53 L 199.17,67.53 L 200,67.53 L 200.83,66.69 L 202.5,65.86 L 203.33,65.86 L 204.17,65.86 L 205.83,65.03 L 207.5,64.19 L 208.33,63.36 L 209.17,63.36 L 210,63.36 L 210,62.53 L 210.83,62.53 L 211.67,62.53 L 212.5,62.53 L 211.67,62.53 L 210.83,63.36 L 210,63.36 L 209.17,64.19 L 209.17,65.03 L 208.33,65.03 L 207.5,65.86 L 206.67,65.86 L 205.83,66.69" fill="none" stroke="#d18616" stroke-width="3"></path><path d="M 230.83,52.53 L 230,52.53 L 230,53.36 L 229.17,53.36 L 228.33,53.36 L 228.33,54.19 L 227.5,54.19 L 226.67,55.03 L 225.83,55.03 L 225.83,55.86 L 225,55.86 L 224.17,55.86 L 224.17,56.69 L 223.33,56.69 L 223.33,55.86 L 224.17,55.86 L 225,55.03 L 225.83,54.19 L 226.67,54.19 L 228.33,53.36 L 229.17,52.53 L 230,51.69 L 230.83,51.69 L 231.67,50.86 L 232.5,50.03 L 233.33,50.03 L 233.33,49.19 L 233.33,50.03 L 232.5,50.03 L 230.83,50.86 L 230,51.69 L 228.33,53.36 L 227.5,53.36 L 225.83,54.19 L 225.83,55.03 L 225,55.03 L 224.17,55.86 L 223.33,55.86 L 223.33,56.69 L 224.17,55.86 L 225,55.86 L 226.67,55.03 L 227.5,55.03 L 228.33,55.03 L 229.17,54.19 L 230.83,54.19 L 231.67,53.36 L 233.33,53.36 L 233.33,52.53 L 235,52.53 L 235.83,51.69 L 236.67,51.69 L 237.5,51.69 L 237.5,52.53 L 236.67,52.53 L 235,53.36 L 234.17,54.19 L 232.5,55.03 L 230.83,55.86 L 230,56.69 L 229.17,56.69 L 227.5,58.36 L 226.67,58.36 L 225,59.19 L 224.17,60.03 L 223.33,60.03 L 223.33,60.86 L 222.5,60.86 L 221.67,61.69 L 222.5,60.86 L 224.17,60.03 L 225,60.03 L 227.5,58.36 L 229.17,57.53 L 230.83,56.69 L 232.5,56.69 L 233.33,55.86 L 235,55.03 L 235.83,54.19 L 236.67,54.19 L 237.5,54.19 L 238.33,53.36 L 239.17,53.36 L 238.33,53.36 L 238.33,54.19 L 236.67,55.03 L 235.83,55.03 L 235,55.86 L 232.5,56.69 L 231.67,57.53 L 230,58.36 L 229.17,59.19 L 227.5,60.86 L 225.83,60.86 L 224.17,62.53 L 223.33,63.36 L 222.5,63.36 L 221.67,64.19 L 220.83,65.03 L 220.83,65.86 L 220.83,65.03 L 221.67,65.03 L 223.33,64.19 L 224.17,63.36 L 225,63.36 L 225.83,62.53 L 228.33,61.69 L 230,60.86 L 230.83,60.03 L 231.67,60.03 L 234.17,59.19 L 234.17,58.36 L 235,58.36 L 235.83,58.36 L 236.67,57.53 L 237.5,57.53 L 236.67,57.53 L 236.67,58.36 L 235.83,58.36 L 234.17,59.19 L 233.33,60.03 L 231.67,60.86 L 230.83,61.69 L 230,62.53 L 228.33,63.36 L 227.5,64.19 L 225.83,65.03 L 224.17,65.86 L 223.33,66.69 L 223.33,67.53 L 223.33,66.69 L 224.17,66.69 L 225,66.69 L 226.67,65.86 L 227.5,65.03 L 229.17,65.03 L 230,64.19 L 231.67,64.19 L 233.33,62.53 L 235,62.53 L 236.67,61.69 L 237.5,61.69 L 238.33,60.86 L 239.17,60.86 L 240,60.86 L 239.17,61.69 L 238.33,61.69 L 237.5,62.53 L 235.83,63.36 L 234.17,64.19 L 234.17,65.03 L 232.5,65.86 L 231.67,65.86 L 230.83,66.69 L 230,66.69 L 230,67.53 L 229.17,67.53 L 229.17,68.36 L 228.33,68.36 L 229.17,68.36 L 230,68.36 L 230,67.53 L 230.83,67.53 L 232.5,66.69 L 233.33,66.69 L 234.17,65.86 L 235,65.86 L 235.83,65.03 L 236.67,65.03 L 237.5,65.03 L 236.67,65.03 L 236.67,65.86 L 235.83,65.86 L 235,66.69 L 234.17,67.53 L 233.33,67.53 L 232.5,68.36 L 231.67,68.36" fill="none" stroke="#d18616" stroke-width="3"></path><path d="M 254.17,53.36 L 253.33,53.36 L 252.5,54.19 L 251.67,54.19 L 251.67,55.03 L 250.83,55.03 L 250,55.03" fill="none" stroke="#d18616" stroke-width="3"></path><path d="M 255.83,54.19 L 255.83,53.36 L 255.83,52.53 L 255.83,51.69 L 255.83,50.86 L 256.67,50.86 L 256.67,50.03 L 255.83,50.86 L 255,51.69 L 254.17,51.69 L 254.17,52.53 L 252.5,53.36 L 251.67,54.19 L 250.83,55.03 L 250.83,55.86 L 250,55.86 L 250,56.69 L 250.83,56.69 L 251.67,56.69 L 251.67,55.86 L 252.5,55.86 L 253.33,55.03 L 254.17,54.19 L 255,54.19 L 255,53.36 L 255.83,53.36 L 255,53.36 L 255,54.19 L 254.17,54.19 L 253.33,55.03 L 251.67,55.86 L 251.67,56.69 L 250.83,57.53 L 250,58.36 L 249.17,58.36 L 248.33,59.19 L 248.33,60.03 L 247.5,60.03 L 247.5,60.86 L 246.67,60.86 L 247.5,60.86 L 248.33,60.86 L 248.33,60.03 L 250.83,59.19 L 251.67,58.36 L 252.5,57.53 L 254.17,56.69 L 255,55.86 L 256.67,55.03 L 257.5,54.19 L 258.33,53.36 L 259.17,52.53 L 260,52.53 L 260,51.69 L 260.83,51.69 L 260,51.69 L 259.17,52.53 L 258.33,52.53 L 258.33,53.36 L 256.67,54.19 L 255,55.03 L 254.17,55.86 L 253.33,57.53 L 252.5,58.36 L 251.67,58.36 L 250,60.03 L 249.17,60.03 L 249.17,60.86 L 248.33,61.69 L 247.5,62.53 L 247.5,63.36 L 247.5,62.53 L 249.17,61.69 L 250,61.69 L 250,60.86 L 251.67,60.03 L 252.5,59.19 L 254.17,58.36 L 255,58.36 L 255.83,57.53 L 257.5,56.69 L 258.33,55.86 L 259.17,55.03 L 260,55.03 L 260.83,54.19 L 261.67,54.19 L 260.83,54.19 L 260,55.03 L 259.17,55.86 L 258.33,56.69 L 257.5,57.53 L 256.67,58.36 L 255,60.03 L 255,60.86 L 253.33,61.69 L 252.5,62.53 L 251.67,63.36 L 251.67,64.19 L 250.83,64.19 L 250.83,65.03 L 250,65.03 L 250,65.86 L 249.17,65.86 L 250,65.86 L 250.83,65.03 L 251.67,64.19 L 253.33,62.53 L 254.17,61.69 L 255.83,60.86 L 256.67,60.03 L 258.33,59.19 L 259.17,58.36 L 260,58.36 L 260.83,57.53 L 261.67,57.53 L 260.83,57.53 L 260.83,58.36 L 260,58.36 L 259.17,60.03 L 258.33,60.03 L 258.33,60.86 L 256.67,62.53 L 255.83,62.53 L 255.83,63.36 L 255,64.19 L 254.17,64.19 L 254.17,65.03 L 253.33,65.03 L 253.33,65.86 L 254.17,65.86 L 255,65.86 L 256.67,65.03 L 257.5,65.03 L 258.33,64.19 L 259.17,63.36 L 260,63.36 L 260,62.53 L 260.83,62.53 L 261.67,62.53 L 261.67,61.69 L 262.5,61.69 L 261.67,61.69 L 261.67,62.53 L 260.83,62.53 L 260.83,63.36 L 260,64.19 L 259.17,65.03 L 258.33,65.03 L 258.33,65.86 L 257.5,65.86 L 257.5,66.69 L 256.67,67.53 L 257.5,67.53 L 258.33,66.69 L 259.17,66.69 L 259.17,65.86 L 260,65.86 L 260.83,65.03 L 260,65.03 L 260,65.86 L 259.17,65.86 L 258.33,66.69 L 257.5,67.53 L 256.67,68.36 L 255.83,69.19" fill="none" stroke="#d18616" stroke-width="3"></path><path d="M 281.67,51.69 L 281.67,52.53 L 280.83,52.53 L 280.83,53.36 L 280,53.36 L 280,54.19 L 279.17,55.03 L 278.33,55.03 L 276.67,55.86 L 276.67,56.69 L 275.83,56.69 L 275.83,57.53 L 275,58.36 L 274.17,58.36 L 273.33,59.19 L 274.17,59.19 L 275,58.36 L 275.83,57.53 L 276.67,56.69 L 277.5,55.86 L 278.33,55.03 L 279.17,54.19 L 280,54.19 L 280.83,53.36 L 281.67,52.53 L 282.5,51.69 L 281.67,51.69 L 281.67,52.53 L 280.83,52.53 L 279.17,53.36 L 278.33,54.19 L 277.5,55.03 L 276.67,55.86 L 276.67,56.69 L 275.83,56.69 L 276.67,56.69 L 277.5,56.69 L 278.33,56.69 L 280,55.86 L 280.83,55.86 L 282.5,55.03 L 283.33,54.19 L 284.17,54.19 L 285,53.36 L 285.83,53.36 L 286.67,52.53 L 287.5,52.53 L 286.67,53.36 L 285.83,54.19 L 285,54.19 L 284.17,55.03 L 283.33,55.86 L 282.5,56.69 L 281.67,57.53 L 280.83,58.36 L 279.17,59.19 L 278.33,60.03 L 277.5,60.86 L 276.67,61.69 L 275.83,61.69 L 275,62.53 L 275.83,62.53 L 275.83,61.69 L 276.67,61.69 L 276.67,60.86 L 277.5,60.86 L 279.17,60.03 L 280,59.19 L 281.67,57.53 L 282.5,57.53 L 283.33,56.69 L 284.17,55.86 L 285,55.86 L 285,55.03 L 285.83,55.03 L 286.67,54.19 L 285.83,55.03 L 285,55.86 L 284.17,56.69 L 283.33,57.53 L 282.5,57.53 L 281.67,58.36 L 280,60.03 L 279.17,60.86 L 278.33,61.69 L 277.5,62.53 L 276.67,63.36 L 275.83,64.19 L 275,65.03 L 275,65.86 L 275,65.03 L 275.83,65.03 L 276.67,64.19 L 279.17,63.36 L 280,63.36 L 281.67,61.69 L 282.5,61.69 L 284.17,60.86 L 285.83,60.03 L 287.5,59.19 L 289.17,58.36 L 290.83,57.53 L 291.67,56.69 L 292.5,56.69 L 292.5,55.86 L 293.33,55.86 L 292.5,56.69 L 291.67,56.69 L 291.67,57.53 L 290,58.36 L 289.17,59.19 L 287.5,60.03 L 286.67,60.86 L 285,61.69 L 285,62.53 L 283.33,64.19 L 282.5,64.19 L 281.67,65.03 L 280.83,65.86 L 280,66.69 L 279.17,67.53 L 279.17,68.36 L 278.33,68.36 L 279.17,68.36 L 280,67.53 L 280.83,66.69 L 282.5,66.69 L 283.33,65.86 L 284.17,65.03 L 285.83,64.19 L 286.67,63.36 L 287.5,63.36 L 288.33,62.53 L 289.17,62.53 L 289.17,61.69 L 290,61.69 L 290.83,61.69 L 290,61.69 L 290,62.53 L 289.17,62.53 L 289.17,63.36 L 287.5,64.19 L 286.67,65.03 L 285.83,65.03 L 285.83,65.86 L 285,65.86 L 285,66.69 L 284.17,67.53 L 283.33,67.53 L 283.33,68.36 L 284.17,67.53 L 285,67.53 L 285,66.69 L 286.67,66.69 L 286.67,65.86 L 287.5,65.86 L 288.33,65.86 L 288.33,65.03 L 289.17,65.03 L 290,65.03 L 290,64.19 L 290,65.03 L 289.17,65.03 L 289.17,65.86 L 288.33,66.69 L 288.33,67.53" fill="none" stroke="#d18616" stroke-width="3"></path><path d="M 235.83,145.86 L 235,145.86 L 235,146.69 L 235,147.53 L 234.17,148.36 L 234.17,149.19 L 233.33,150.03 L 232.5,150.86 L 232.5,151.69 L 231.67,152.53 L 231.67,153.36 L 232.5,152.53 L 233.33,152.53 L 234.17,151.69 L 235,151.69 L 235.83,151.69 L 236.67,152.53 L 237.5,152.53 L 237.5,153.36 L 237.5,154.19 L 238.33,154.19 L 238.33,155.03 L 238.33,155.86 L 238.33,156.69 L 238.33,157.53 L 237.5,157.53 L 237.5,158.36 L 236.67,158.36 L 236.67,159.19 L 235.83,159.19 L 235.83,160.03 L 235,160.03 L 234.17,160.03 L 233.33,160.86 L 232.5,160.86 L 231.67,161.69 L 230.83,161.69 L 230,161.69 L 229.17,161.69 L 228.33,162.53 L 227.5,162.53 L 226.67,162.53 L 225.83,161.69" fill="none" stroke="#d18616" stroke-width="1"></path><path d="M 235.83,147.53 L 235.83,146.69 L 236.67,146.69 L 237.5,146.69 L 237.5,145.86 L 238.33,145.86 L 240,145.86 L 240.83,145.86 L 241.67,145.86 L 242.5,145.86 L 243.33,145.86 L 244.17,145.86 L 245,145.86 L 245.83,145.86 L 247.5,145.86 L 248.33,145.86" fill="none" stroke="#d18616" stroke-width="1"></path><path d="M 262.5,152.53 L 261.67,152.53 L 262.5,152.53 L 263.33,152.53 L 264.17,152.53 L 265,152.53 L 265.83,152.53 L 266.67,152.53 L 267.5,152.53 L 269.17,151.69 L 270,151.69 L 270.83,151.69 L 271.67,151.69" fill="none" stroke="#d18616" stroke-width="1"></path><path d="M 260.83,156.69 L 261.67,156.69 L 262.5,156.69 L 263.33,156.69 L 264.17,156.69 L 265,156.69 L 265.83,156.69 L 267.5,156.69 L 268.33,156.69 L 269.17,156.69 L 270,156.69 L 270.83,156.69" fill="none" stroke="#d18616" stroke-width="1"></path><path d="M 285,148.36 L 285,149.19 L 285,150.03 L 285.83,150.86 L 285.83,151.69 L 285.83,152.53 L 286.67,153.36 L 286.67,154.19 L 286.67,155.03 L 287.5,155.86 L 287.5,156.69 L 288.33,157.53 L 288.33,158.36 L 288.33,159.19 L 289.17,159.19 L 289.17,158.36 L 290,158.36 L 290,157.53 L 290.83,156.69 L 290.83,155.86 L 290.83,155.03 L 291.67,154.19 L 291.67,153.36 L 292.5,152.53 L 292.5,151.69 L 293.33,150.86 L 293.33,150.03 L 294.17,149.19 L 294.17,148.36 L 295,148.36 L 295,149.19 L 295.83,149.19 L 295.83,150.03 L 295.83,150.86 L 295.83,151.69 L 295.83,152.53 L 295.83,153.36 L 295.83,154.19 L 295.83,155.03 L 295.83,155.86 L 295.83,156.69 L 295.83,157.53 L 296.67,158.36 L 296.67,159.19 L 297.5,158.36 L 298.33,156.69 L 299.17,156.69 L 300,155.03 L 300,154.19 L 300.83,154.19 L 301.67,152.53 L 301.67,151.69 L 302.5,151.69 L 302.5,150.86 L 303.33,150.86 L 303.33,150.03 L 304.17,150.03 L 304.17,149.19" fill="none" stroke="#d18616" stroke-width="1"></path><path d="M 309.17,143.36 L 309.17,142.53 L 309.17,143.36 L 309.17,144.19 L 309.17,145.03 L 309.17,145.86 L 308.33,146.69 L 308.33,147.53 L 308.33,148.36 L 308.33,150.03 L 308.33,150.86 L 307.5,151.69 L 307.5,152.53 L 307.5,153.36 L 307.5,154.19 L 306.67,155.03 L 306.67,155.86 L 306.67,156.69 L 307.5,156.69 L 307.5,155.86 L 308.33,155.03 L 309.17,154.19 L 310,153.36 L 310.83,152.53 L 310.83,151.69 L 311.67,151.69 L 311.67,150.86 L 312.5,150.86 L 312.5,150.03 L 313.33,150.03 L 313.33,149.19 L 314.17,149.19 L 315,149.19 L 315,150.03 L 315,150.86 L 315.83,151.69 L 315.83,152.53 L 315.83,153.36 L 315.83,154.19 L 315.83,155.03" fill="none" stroke="#d18616" stroke-width="1"></path><path d="M 321.67,151.69 L 321.67,152.53 L 320.83,153.36 L 320.83,154.19 L 320.83,155.03 L 321.67,155.86 L 321.67,156.69 L 322.5,157.53 L 323.33,158.36 L 324.17,158.36 L 324.17,157.53 L 325,157.53 L 325.83,157.53 L 325.83,156.69 L 326.67,156.69 L 326.67,155.86 L 327.5,155.86 L 327.5,155.03 L 327.5,154.19 L 327.5,153.36 L 327.5,152.53 L 327.5,151.69 L 327.5,150.86 L 326.67,150.86 L 326.67,150.03 L 325.83,149.19 L 325,149.19 L 325,150.03 L 324.17,150.03 L 324.17,150.86 L 323.33,150.86" fill="none" stroke="#d18616" stroke-width="1"></path><path d="M 333.33,155.03 L 334.17,155.03 L 335,155.03 L 335.83,154.19 L 336.67,154.19 L 337.5,153.36 L 339.17,152.53 L 340,152.53 L 340,151.69 L 340.83,151.69 L 341.67,150.03 L 342.5,150.03 L 344.17,148.36 L 344.17,147.53 L 344.17,146.69 L 345,145.86 L 345,145.03 L 345,144.19 L 345.83,144.19 L 345.83,143.36 L 345,143.36 L 345,142.53 L 344.17,142.53 L 343.33,142.53 L 341.67,143.36 L 340.83,143.36 L 340,144.19 L 339.17,145.03 L 338.33,145.86 L 337.5,146.69 L 335.83,148.36 L 335,149.19 L 334.17,150.86 L 334.17,151.69 L 333.33,152.53 L 333.33,153.36 L 333.33,154.19 L 333.33,155.03 L 334.17,155.03 L 334.17,155.86 L 335,156.69 L 335.83,156.69 L 337.5,156.69 L 338.33,156.69 L 339.17,156.69 L 340,156.69" fill="none" stroke="#d18616" stroke-width="1"></path><path d="M 345.83,155.03 L 346.67,155.03 L 347.5,155.03 L 348.33,155.03 L 348.33,154.19 L 349.17,154.19 L 350,154.19 L 350.83,153.36 L 351.67,153.36 L 352.5,152.53 L 353.33,151.69 L 353.33,150.86 L 352.5,150.03 L 352.5,149.19 L 351.67,149.19 L 350.83,149.19 L 350.83,150.03 L 350,150.03 L 349.17,150.03 L 348.33,150.86 L 347.5,151.69 L 346.67,152.53 L 345.83,153.36 L 345.83,154.19 L 345.83,155.03 L 345.83,155.86 L 345.83,156.69 L 345.83,157.53 L 346.67,157.53 L 346.67,158.36 L 347.5,158.36 L 348.33,158.36 L 348.33,159.19 L 350,159.19 L 350.83,159.19 L 351.67,159.19 L 352.5,159.19 L 353.33,159.19 L 354.17,159.19 L 355,159.19 L 355.83,159.19" fill="none" stroke="#d18616" stroke-width="1"></path></svg>