<svg id="svg" xmlns="http://www.w3.org/2000/svg" viewBox="0 11.690000534057617 524.7091064453125 157.5" height="157.5"><path d="M 34.17,22.53 L 34.17,21.69 L 34.17,22.53 L 33.33,23.36 L 33.33,24.19 L 32.5,25.86 L 32.5,26.69 L 31.67,27.53 L 31.67,28.36 L 30.83,30.03 L 30,31.69 L 30,33.36 L 29.17,34.19 L 29.17,35.03 L 29.17,35.86 L 28.33,35.86 L 28.33,36.69 L 28.33,37.53 L 27.5,38.36 L 27.5,39.19 L 28.33,39.19 L 29.17,38.36 L 30,37.53 L 30.83,37.53 L 31.67,36.69 L 32.5,35.03 L 33.33,35.03 L 33.33,34.19 L 34.17,34.19 L 35,32.53 L 35.83,31.69 L 36.67,31.69 L 37.5,30.86 L 38.33,30.03 L 38.33,29.19 L 39.17,29.19 L 39.17,28.36 L 40,27.53 L 40.83,27.53 L 40.83,26.69 L 41.67,26.69 L 42.5,25.86 L 43.33,25.86 L 43.33,25.03 L 44.17,25.03 L 45,25.03 L 45,25.86 L 45.83,25.86 L 45.83,26.69 L 45.83,27.53 L 45,28.36 L 45,29.19 L 45,30.03 L 45,30.86 L 45,31.69 L 44.17,32.53 L 44.17,33.36 L 44.17,34.19 L 44.17,35.03 L 44.17,35.86 L 44.17,36.69" fill="none" stroke="#3794ff" stroke-width="1"></path><path d="M 53.33,25.86 L 53.33,25.03 L 52.5,25.03 L 51.67,25.86 L 51.67,26.69 L 50.83,27.53 L 50.83,28.36 L 50.83,29.19 L 50.83,30.03 L 50.83,30.86 L 50,30.86 L 50,32.53 L 50,33.36 L 50.83,33.36 L 50.83,34.19 L 50.83,35.03 L 51.67,35.03 L 52.5,35.86 L 54.17,35.86 L 55,35.03 L 55.83,35.03 L 57.5,34.19 L 58.33,33.36 L 59.17,32.53 L 60.83,30.86 L 61.67,30.86 L 62.5,29.19 L 63.33,28.36 L 63.33,27.53 L 63.33,26.69 L 64.17,26.69 L 64.17,25.86 L 64.17,25.03 L 64.17,24.19 L 64.17,23.36 L 65,23.36 L 65,22.53 L 64.17,22.53 L 64.17,23.36 L 63.33,24.19 L 63.33,25.03 L 63.33,25.86 L 62.5,27.53 L 62.5,28.36 L 62.5,29.19 L 61.67,30.03 L 61.67,30.86 L 61.67,31.69 L 61.67,32.53 L 61.67,33.36 L 61.67,34.19 L 61.67,35.03 L 61.67,35.86 L 61.67,36.69" fill="none" stroke="#3794ff" stroke-width="1"></path><path d="M 74.17,25.03 L 74.17,25.86 L 73.33,26.69 L 73.33,27.53 L 72.5,27.53 L 72.5,29.19 L 71.67,30.03 L 71.67,30.86 L 70.83,32.53 L 70.83,33.36 L 70.83,34.19 L 70.83,35.03 L 70,35.86 L 70,36.69 L 70,37.53 L 70,38.36 L 70.83,38.36 L 70.83,39.19 L 70.83,38.36 L 71.67,38.36 L 71.67,37.53 L 72.5,37.53 L 72.5,36.69 L 73.33,35.03 L 74.17,34.19 L 75,33.36 L 75.83,31.69 L 76.67,30.86 L 77.5,30.03 L 78.33,29.19 L 78.33,28.36 L 79.17,28.36 L 80,27.53 L 80,26.69 L 80.83,25.86 L 81.67,25.86 L 81.67,25.03 L 82.5,25.03 L 82.5,25.86 L 82.5,26.69 L 82.5,27.53 L 82.5,28.36 L 82.5,29.19 L 82.5,30.03 L 81.67,31.69 L 81.67,32.53 L 81.67,33.36 L 81.67,34.19 L 81.67,35.03 L 81.67,35.86 L 81.67,36.69 L 82.5,36.69 L 83.33,36.69 L 84.17,35.86 L 85,34.19 L 85.83,33.36 L 86.67,31.69 L 87.5,30.86 L 88.33,30.03 L 89.17,29.19 L 89.17,28.36 L 90,28.36 L 90.83,27.53 L 91.67,27.53 L 91.67,28.36 L 91.67,29.19 L 91.67,30.03 L 91.67,30.86 L 91.67,31.69 L 91.67,32.53 L 91.67,33.36 L 90.83,34.19 L 90.83,35.03 L 90.83,35.86 L 91.67,36.69 L 91.67,37.53" fill="none" stroke="#3794ff" stroke-width="1"></path><path d="M 97.5,35.86 L 98.33,35.86 L 99.17,35.03 L 100,35.03 L 100.83,34.19 L 101.67,34.19 L 103.33,33.36 L 104.17,32.53 L 105,32.53 L 105.83,31.69 L 106.67,30.86 L 106.67,30.03 L 107.5,30.03 L 107.5,29.19 L 108.33,29.19 L 108.33,28.36 L 107.5,27.53 L 106.67,27.53 L 105.83,26.69 L 105.83,27.53 L 105,27.53 L 104.17,27.53 L 101.67,28.36 L 100.83,29.19 L 100,30.03 L 99.17,30.86 L 98.33,31.69 L 97.5,32.53 L 96.67,33.36 L 96.67,35.03 L 96.67,35.86 L 97.5,35.86 L 97.5,36.69 L 98.33,37.53 L 99.17,37.53 L 100.83,38.36 L 102.5,38.36 L 103.33,38.36 L 104.17,38.36 L 105,37.53 L 106.67,37.53 L 109.17,36.69 L 110.83,35.86" fill="none" stroke="#3794ff" stroke-width="1"></path><path d="M 120.83,26.69 L 121.67,26.69 L 121.67,25.86 L 120.83,25.86 L 120.83,26.69 L 120,26.69 L 120,27.53 L 119.17,28.36 L 118.33,30.03 L 117.5,30.03 L 117.5,30.86 L 116.67,32.53 L 116.67,33.36 L 115.83,34.19 L 115.83,35.03 L 115.83,36.69 L 115.83,37.53 L 115.83,38.36 L 116.67,38.36 L 117.5,37.53 L 118.33,36.69 L 119.17,35.86 L 120,34.19 L 120.83,34.19 L 121.67,32.53 L 122.5,31.69 L 123.33,31.69 L 123.33,30.86 L 124.17,30.86 L 125,30.03 L 125.83,29.19 L 126.67,29.19 L 126.67,28.36 L 127.5,28.36 L 128.33,28.36 L 129.17,28.36 L 129.17,29.19 L 129.17,30.03 L 129.17,30.86 L 128.33,31.69 L 128.33,32.53 L 128.33,33.36 L 128.33,34.19 L 128.33,35.03 L 128.33,35.86 L 129.17,35.86 L 129.17,36.69 L 130,36.69" fill="none" stroke="#3794ff" stroke-width="1"></path><path d="M 145.83,26.69 L 145.83,25.86 L 145,25.86 L 144.17,25.86 L 143.33,25.86 L 142.5,25.86 L 140.83,26.69 L 140,26.69 L 139.17,27.53 L 138.33,28.36 L 137.5,28.36 L 136.67,28.36 L 135.83,30.03 L 135,30.03 L 135,30.86 L 134.17,31.69 L 134.17,32.53 L 134.17,33.36 L 134.17,34.19 L 134.17,35.03 L 135,35.86 L 135.83,35.86 L 136.67,35.86 L 137.5,35.86 L 138.33,35.86 L 139.17,35.03 L 140,35.03 L 141.67,34.19 L 142.5,33.36 L 143.33,32.53" fill="none" stroke="#3794ff" stroke-width="1"></path><path d="M 146.67,30.03 L 146.67,29.19 L 147.5,29.19 L 147.5,28.36 L 147.5,29.19 L 147.5,30.03 L 146.67,30.03 L 146.67,30.86 L 146.67,31.69 L 146.67,32.53 L 146.67,33.36 L 146.67,34.19 L 146.67,35.03 L 146.67,35.86 L 146.67,36.69 L 147.5,36.69" fill="none" stroke="#3794ff" stroke-width="1"></path><path d="M 162.5,23.36 L 162.5,22.53 L 162.5,23.36 L 162.5,24.19 L 161.67,25.03 L 160.83,25.86 L 160.83,27.53 L 160,29.19 L 160,30.03 L 160,30.86 L 159.17,31.69 L 159.17,32.53 L 159.17,33.36 L 159.17,34.19 L 159.17,35.03 L 159.17,35.86 L 159.17,36.69 L 159.17,37.53 L 159.17,38.36 L 159.17,39.19 L 159.17,40.03 L 159.17,40.86 L 160,40.86 L 160.83,40.86 L 161.67,40.86 L 162.5,40.03 L 163.33,40.03 L 164.17,40.03 L 165,39.19 L 165.83,39.19 L 166.67,39.19 L 167.5,38.36 L 168.33,38.36 L 169.17,37.53" fill="none" stroke="#3794ff" stroke-width="1"></path><path d="M 153.33,36.69 L 153.33,35.86 L 154.17,35.86 L 155,35.86 L 155.83,35.86 L 157.5,35.86 L 159.17,35.86 L 160.83,35.03 L 161.67,35.03 L 163.33,35.03 L 164.17,35.03 L 165,35.03 L 165.83,35.03" fill="none" stroke="#3794ff" stroke-width="1"></path><path d="M 176.67,30.86 L 175.83,30.86 L 175.83,31.69 L 175,31.69 L 175,32.53 L 174.17,32.53 L 173.33,33.36 L 173.33,34.19 L 172.5,35.03 L 172.5,35.86 L 173.33,35.86 L 173.33,36.69 L 173.33,37.53 L 174.17,37.53 L 175,37.53 L 175.83,37.53 L 176.67,37.53 L 177.5,37.53 L 178.33,37.53 L 179.17,36.69 L 180.83,36.69 L 181.67,35.86 L 183.33,35.86 L 184.17,34.19 L 185,34.19 L 186.67,33.36 L 186.67,32.53 L 186.67,31.69 L 187.5,31.69 L 187.5,30.86 L 186.67,30.03 L 186.67,29.19 L 185.83,29.19 L 185,28.36 L 184.17,28.36 L 183.33,27.53 L 182.5,27.53 L 181.67,27.53 L 180,27.53 L 179.17,27.53 L 178.33,28.36 L 176.67,29.19" fill="none" stroke="#3794ff" stroke-width="1"></path><path d="M 195.83,29.19 L 195,29.19 L 195,30.03 L 195,30.86 L 194.17,30.86 L 194.17,31.69 L 194.17,32.53 L 194.17,33.36 L 193.33,34.19 L 193.33,35.03 L 193.33,35.86 L 193.33,36.69 L 194.17,36.69 L 194.17,37.53 L 195,36.69 L 195,35.86 L 195.83,35.86 L 195.83,35.03 L 195.83,34.19 L 195.83,33.36 L 196.67,31.69 L 197.5,30.86 L 197.5,30.03 L 198.33,28.36 L 199.17,28.36 L 199.17,27.53 L 200,26.69 L 200.83,25.86 L 201.67,25.86 L 201.67,25.03 L 202.5,25.03 L 203.33,24.19 L 204.17,24.19 L 205,24.19 L 205.83,24.19 L 206.67,25.03 L 207.5,25.03 L 207.5,25.86 L 208.33,25.86 L 208.33,26.69 L 209.17,27.53 L 209.17,28.36 L 208.33,29.19 L 208.33,30.03" fill="none" stroke="#3794ff" stroke-width="1"></path><path d="M 38.33,65.86 L 37.5,65.86 L 37.5,65.03 L 36.67,65.03 L 35.83,65.03 L 35,65.03 L 34.17,65.03 L 33.33,65.86 L 32.5,65.86 L 32.5,66.69 L 31.67,66.69 L 31.67,67.53 L 30.83,67.53 L 30.83,68.36 L 30.83,69.19 L 30,70.86 L 30,71.69 L 30,72.53 L 30,73.36 L 30,74.19 L 30,75.03 L 30.83,75.86 L 30.83,76.69 L 30.83,77.53 L 31.67,77.53 L 31.67,78.36 L 32.5,78.36 L 33.33,79.19 L 34.17,78.36 L 35,78.36 L 35.83,77.53 L 36.67,76.69 L 37.5,75.86 L 38.33,75.03 L 39.17,74.19 L 40,72.53 L 40,71.69 L 40.83,70.03 L 40.83,69.19 L 40.83,68.36 L 40.83,65.86 L 40.83,65.03 L 40.83,63.36 L 40.83,62.53 L 40.83,60.03 L 40.83,59.19 L 40.83,58.36 L 40,57.53 L 40,56.69 L 40,55.86 L 40,55.03 L 40,55.86 L 39.17,55.86 L 39.17,56.69 L 39.17,57.53 L 39.17,58.36 L 39.17,59.19 L 39.17,60.86 L 39.17,61.69 L 40,63.36 L 40,64.19 L 40,65.03 L 40,67.53 L 40,69.19 L 40.83,70.03 L 40.83,72.53 L 40.83,73.36 L 40.83,74.19 L 41.67,75.03 L 41.67,75.86 L 41.67,76.69 L 41.67,77.53 L 41.67,78.36 L 41.67,79.19 L 41.67,80.03" fill="none" stroke="#3794ff" stroke-width="1"></path><path d="M 51.67,74.19 L 52.5,74.19 L 52.5,73.36 L 53.33,73.36 L 54.17,73.36 L 55.83,72.53 L 57.5,71.69 L 57.5,70.86 L 58.33,70.86 L 60,70.03 L 60.83,69.19 L 61.67,68.36 L 62.5,67.53 L 62.5,66.69 L 62.5,65.86 L 61.67,65.86 L 60.83,65.03 L 60,65.03 L 59.17,64.19 L 58.33,64.19 L 57.5,64.19 L 56.67,64.19 L 55.83,64.19 L 55,65.03 L 54.17,65.03 L 50.83,66.69 L 50,67.53 L 49.17,68.36 L 48.33,69.19 L 48.33,70.03 L 48.33,70.86 L 47.5,71.69 L 47.5,72.53 L 48.33,73.36 L 48.33,74.19 L 49.17,74.19 L 50,75.03 L 50.83,75.03 L 51.67,75.86 L 52.5,75.86 L 60,75.86" fill="none" stroke="#3794ff" stroke-width="1"></path><path d="M 68.33,68.36 L 67.5,68.36 L 67.5,69.19 L 67.5,70.03 L 66.67,70.86 L 66.67,71.69 L 66.67,73.36 L 66.67,74.19 L 66.67,75.03 L 66.67,75.86 L 66.67,76.69 L 67.5,76.69 L 68.33,75.86 L 69.17,75.03 L 69.17,73.36 L 70,72.53 L 70,71.69 L 70.83,70.03 L 71.67,69.19 L 71.67,68.36 L 72.5,67.53 L 73.33,66.69 L 74.17,65.86 L 75,65.03 L 75.83,65.03 L 75.83,65.86 L 76.67,66.69 L 76.67,67.53 L 77.5,68.36 L 77.5,69.19 L 77.5,70.03 L 77.5,70.86 L 77.5,71.69 L 77.5,72.53 L 77.5,73.36 L 77.5,74.19 L 77.5,75.03 L 77.5,75.86" fill="none" stroke="#3794ff" stroke-width="1"></path><path d="M 89.17,66.69 L 89.17,67.53 L 88.33,67.53 L 88.33,68.36 L 87.5,68.36 L 87.5,69.19 L 86.67,70.03 L 85.83,70.86 L 85.83,71.69 L 85.83,72.53 L 85.83,73.36 L 85.83,74.19 L 86.67,75.03 L 87.5,75.86 L 88.33,75.86 L 89.17,76.69 L 90,76.69 L 90.83,76.69 L 91.67,76.69 L 92.5,76.69 L 93.33,76.69 L 93.33,75.86 L 95,75.86 L 95.83,75.86 L 96.67,75.03 L 97.5,74.19 L 98.33,74.19 L 99.17,73.36 L 99.17,72.53 L 99.17,71.69 L 99.17,70.86 L 99.17,70.03 L 99.17,69.19 L 98.33,68.36 L 96.67,67.53 L 96.67,66.69 L 95,66.69 L 94.17,65.86 L 93.33,65.86 L 91.67,65.86 L 90,65.86 L 89.17,65.86 L 87.5,66.69 L 86.67,67.53 L 85.83,67.53" fill="none" stroke="#3794ff" stroke-width="1"></path><path d="M 104.17,69.19 L 104.17,68.36 L 103.33,69.19 L 103.33,70.03 L 103.33,70.86 L 103.33,71.69 L 103.33,72.53 L 103.33,73.36 L 103.33,74.19 L 103.33,75.03 L 104.17,75.86 L 104.17,76.69 L 105,76.69 L 105,75.86 L 105,75.03 L 105.83,75.03 L 105.83,74.19 L 105.83,73.36 L 106.67,72.53 L 107.5,70.86 L 108.33,70.03 L 108.33,69.19 L 109.17,68.36 L 110,67.53 L 110.83,67.53 L 110.83,66.69 L 111.67,66.69 L 111.67,65.86 L 112.5,65.86 L 112.5,66.69 L 113.33,67.53 L 113.33,68.36 L 113.33,69.19 L 113.33,70.86 L 113.33,71.69 L 113.33,72.53 L 113.33,73.36 L 113.33,74.19 L 113.33,75.03 L 113.33,75.86 L 113.33,76.69 L 113.33,77.53 L 114.17,76.69 L 114.17,75.86 L 115,75.86 L 116.67,74.19 L 117.5,73.36 L 118.33,71.69 L 119.17,70.86 L 120.83,69.19 L 120.83,68.36 L 121.67,67.53 L 122.5,66.69 L 123.33,67.53 L 123.33,68.36 L 123.33,69.19 L 123.33,70.03 L 123.33,70.86 L 123.33,71.69 L 123.33,72.53 L 123.33,73.36 L 123.33,74.19 L 123.33,75.03 L 123.33,75.86" fill="none" stroke="#3794ff" stroke-width="1"></path><path d="M 132.5,66.69 L 132.5,67.53 L 132.5,68.36 L 131.67,69.19 L 131.67,70.03 L 131.67,70.86 L 130.83,71.69 L 130.83,72.53 L 130.83,73.36 L 130.83,74.19 L 130,74.19 L 130,75.03 L 130,75.86 L 130,76.69" fill="none" stroke="#3794ff" stroke-width="1"></path><path d="M 131.67,63.36 L 131.67,62.53 L 131.67,61.69 L 131.67,60.86" fill="none" stroke="#3794ff" stroke-width="1"></path><path d="M 140,65.03 L 140,65.86 L 140.83,65.86 L 140.83,66.69 L 140.83,67.53 L 140.83,68.36 L 140,70.03 L 140,70.86 L 140,72.53 L 140,73.36 L 139.17,75.03 L 139.17,75.86 L 139.17,76.69 L 138.33,77.53 L 138.33,78.36 L 139.17,78.36 L 140,77.53 L 140.83,76.69 L 141.67,75.86 L 142.5,74.19 L 143.33,72.53 L 144.17,72.53 L 145,70.86 L 145.83,70.03 L 146.67,69.19 L 147.5,68.36 L 147.5,67.53 L 148.33,67.53 L 148.33,66.69 L 149.17,66.69 L 149.17,67.53 L 149.17,68.36 L 150,69.19 L 150,70.03 L 150,70.86 L 150,71.69 L 150,72.53 L 150,73.36 L 150.83,74.19" fill="none" stroke="#3794ff" stroke-width="1"></path><path d="M 166.67,65.03 L 165.83,65.03 L 165,65.03 L 164.17,65.03 L 163.33,65.03 L 162.5,65.03 L 161.67,65.03 L 160.83,65.86 L 160,65.86 L 159.17,66.69 L 157.5,67.53 L 155.83,69.19 L 155,69.19 L 155,70.03 L 154.17,70.86 L 154.17,71.69 L 153.33,72.53 L 153.33,73.36 L 153.33,74.19 L 154.17,75.03 L 155,75.86 L 155,76.69 L 155.83,76.69 L 156.67,77.53 L 157.5,77.53 L 158.33,77.53 L 159.17,77.53 L 160.83,76.69 L 161.67,76.69 L 162.5,75.86 L 162.5,75.03 L 163.33,74.19 L 164.17,73.36 L 164.17,72.53 L 165,72.53 L 165,71.69 L 165,70.86 L 165,70.03 L 165,70.86 L 164.17,70.86 L 164.17,71.69 L 164.17,72.53 L 163.33,73.36 L 163.33,74.19 L 163.33,75.03 L 163.33,75.86 L 163.33,76.69 L 164.17,77.53" fill="none" stroke="#3794ff" stroke-width="1"></path><path d="M 180.83,60.86 L 180,60.86 L 180,61.69 L 178.33,62.53 L 178.33,63.36 L 177.5,65.03 L 176.67,66.69 L 176.67,67.53 L 176.67,68.36 L 176.67,69.19 L 176.67,70.03 L 176.67,70.86 L 176.67,71.69 L 176.67,72.53 L 176.67,73.36 L 176.67,74.19 L 177.5,74.19 L 177.5,75.03 L 177.5,75.86 L 178.33,75.86 L 178.33,76.69 L 179.17,76.69 L 180,76.69 L 180.83,76.69 L 181.67,76.69 L 182.5,76.69 L 183.33,76.69 L 184.17,76.69 L 185,76.69 L 185.83,76.69 L 186.67,76.69" fill="none" stroke="#3794ff" stroke-width="1"></path><path d="M 170,75.03 L 170,74.19 L 171.67,74.19 L 172.5,74.19 L 174.17,73.36 L 175.83,73.36 L 177.5,73.36 L 179.17,72.53 L 180,72.53 L 181.67,72.53 L 183.33,72.53 L 184.17,72.53 L 185.83,72.53 L 186.67,72.53 L 187.5,72.53" fill="none" stroke="#3794ff" stroke-width="1"></path><path d="M 194.17,69.19 L 193.33,69.19 L 192.5,69.19 L 191.67,69.19 L 190.83,70.03 L 190,70.03 L 189.17,70.86 L 188.33,71.69 L 188.33,72.53 L 188.33,73.36 L 189.17,74.19 L 190,75.03 L 190.83,75.03 L 190.83,75.86 L 191.67,75.86 L 192.5,75.86 L 193.33,75.86 L 194.17,75.86 L 195,75.86 L 196.67,75.86 L 197.5,75.86 L 198.33,75.03 L 199.17,75.03 L 200,75.03 L 200.83,74.19 L 201.67,73.36 L 201.67,72.53 L 202.5,71.69 L 201.67,70.86 L 201.67,70.03 L 200.83,69.19 L 200,68.36 L 199.17,68.36 L 198.33,67.53 L 196.67,67.53 L 196.67,66.69 L 195.83,66.69 L 194.17,66.69 L 193.33,66.69 L 192.5,66.69 L 191.67,67.53 L 190.83,67.53 L 190,68.36" fill="none" stroke="#3794ff" stroke-width="1"></path><path d="M 205.83,67.53 L 205.83,68.36 L 205,68.36 L 205,69.19 L 205,70.86 L 205,71.69 L 205,72.53 L 205,73.36 L 205,74.19 L 205,75.03 L 205.83,75.86 L 205.83,76.69 L 205.83,77.53 L 206.67,77.53 L 206.67,76.69 L 207.5,76.69 L 207.5,75.86 L 207.5,75.03 L 207.5,74.19 L 207.5,73.36 L 207.5,72.53 L 207.5,71.69 L 207.5,70.03 L 207.5,69.19 L 207.5,68.36 L 208.33,68.36 L 208.33,67.53 L 208.33,66.69 L 209.17,65.86 L 209.17,65.03 L 210,65.03 L 210,64.19 L 210.83,64.19 L 211.67,64.19 L 211.67,63.36 L 212.5,63.36 L 213.33,63.36 L 214.17,63.36 L 215,64.19 L 215.83,64.19 L 215.83,65.03 L 216.67,65.03 L 216.67,65.86 L 217.5,66.69 L 217.5,67.53 L 217.5,68.36 L 218.33,69.19 L 218.33,70.03 L 218.33,70.86 L 218.33,71.69" fill="none" stroke="#3794ff" stroke-width="1"></path><path d="M 66.67,115.03 L 65.83,115.03 L 65,115.03 L 65,114.19 L 65.83,114.19 L 65.83,113.36 L 66.67,113.36 L 67.5,112.53 L 67.5,111.69 L 69.17,111.69 L 69.17,110.86 L 70.83,110.86 L 71.67,110.03 L 72.5,110.03 L 73.33,110.03 L 74.17,110.86 L 75,110.86 L 75,111.69 L 75,112.53 L 75,113.36 L 74.17,114.19 L 74.17,115.03 L 73.33,115.86 L 72.5,116.69 L 71.67,117.53 L 70.83,117.53 L 70.83,118.36 L 70,118.36 L 70,119.19 L 69.17,119.19 L 70,119.19 L 70,118.36 L 70.83,118.36 L 71.67,118.36 L 72.5,118.36 L 73.33,118.36 L 74.17,118.36 L 75,118.36 L 75.83,118.36 L 76.67,118.36 L 77.5,119.19 L 78.33,119.19 L 79.17,120.03 L 80.83,120.03 L 81.67,120.86 L 81.67,121.69 L 82.5,121.69 L 82.5,122.53 L 83.33,122.53 L 83.33,123.36 L 83.33,124.19 L 83.33,125.03 L 82.5,125.03 L 81.67,125.86 L 80.83,125.86 L 80,125.86 L 79.17,125.86 L 77.5,125.86 L 76.67,125.86 L 75.83,125.86 L 75,125.86 L 74.17,125.86 L 72.5,125.86 L 71.67,125.86 L 70.83,125.86 L 69.17,125.86" fill="none" stroke="#3794ff" stroke-width="1"></path><path d="M 59.17,133.36 L 60,133.36 L 60.83,132.53 L 62.5,132.53 L 65,132.53 L 67.5,131.69 L 70.83,131.69 L 75,130.86 L 80,130.86 L 82.5,130.03 L 86.67,130.03 L 89.17,129.19 L 91.67,129.19 L 95.83,128.36 L 97.5,128.36 L 100,128.36 L 100.83,128.36 L 102.5,127.53 L 103.33,127.53 L 104.17,127.53 L 103.33,128.36" fill="none" stroke="#3794ff" stroke-width="1"></path><path d="M 75.83,137.53 L 75.83,136.69 L 75,136.69 L 74.17,137.53 L 74.17,138.36 L 74.17,139.19 L 74.17,140.03 L 74.17,140.86 L 75,141.69 L 75,142.53 L 75.83,143.36 L 76.67,144.19 L 77.5,144.19 L 77.5,145.03 L 78.33,145.03 L 79.17,145.03 L 80,144.19 L 80.83,144.19 L 81.67,143.36 L 83.33,142.53 L 84.17,141.69 L 84.17,140.86 L 85,140.86 L 85,140.03 L 85.83,139.19 L 85.83,138.36 L 86.67,138.36 L 86.67,137.53 L 85.83,138.36 L 85.83,139.19 L 85.83,140.03 L 85.83,140.86 L 85,142.53 L 85,143.36 L 85,145.03 L 85,146.69 L 85,149.19 L 85,150.03 L 85.83,151.69 L 85.83,152.53 L 85.83,153.36 L 85.83,155.03 L 85.83,155.86 L 86.67,155.86 L 86.67,157.53 L 86.67,158.36 L 87.5,159.19" fill="none" stroke="#3794ff" stroke-width="1"></path><path d="M 15.83,38.36 L 15,39.19 L 14.17,40.03 L 13.33,41.69 L 12.5,42.53 L 12.5,43.36 L 11.67,44.19 L 11.67,45.03 L 11.67,45.86 L 10.83,47.53 L 10.83,50.03 L 10.83,50.86 L 10.83,51.69 L 10,54.19 L 10,55.03 L 10,56.69 L 10,58.36 L 10,59.19 L 10,60.86 L 10,62.53 L 10.83,63.36 L 10.83,65.86 L 11.67,66.69 L 12.5,68.36 L 12.5,69.19 L 13.33,70.86 L 14.17,71.69 L 14.17,72.53 L 15,74.19 L 16.67,75.86 L 17.5,77.53 L 18.33,78.36 L 19.17,80.03 L 19.17,80.86 L 20,81.69 L 20.83,83.36 L 21.67,83.36 L 22.5,85.03 L 23.33,86.69 L 24.17,87.53 L 24.17,88.36 L 25,89.19 L 25,90.03 L 25.83,90.86 L 26.67,92.53 L 27.5,93.36 L 28.33,94.19 L 29.17,95.03 L 30,95.86 L 30.83,96.69 L 31.67,97.53 L 32.5,98.36 L 33.33,99.19 L 34.17,100.03 L 35,100.03 L 35,100.86 L 35.83,100.86 L 36.67,101.69 L 37.5,102.53 L 39.17,103.36 L 39.17,104.19 L 40,104.19 L 40.83,105.03 L 41.67,105.86 L 42.5,106.69 L 43.33,106.69 L 44.17,106.69 L 45,107.53 L 45.83,108.36 L 46.67,109.19 L 47.5,110.03 L 48.33,110.03 L 49.17,110.86 L 50,110.86 L 50.83,111.69 L 51.67,111.69 L 52.5,112.53 L 53.33,112.53 L 53.33,113.36 L 54.17,113.36 L 55,114.19 L 55.83,114.19 L 56.67,115.03 L 57.5,115.03 L 58.33,115.03 L 58.33,115.86 L 59.17,115.86 L 60,115.86 L 60.83,116.69 L 61.67,116.69 L 61.67,117.53 L 62.5,117.53 L 63.33,117.53 L 63.33,118.36 L 64.17,118.36 L 65,118.36 L 65,119.19" fill="none" stroke="#3794ff" stroke-width="1"></path><path d="M 63.33,113.36 L 62.5,113.36 L 62.5,112.53 L 61.67,111.69 L 61.67,110.86 L 60.83,110.86 L 60.83,111.69 L 61.67,111.69 L 61.67,112.53 L 62.5,113.36 L 62.5,114.19 L 63.33,114.19 L 63.33,115.03 L 63.33,115.86 L 64.17,115.86 L 64.17,116.69 L 65,117.53 L 65.83,117.53 L 65.83,118.36 L 66.67,118.36 L 66.67,119.19 L 67.5,119.19 L 67.5,120.03 L 66.67,120.03 L 65.83,120.03 L 65,119.19 L 64.17,119.19 L 62.5,119.19 L 61.67,119.19 L 60,119.19 L 59.17,119.19 L 58.33,119.19 L 57.5,119.19 L 56.67,119.19" fill="none" stroke="#3794ff" stroke-width="1"></path><path d="M 167.5,90.86 L 167.5,91.69 L 166.67,93.36 L 165.83,95.03 L 165,95.86 L 165,96.69 L 163.33,98.36 L 163.33,100.03 L 162.5,101.69 L 161.67,102.53 L 161.67,103.36 L 160.83,105.86 L 160,106.69 L 159.17,108.36 L 158.33,110.03 L 158.33,110.86 L 157.5,111.69 L 156.67,113.36 L 155.83,115.03 L 155.83,115.86 L 155,117.53 L 154.17,118.36 L 153.33,120.03 L 152.5,120.86 L 151.67,121.69 L 150.83,122.53 L 150,124.19 L 149.17,125.03 L 148.33,125.86 L 148.33,126.69 L 147.5,126.69 L 147.5,127.53 L 146.67,128.36 L 145,129.19 L 144.17,129.19 L 144.17,130.03 L 142.5,130.86 L 141.67,131.69 L 140.83,131.69 L 140,132.53 L 138.33,133.36 L 138.33,134.19 L 137.5,134.19 L 136.67,135.03 L 135,135.86 L 134.17,136.69 L 133.33,136.69 L 132.5,137.53 L 131.67,138.36 L 130,139.19 L 129.17,139.19 L 128.33,140.03 L 127.5,140.03 L 126.67,140.86 L 125.83,140.86 L 125,141.69 L 124.17,141.69 L 123.33,142.53 L 122.5,142.53 L 122.5,143.36 L 120.83,143.36 L 120,143.36 L 120,144.19 L 119.17,144.19 L 118.33,144.19 L 117.5,145.03 L 116.67,145.03 L 115.83,145.03 L 115,145.86 L 114.17,145.86 L 113.33,145.86 L 113.33,146.69 L 112.5,146.69 L 111.67,146.69 L 110.83,146.69 L 110,147.53 L 109.17,147.53 L 108.33,147.53 L 107.5,147.53 L 106.67,148.36 L 105.83,148.36 L 105,148.36 L 104.17,148.36 L 103.33,148.36 L 102.5,148.36 L 102.5,149.19" fill="none" stroke="#3794ff" stroke-width="1"></path><path d="M 105,146.69 L 104.17,146.69 L 105,146.69 L 105,145.86 L 105.83,145.86 L 106.67,145.03 L 109.17,144.19 L 110.83,143.36 L 111.67,143.36 L 112.5,142.53 L 113.33,142.53 L 114.17,141.69 L 115,141.69 L 115.83,141.69 L 115.83,140.86 L 116.67,140.86 L 117.5,140.86 L 116.67,140.86 L 115.83,141.69 L 115,141.69 L 115,142.53 L 114.17,142.53 L 113.33,143.36 L 112.5,143.36 L 111.67,144.19 L 110.83,144.19 L 110,145.03 L 109.17,145.03 L 109.17,145.86 L 108.33,145.86 L 107.5,146.69 L 106.67,146.69 L 105.83,147.53 L 105,148.36 L 104.17,148.36 L 103.33,149.19 L 102.5,149.19 L 102.5,150.03 L 101.67,150.03 L 102.5,150.03 L 103.33,150.03 L 104.17,150.03 L 105,150.03 L 105.83,150.03 L 106.67,150.03 L 108.33,150.03 L 110,150.03 L 110.83,150.03 L 111.67,150.03 L 112.5,150.03 L 114.17,150.03" fill="none" stroke="#3794ff" stroke-width="1"></path><path d="M 260,25.03 L 259.17,25.86 L 259.17,26.69 L 259.17,27.53 L 259.17,28.36 L 259.17,29.19 L 259.17,30.03 L 259.17,31.69 L 260,33.36 L 260,34.19 L 260,35.03 L 260,37.53 L 260,39.19 L 260,40.03 L 260,42.53 L 260,43.36 L 260.83,45.03 L 260.83,45.86 L 260.83,47.53 L 260.83,49.19 L 260.83,50.03 L 260.83,51.69 L 260.83,53.36 L 260.83,55.03 L 260.83,56.69 L 260.83,57.53 L 260.83,59.19 L 260.83,60.03 L 260.83,61.69 L 261.67,62.53 L 261.67,64.19 L 261.67,65.86 L 261.67,66.69 L 261.67,67.53 L 261.67,69.19 L 261.67,70.03 L 261.67,70.86 L 261.67,71.69 L 261.67,72.53 L 261.67,73.36 L 262.5,74.19 L 262.5,75.86 L 262.5,76.69 L 262.5,77.53 L 262.5,78.36 L 262.5,79.19 L 262.5,80.03 L 261.67,81.69 L 261.67,82.53 L 261.67,83.36 L 261.67,85.03 L 261.67,85.86 L 261.67,86.69 L 261.67,87.53 L 260.83,89.19 L 260.83,90.03 L 260.83,90.86 L 260,91.69 L 260,92.53 L 260,93.36 L 260,94.19 L 260,95.03 L 259.17,95.03 L 259.17,95.86 L 259.17,96.69 L 259.17,97.53 L 259.17,98.36 L 259.17,99.19 L 259.17,100.03 L 258.33,100.86 L 258.33,101.69 L 258.33,102.53 L 258.33,103.36 L 258.33,104.19 L 258.33,105.03 L 257.5,105.03 L 257.5,105.86 L 257.5,106.69 L 257.5,107.53 L 257.5,108.36 L 257.5,109.19 L 257.5,110.03 L 257.5,110.86 L 257.5,111.69 L 257.5,112.53 L 258.33,112.53 L 258.33,113.36 L 258.33,114.19 L 259.17,114.19 L 259.17,115.03 L 259.17,115.86 L 259.17,116.69 L 260,116.69 L 260,117.53 L 260,118.36 L 260.83,118.36 L 260.83,119.19 L 260.83,120.03 L 260.83,120.86 L 261.67,120.86 L 261.67,121.69 L 261.67,122.53 L 261.67,123.36 L 261.67,124.19 L 261.67,125.03 L 261.67,125.86 L 261.67,126.69 L 261.67,127.53 L 260.83,127.53 L 260.83,128.36 L 260.83,129.19 L 260.83,130.03 L 260,130.86 L 260,131.69 L 260,132.53 L 259.17,132.53 L 259.17,133.36 L 259.17,134.19 L 259.17,135.03 L 259.17,135.86 L 259.17,136.69 L 260,136.69 L 260.83,136.69" fill="none" stroke="#3794ff" stroke-width="1"></path><path d="M 259.17,22.53 L 260,22.53 L 260.83,22.53 L 261.67,22.53 L 262.5,22.53 L 263.33,22.53 L 264.17,22.53 L 265,22.53 L 265.83,22.53 L 266.67,22.53 L 267.5,22.53 L 269.17,22.53 L 270,22.53 L 270.83,22.53 L 271.67,22.53 L 272.5,22.53 L 274.17,21.69 L 275,21.69 L 275.83,21.69 L 276.67,21.69 L 278.33,21.69 L 279.17,21.69 L 280.83,21.69 L 281.67,21.69 L 282.5,21.69 L 283.33,21.69 L 285,21.69 L 286.67,21.69 L 287.5,21.69 L 288.33,21.69 L 289.17,22.53 L 290,22.53 L 291.67,22.53 L 292.5,22.53 L 293.33,22.53 L 295,22.53 L 295.83,22.53 L 296.67,22.53 L 297.5,22.53 L 298.33,22.53 L 300,22.53 L 300.83,22.53 L 301.67,22.53 L 302.5,22.53 L 304.17,22.53 L 305,22.53 L 305.83,22.53 L 307.5,22.53 L 308.33,22.53 L 309.17,22.53 L 310.83,22.53 L 311.67,22.53 L 312.5,22.53 L 314.17,22.53 L 315,22.53 L 315.83,22.53 L 317.5,22.53 L 318.33,22.53 L 319.17,22.53 L 320,22.53 L 320.83,22.53 L 321.67,22.53 L 322.5,22.53 L 323.33,22.53 L 324.17,22.53 L 325,22.53 L 325.83,22.53 L 325.83,23.36 L 326.67,23.36 L 327.5,23.36 L 328.33,23.36 L 329.17,23.36 L 330,23.36 L 330.83,23.36 L 331.67,23.36 L 332.5,23.36 L 333.33,23.36 L 334.17,23.36 L 335,23.36 L 335.83,23.36 L 336.67,23.36 L 337.5,23.36 L 338.33,23.36 L 339.17,23.36 L 340,23.36 L 340.83,23.36 L 341.67,23.36 L 342.5,23.36 L 343.33,23.36 L 344.17,23.36 L 345,23.36 L 345.83,23.36 L 346.67,23.36 L 347.5,23.36 L 348.33,23.36 L 349.17,23.36 L 350,23.36 L 350.83,23.36 L 351.67,23.36 L 352.5,23.36 L 353.33,23.36 L 354.17,23.36 L 355,23.36 L 355.83,23.36 L 356.67,23.36 L 357.5,23.36 L 358.33,23.36 L 359.17,23.36 L 360,23.36 L 360.83,22.53 L 361.67,22.53 L 362.5,22.53 L 363.33,22.53 L 364.17,22.53 L 365,22.53 L 365.83,22.53 L 366.67,22.53 L 367.5,22.53 L 368.33,22.53 L 369.17,22.53 L 370,22.53 L 370.83,22.53 L 371.67,22.53 L 372.5,22.53 L 373.33,22.53 L 373.33,23.36 L 374.17,23.36 L 375,23.36 L 375.83,23.36 L 376.67,23.36 L 377.5,23.36 L 378.33,23.36 L 378.33,22.53 L 379.17,22.53 L 380,22.53 L 380.83,22.53 L 380.83,23.36" fill="none" stroke="#3794ff" stroke-width="1"></path><path d="M 261.67,136.69 L 260.83,136.69" fill="none" stroke="#3794ff" stroke-width="1"></path><path d="M 260.83,139.19 L 261.67,139.19 L 262.5,139.19 L 263.33,138.36 L 264.17,138.36 L 265,138.36 L 265.83,138.36 L 270,138.36 L 271.67,138.36 L 274.17,138.36 L 275.83,138.36 L 279.17,137.53 L 280.83,137.53 L 282.5,137.53 L 285,137.53 L 286.67,137.53 L 288.33,137.53 L 290,137.53 L 291.67,137.53 L 293.33,137.53" fill="none" stroke="#3794ff" stroke-width="1"></path><path d="M 281.67,139.19 L 282.5,139.19 L 283.33,139.19 L 284.17,139.19 L 285.83,139.19 L 288.33,139.19 L 289.17,139.19 L 291.67,139.19 L 292.5,139.19 L 295,139.19 L 297.5,139.19 L 298.33,139.19 L 300,139.19 L 300.83,139.19 L 303.33,139.19 L 304.17,139.19 L 305.83,139.19 L 307.5,139.19 L 308.33,139.19 L 310,139.19 L 310.83,139.19 L 312.5,139.19 L 314.17,138.36 L 315,138.36 L 315.83,138.36 L 316.67,138.36 L 317.5,138.36 L 318.33,138.36 L 320,138.36 L 320.83,138.36 L 321.67,138.36 L 322.5,138.36 L 323.33,138.36 L 323.33,139.19 L 324.17,139.19 L 323.33,139.19 L 323.33,138.36 L 324.17,138.36 L 325,138.36 L 325.83,138.36 L 326.67,138.36 L 327.5,138.36 L 328.33,138.36 L 329.17,138.36 L 330,138.36 L 330.83,138.36 L 331.67,139.19 L 332.5,139.19 L 334.17,139.19 L 335,139.19 L 335.83,139.19 L 336.67,139.19 L 337.5,139.19 L 338.33,139.19 L 339.17,139.19 L 340,139.19 L 340.83,139.19 L 341.67,139.19 L 342.5,139.19 L 343.33,138.36 L 344.17,138.36 L 345,138.36 L 345.83,138.36 L 346.67,138.36 L 347.5,138.36 L 348.33,138.36 L 349.17,138.36 L 350,138.36 L 350.83,138.36 L 351.67,138.36 L 352.5,139.19 L 353.33,139.19 L 354.17,139.19 L 355,139.19 L 355.83,139.19 L 356.67,139.19 L 357.5,139.19 L 358.33,139.19 L 359.17,139.19 L 360,139.19 L 360.83,139.19 L 361.67,139.19 L 362.5,139.19 L 363.33,139.19 L 364.17,139.19 L 365,139.19 L 365.83,139.19 L 366.67,140.03 L 367.5,140.03 L 368.33,140.03 L 369.17,140.03 L 370,140.03 L 370.83,140.03 L 371.67,140.03 L 372.5,140.03 L 373.33,140.03 L 374.17,140.03 L 375,140.03 L 375.83,140.03 L 376.67,140.03 L 377.5,140.03 L 378.33,140.03 L 379.17,140.03 L 379.17,140.86 L 380,140.86 L 380.83,140.86" fill="none" stroke="#3794ff" stroke-width="1"></path><path d="M 378.33,28.36 L 378.33,29.19 L 378.33,30.03 L 378.33,30.86 L 378.33,31.69 L 379.17,34.19 L 379.17,35.03 L 379.17,36.69 L 379.17,37.53 L 379.17,39.19 L 379.17,41.69 L 379.17,42.53 L 379.17,45.03 L 380,46.69 L 380,47.53 L 380,49.19 L 380,50.86 L 380,51.69 L 380,52.53 L 380,53.36 L 380,54.19 L 380,55.03" fill="none" stroke="#3794ff" stroke-width="1"></path><path d="M 380.83,48.36 L 380.83,49.19 L 380.83,50.86 L 380.83,51.69 L 380.83,53.36 L 380.83,55.03 L 380.83,56.69 L 380.83,57.53 L 380.83,60.03 L 380.83,60.86 L 380.83,63.36 L 380.83,65.03 L 380,65.86 L 380,67.53 L 380,68.36 L 380,70.03 L 380,70.86 L 379.17,71.69 L 379.17,72.53 L 379.17,73.36 L 379.17,74.19 L 379.17,75.03 L 378.33,75.03 L 378.33,75.86" fill="none" stroke="#3794ff" stroke-width="1"></path><path d="M 380,70.86 L 380,71.69 L 380,72.53 L 380.83,74.19 L 380.83,75.03 L 380.83,76.69 L 380.83,77.53 L 380.83,79.19 L 380.83,81.69 L 380.83,82.53 L 380.83,83.36 L 380.83,85.03 L 380.83,85.86 L 380.83,88.36 L 380,90.03 L 380,90.86 L 379.17,92.53 L 379.17,93.36 L 379.17,94.19 L 379.17,95.03 L 378.33,95.86 L 378.33,96.69" fill="none" stroke="#3794ff" stroke-width="1"></path><path d="M 380,95.86 L 380,96.69 L 380,97.53 L 380,99.19 L 380,100.86 L 380,101.69 L 380,103.36 L 380,104.19 L 380,106.69 L 380.83,107.53 L 380.83,109.19 L 380.83,110.86 L 380.83,111.69 L 380.83,113.36 L 380.83,114.19 L 380.83,115.86 L 380,116.69 L 380,117.53 L 380,118.36 L 380,119.19 L 380,120.03 L 380,120.86 L 380,121.69 L 380,122.53 L 380,123.36 L 380,124.19" fill="none" stroke="#3794ff" stroke-width="1"></path><path d="M 380.83,115.03 L 380.83,115.86 L 380.83,116.69 L 380.83,117.53 L 380.83,118.36 L 380.83,119.19 L 380.83,120.03 L 380.83,120.86 L 380.83,121.69 L 380.83,122.53 L 380.83,124.19 L 380.83,125.86 L 381.67,126.69 L 381.67,128.36 L 381.67,130.03 L 381.67,131.69 L 381.67,132.53 L 381.67,133.36 L 381.67,134.19 L 380.83,135.03 L 380.83,135.86 L 380.83,136.69 L 380.83,137.53 L 380.83,138.36 L 380.83,139.19" fill="none" stroke="#3794ff" stroke-width="1"></path><path d="M 378.33,28.36 L 378.33,27.53 L 378.33,26.69 L 378.33,25.86 L 379.17,25.86 L 379.17,26.69 L 379.17,27.53 L 379.17,28.36 L 379.17,29.19 L 379.17,30.03 L 379.17,30.86 L 379.17,31.69 L 379.17,32.53 L 379.17,33.36 L 379.17,34.19 L 379.17,35.03 L 379.17,34.19 L 379.17,33.36 L 379.17,32.53 L 378.33,31.69 L 378.33,30.86 L 378.33,30.03 L 378.33,29.19" fill="none" stroke="#3794ff" stroke-width="1"></path><path d="M 263.33,79.19 L 262.5,79.19 L 263.33,79.19 L 264.17,79.19 L 265,79.19 L 265.83,79.19 L 266.67,79.19 L 267.5,79.19 L 270,80.03 L 271.67,80.03 L 274.17,80.03 L 276.67,80.03 L 277.5,80.03 L 279.17,80.03 L 280.83,80.03" fill="none" stroke="#3794ff" stroke-width="1"></path><path d="M 272.5,80.86 L 273.33,80.86 L 274.17,80.86 L 275,80.86 L 275.83,81.69 L 276.67,81.69 L 278.33,81.69 L 279.17,81.69 L 280,81.69 L 284.17,81.69 L 285.83,81.69 L 289.17,81.69 L 290.83,81.69 L 295,81.69 L 296.67,81.69 L 298.33,81.69 L 300,81.69 L 301.67,81.69 L 305,81.69 L 307.5,81.69 L 310,80.86 L 311.67,80.86 L 312.5,80.86 L 314.17,80.86" fill="none" stroke="#3794ff" stroke-width="1"></path><path d="M 305.83,82.53 L 306.67,82.53 L 307.5,81.69 L 308.33,81.69 L 309.17,81.69 L 310.83,81.69 L 312.5,81.69 L 313.33,81.69 L 317.5,81.69 L 319.17,81.69 L 320,81.69 L 320.83,81.69 L 323.33,81.69 L 324.17,81.69 L 327.5,81.69 L 328.33,81.69 L 330.83,80.86 L 331.67,80.86 L 333.33,80.86 L 336.67,80.86 L 337.5,80.86 L 339.17,80.86 L 340,80.86 L 342.5,80.86 L 343.33,80.86 L 345,80.86 L 345.83,80.86 L 346.67,80.86" fill="none" stroke="#3794ff" stroke-width="1"></path><path d="M 337.5,81.69 L 338.33,81.69 L 339.17,81.69 L 340.83,81.69 L 342.5,80.86 L 344.17,80.86 L 345,80.86 L 347.5,80.86 L 348.33,80.86 L 350.83,80.86 L 351.67,80.86 L 354.17,80.86 L 355,80.86 L 355.83,80.86 L 358.33,80.86 L 359.17,80.86 L 360.83,80.86 L 361.67,80.86 L 364.17,80.86 L 365,80.86 L 365.83,80.86 L 366.67,80.86 L 367.5,80.86 L 368.33,80.86 L 369.17,80.86" fill="none" stroke="#3794ff" stroke-width="1"></path><path d="M 366.67,80.86 L 367.5,80.86 L 368.33,80.03 L 369.17,80.03 L 370,80.03 L 370.83,80.03 L 371.67,80.03 L 372.5,80.03 L 373.33,80.03 L 374.17,80.03 L 375,80.03" fill="none" stroke="#3794ff" stroke-width="1"></path><path d="M 320,25.03 L 319.17,25.03 L 318.33,25.03 L 318.33,25.86 L 318.33,26.69 L 319.17,26.69 L 319.17,27.53 L 319.17,28.36 L 319.17,29.19 L 319.17,30.86 L 320,32.53 L 320,33.36 L 320.83,35.03 L 320.83,35.86 L 320.83,36.69 L 321.67,39.19 L 321.67,40.03" fill="none" stroke="#3794ff" stroke-width="1"></path><path d="M 320,40.86 L 320,43.36 L 320,44.19 L 320.83,45.86 L 320.83,47.53 L 320.83,49.19 L 320.83,50.03 L 320.83,52.53 L 320.83,53.36 L 320.83,55.86 L 320.83,56.69 L 320.83,59.19 L 320.83,60.03 L 320.83,60.86 L 320.83,61.69 L 320.83,62.53 L 320.83,63.36 L 320.83,64.19 L 320.83,65.03 L 320.83,65.86 L 320.83,66.69" fill="none" stroke="#3794ff" stroke-width="1"></path><path d="M 320.83,65.86 L 320.83,66.69 L 320.83,67.53 L 320.83,68.36 L 320.83,70.03 L 320.83,70.86 L 320.83,72.53 L 320.83,74.19 L 320.83,75.86 L 320.83,77.53 L 320.83,79.19 L 320.83,80.03 L 320.83,81.69 L 320.83,82.53 L 320.83,85.03 L 320.83,85.86 L 320.83,86.69 L 320.83,87.53 L 320.83,88.36 L 320.83,89.19 L 320,89.19 L 320,90.03 L 320,90.86 L 320,90.03" fill="none" stroke="#3794ff" stroke-width="1"></path><path d="M 320.83,86.69 L 320,86.69 L 320,87.53 L 320,88.36 L 320,89.19 L 320,90.03 L 320,90.86 L 320,91.69 L 320,94.19 L 320,95.86 L 320,97.53 L 320,98.36 L 320,99.19 L 320,100.03 L 320,102.53 L 320,103.36 L 320,105.03 L 320,106.69 L 320,108.36 L 320,109.19 L 320,110.03 L 320,110.86 L 320,111.69 L 320.83,112.53 L 320.83,113.36" fill="none" stroke="#3794ff" stroke-width="1"></path><path d="M 319.17,110.86 L 319.17,111.69 L 319.17,112.53 L 319.17,113.36 L 320,114.19 L 320,115.03 L 320,115.86 L 320,118.36 L 320,119.19 L 320,120.86 L 320.83,120.86 L 320.83,121.69 L 320.83,122.53 L 320.83,123.36 L 320.83,124.19 L 320.83,125.03 L 320.83,125.86 L 320.83,126.69 L 320.83,127.53" fill="none" stroke="#3794ff" stroke-width="1"></path><path d="M 320.83,124.19 L 320.83,125.03 L 320.83,125.86 L 320.83,126.69 L 320.83,127.53 L 320.83,128.36 L 320.83,129.19 L 320.83,130.03 L 320.83,130.86 L 320.83,131.69 L 320.83,132.53 L 320.83,133.36 L 320.83,134.19 L 320.83,135.03 L 320.83,135.86 L 320,135.86 L 320,135.03 L 320,134.19 L 320,133.36 L 320,132.53 L 320,131.69 L 320,132.53" fill="none" stroke="#3794ff" stroke-width="1"></path><path d="M 261.67,32.53 L 261.67,31.69 L 262.5,31.69 L 264.17,31.69 L 264.17,30.86 L 265,30.86 L 266.67,30.03 L 267.5,29.19 L 270,28.36" fill="none" stroke="#3794ff" stroke-width="1"></path><path d="M 273.33,28.36 L 272.5,28.36 L 272.5,29.19 L 271.67,29.19 L 269.17,30.86 L 269.17,31.69 L 268.33,32.53 L 266.67,33.36 L 265.83,34.19 L 265,35.03 L 265,35.86" fill="none" stroke="#3794ff" stroke-width="1"></path><path d="M 283.33,26.69 L 282.5,26.69 L 281.67,27.53 L 280,28.36 L 279.17,29.19 L 278.33,30.03 L 276.67,31.69 L 275.83,32.53 L 273.33,33.36 L 271.67,35.03 L 270.83,35.86 L 269.17,37.53 L 268.33,38.36 L 267.5,39.19 L 265.83,40.03 L 265,40.86" fill="none" stroke="#3794ff" stroke-width="1"></path><path d="M 285.83,30.03 L 283.33,31.69 L 280.83,33.36 L 279.17,34.19 L 278.33,35.03 L 275,37.53 L 272.5,39.19 L 271.67,40.03 L 269.17,41.69 L 268.33,42.53 L 266.67,43.36 L 265,45.03 L 264.17,45.86" fill="none" stroke="#3794ff" stroke-width="1"></path><path d="M 295,29.19 L 294.17,30.03 L 292.5,30.86 L 291.67,31.69 L 290,32.53 L 288.33,34.19 L 287.5,35.03 L 285,36.69 L 283.33,38.36 L 280.83,40.03 L 278.33,42.53 L 276.67,43.36 L 275.83,44.19 L 273.33,46.69 L 272.5,47.53 L 270,49.19 L 269.17,50.03 L 268.33,50.86 L 267.5,50.86 L 267.5,51.69 L 266.67,51.69" fill="none" stroke="#3794ff" stroke-width="1"></path><path d="M 297.5,31.69 L 296.67,32.53 L 294.17,35.03 L 292.5,35.86 L 290,38.36 L 288.33,39.19 L 285,41.69 L 283.33,43.36 L 280,45.86 L 279.17,46.69 L 275.83,49.19 L 274.17,50.03 L 272.5,50.86 L 270,53.36 L 269.17,54.19 L 266.67,55.86 L 265.83,55.86 L 265,57.53 L 264.17,57.53 L 263.33,58.36" fill="none" stroke="#3794ff" stroke-width="1"></path><path d="M 306.67,30.03 L 305,30.03 L 304.17,30.86 L 302.5,32.53 L 300,34.19 L 299.17,35.03 L 297.5,36.69 L 294.17,39.19 L 292.5,40.03 L 289.17,43.36 L 285.83,45.86 L 283.33,47.53 L 280,50.03 L 278.33,50.86 L 276.67,52.53 L 273.33,55.03 L 272.5,55.86 L 269.17,58.36 L 268.33,59.19 L 265.83,60.86 L 265,61.69 L 265,62.53 L 263.33,63.36 L 262.5,64.19" fill="none" stroke="#3794ff" stroke-width="1"></path><path d="M 305,36.69 L 303.33,37.53 L 300.83,40.03 L 299.17,41.69 L 296.67,42.53 L 293.33,45.86 L 291.67,47.53 L 287.5,50.03 L 285.83,51.69 L 281.67,55.03 L 280,56.69 L 275.83,59.19 L 274.17,60.86 L 270.83,63.36 L 269.17,64.19 L 266.67,65.86 L 265,66.69 L 263.33,68.36 L 262.5,68.36 L 262.5,69.19 L 261.67,69.19" fill="none" stroke="#3794ff" stroke-width="1"></path><path d="M 317.5,33.36 L 316.67,34.19 L 315.83,35.03 L 313.33,36.69 L 310.83,39.19 L 309.17,40.03 L 307.5,41.69 L 303.33,44.19 L 301.67,45.86 L 297.5,49.19 L 293.33,52.53 L 290.83,54.19 L 286.67,57.53 L 285,59.19 L 282.5,60.03 L 279.17,63.36 L 277.5,64.19 L 274.17,66.69 L 273.33,67.53 L 271.67,69.19 L 270.83,69.19 L 270.83,70.03 L 270,70.86 L 269.17,70.86 L 269.17,71.69 L 270,71.69" fill="none" stroke="#3794ff" stroke-width="1"></path><path d="M 305,48.36 L 303.33,50.03 L 301.67,51.69 L 297.5,54.19 L 295.83,55.86 L 291.67,59.19 L 288.33,61.69 L 286.67,63.36 L 284.17,65.86 L 282.5,66.69 L 280,68.36 L 279.17,69.19 L 277.5,70.86 L 276.67,71.69 L 276.67,72.53" fill="none" stroke="#3794ff" stroke-width="1"></path><path d="M 320,45.03 L 319.17,45.86 L 317.5,45.86 L 315.83,47.53 L 314.17,48.36 L 313.33,49.19 L 310,51.69 L 308.33,52.53 L 305,55.03 L 303.33,56.69 L 300,59.19 L 298.33,60.86 L 295.83,62.53 L 293.33,65.03 L 291.67,65.86 L 288.33,68.36 L 286.67,70.86 L 284.17,72.53 L 284.17,73.36 L 283.33,74.19 L 282.5,74.19 L 282.5,75.03" fill="none" stroke="#3794ff" stroke-width="1"></path><path d="M 310.83,57.53 L 310,58.36 L 308.33,59.19 L 305.83,60.86 L 305,62.53 L 301.67,65.03 L 300.83,65.86 L 299.17,66.69 L 297.5,69.19 L 295.83,70.03 L 294.17,71.69 L 292.5,73.36 L 291.67,74.19" fill="none" stroke="#3794ff" stroke-width="1"></path><path d="M 310.83,64.19 L 309.17,65.03 L 308.33,65.86 L 305.83,68.36 L 304.17,69.19 L 302.5,70.86 L 300,72.53 L 298.33,74.19 L 298.33,75.03 L 297.5,75.03 L 297.5,75.86" fill="none" stroke="#3794ff" stroke-width="1"></path><path d="M 313.33,68.36 L 312.5,69.19 L 311.67,70.03 L 309.17,71.69 L 307.5,72.53 L 306.67,73.36 L 305,74.19 L 305,75.03 L 304.17,75.03 L 304.17,75.86" fill="none" stroke="#3794ff" stroke-width="1"></path><path d="M 319.17,70.03 L 317.5,70.86 L 315,72.53 L 313.33,74.19 L 312.5,74.19 L 311.67,75.03 L 310.83,75.86" fill="none" stroke="#3794ff" stroke-width="1"></path><path d="M 330,27.53 L 329.17,27.53 L 327.5,29.19 L 326.67,29.19 L 325.83,30.03 L 324.17,31.69 L 322.5,32.53 L 321.67,33.36 L 321.67,34.19" fill="none" stroke="#3794ff" stroke-width="1"></path><path d="M 346.67,24.19 L 345,25.03 L 344.17,25.86 L 342.5,26.69 L 340,28.36 L 338.33,29.19 L 336.67,30.03 L 334.17,31.69 L 333.33,32.53 L 330.83,34.19 L 330,35.03 L 328.33,35.86 L 327.5,36.69 L 326.67,37.53 L 325.83,38.36" fill="none" stroke="#3794ff" stroke-width="1"></path><path d="M 343.33,29.19 L 340,30.86 L 339.17,32.53 L 335.83,34.19 L 333.33,36.69 L 331.67,37.53 L 330,39.19 L 328.33,40.03 L 327.5,40.86 L 325.83,42.53 L 325.83,43.36 L 325,43.36" fill="none" stroke="#3794ff" stroke-width="1"></path><path d="M 351.67,31.69 L 350.83,32.53 L 349.17,33.36 L 345.83,35.86 L 342.5,38.36 L 340.83,39.19 L 337.5,41.69 L 335.83,43.36 L 334.17,44.19 L 330.83,46.69 L 329.17,47.53 L 327.5,50.03 L 325.83,50.86 L 324.17,51.69 L 324.17,52.53" fill="none" stroke="#3794ff" stroke-width="1"></path><path d="M 360,33.36 L 355,35.86 L 350.83,39.19 L 348.33,40.86 L 344.17,43.36 L 342.5,45.03 L 340,46.69 L 336.67,49.19 L 335,50.03 L 332.5,52.53 L 330,54.19 L 329.17,55.03 L 328.33,55.86" fill="none" stroke="#3794ff" stroke-width="1"></path><path d="M 373.33,31.69 L 371.67,33.36 L 368.33,35.86 L 365.83,36.69 L 361.67,40.03 L 359.17,41.69 L 356.67,43.36 L 351.67,46.69 L 349.17,48.36 L 344.17,51.69 L 340.83,55.03 L 338.33,56.69 L 335.83,59.19 L 334.17,60.03 L 333.33,60.86 L 330.83,62.53 L 330,63.36" fill="none" stroke="#3794ff" stroke-width="1"></path><path d="M 370.83,37.53 L 370,38.36 L 368.33,40.03 L 364.17,42.53 L 361.67,44.19 L 356.67,46.69 L 355,48.36 L 350,51.69 L 347.5,53.36 L 342.5,56.69 L 340.83,58.36 L 338.33,60.03 L 335,62.53 L 331.67,65.03 L 330,65.86 L 327.5,67.53 L 326.67,68.36 L 325.83,69.19" fill="none" stroke="#3794ff" stroke-width="1"></path><path d="M 365.83,49.19 L 363.33,50.03 L 358.33,53.36 L 355.83,55.03 L 350,58.36 L 348.33,60.03 L 345.83,60.86 L 343.33,62.53 L 341.67,64.19 L 337.5,66.69 L 335.83,67.53 L 333.33,70.03 L 331.67,71.69 L 330,71.69" fill="none" stroke="#3794ff" stroke-width="1"></path><path d="M 374.17,49.19 L 372.5,50.86 L 370.83,51.69 L 366.67,54.19 L 365,55.03 L 360.83,57.53 L 359.17,59.19 L 355,61.69 L 352.5,62.53 L 350.83,64.19 L 346.67,65.86 L 345.83,67.53 L 342.5,69.19 L 341.67,70.03 L 340,71.69 L 339.17,72.53" fill="none" stroke="#3794ff" stroke-width="1"></path><path d="M 364.17,64.19 L 362.5,65.03 L 360,65.86 L 357.5,67.53 L 354.17,70.03 L 352.5,70.86 L 350,72.53 L 347.5,74.19 L 346.67,75.03 L 345.83,75.86 L 345,75.86" fill="none" stroke="#3794ff" stroke-width="1"></path><path d="M 375.83,63.36 L 372.5,65.03 L 370.83,65.86 L 370,67.53 L 365.83,69.19 L 363.33,70.86 L 361.67,71.69 L 360,73.36 L 358.33,74.19 L 357.5,75.03 L 356.67,75.03 L 356.67,75.86" fill="none" stroke="#3794ff" stroke-width="1"></path><path d="M 375.83,67.53 L 375,68.36 L 372.5,70.03 L 370,71.69 L 369.17,72.53 L 367.5,73.36 L 365.83,75.03 L 365,75.86 L 364.17,76.69" fill="none" stroke="#3794ff" stroke-width="1"></path><path d="M 326.67,86.69 L 327.5,86.69 L 326.67,86.69 L 326.67,87.53 L 325.83,87.53 L 325.83,88.36 L 324.17,89.19 L 324.17,90.03 L 322.5,90.86 L 321.67,91.69 L 321.67,92.53 L 320,93.36" fill="none" stroke="#3794ff" stroke-width="1"></path><path d="M 332.5,88.36 L 332.5,89.19 L 331.67,90.03 L 330,90.86 L 328.33,92.53 L 327.5,93.36 L 325,94.19 L 325,95.03 L 324.17,95.86 L 322.5,96.69 L 322.5,97.53 L 321.67,97.53 L 321.67,98.36" fill="none" stroke="#3794ff" stroke-width="1"></path><path d="M 340,89.19 L 339.17,90.03 L 337.5,90.86 L 335,93.36 L 332.5,95.03 L 330,97.53 L 329.17,98.36 L 328.33,99.19 L 326.67,100.86 L 325.83,101.69 L 325,102.53" fill="none" stroke="#3794ff" stroke-width="1"></path><path d="M 352.5,90.03 L 350.83,90.86 L 349.17,91.69 L 345.83,94.19 L 344.17,95.86 L 340.83,98.36 L 338.33,99.19 L 336.67,100.86 L 333.33,103.36 L 332.5,105.03 L 329.17,106.69 L 327.5,109.19 L 326.67,109.19 L 325.83,110.03" fill="none" stroke="#3794ff" stroke-width="1"></path><path d="M 363.33,87.53 L 361.67,89.19 L 357.5,91.69 L 355.83,92.53 L 353.33,94.19 L 349.17,96.69 L 345,99.19 L 341.67,101.69 L 340,103.36 L 336.67,105.03 L 335.83,106.69 L 334.17,107.53 L 332.5,109.19 L 331.67,109.19 L 331.67,110.03" fill="none" stroke="#3794ff" stroke-width="1"></path><path d="M 361.67,93.36 L 359.17,95.03 L 354.17,97.53 L 351.67,99.19 L 347.5,102.53 L 345,104.19 L 342.5,105.86 L 339.17,108.36 L 335.83,110.86 L 334.17,111.69 L 332.5,114.19 L 331.67,115.03 L 330.83,115.86" fill="none" stroke="#3794ff" stroke-width="1"></path><path d="M 366.67,95.86 L 364.17,97.53 L 361.67,99.19 L 354.17,104.19 L 351.67,105.86 L 346.67,108.36 L 345,110.03 L 340.83,112.53 L 339.17,114.19 L 337.5,115.86 L 334.17,117.53 L 333.33,118.36 L 330.83,120.03 L 330,120.86 L 329.17,120.86 L 328.33,121.69" fill="none" stroke="#3794ff" stroke-width="1"></path><path d="M 377.5,95.86 L 375,97.53 L 371.67,99.19 L 370.83,100.03 L 366.67,102.53 L 364.17,104.19 L 362.5,105.86 L 357.5,108.36 L 355,110.03 L 350,113.36 L 348.33,114.19 L 344.17,117.53 L 340.83,119.19 L 339.17,120.86 L 337.5,121.69 L 336.67,122.53 L 335,124.19 L 334.17,125.03" fill="none" stroke="#3794ff" stroke-width="1"></path><path d="M 370,106.69 L 367.5,109.19 L 363.33,111.69 L 359.17,114.19 L 356.67,115.03 L 354.17,116.69 L 350,119.19 L 347.5,120.86 L 343.33,123.36 L 341.67,124.19 L 339.17,126.69 L 337.5,127.53 L 335,129.19 L 334.17,130.03 L 333.33,130.86" fill="none" stroke="#3794ff" stroke-width="1"></path><path d="M 365,116.69 L 361.67,118.36 L 360,120.03 L 356.67,121.69 L 354.17,123.36 L 350.83,125.03 L 350,125.86 L 346.67,128.36 L 345,129.19 L 344.17,130.03 L 342.5,131.69 L 341.67,132.53" fill="none" stroke="#3794ff" stroke-width="1"></path><path d="M 365.83,124.19 L 364.17,125.03 L 360,127.53 L 358.33,128.36 L 355.83,130.86 L 352.5,132.53 L 351.67,133.36 L 350,134.19 L 349.17,135.86" fill="none" stroke="#3794ff" stroke-width="1"></path><path d="M 379.17,129.19 L 378.33,129.19 L 378.33,130.03" fill="none" stroke="#3794ff" stroke-width="1"></path><path d="M 384.17,129.19 L 383.33,129.19 L 381.67,130.86 L 380.83,131.69" fill="none" stroke="#3794ff" stroke-width="1"></path><circle cx="461.67" cy="78.36" fill="none" stroke="#3794ff" stroke-width="1" r="53.03908464519347" d="M 408.6309153548066 78.36 a 53.03908464519347 53.03908464519347 0 1 0 106.07816929038694 0a 53.03908464519347 53.03908464519347 0 1 0 -106.07816929038694 0 Z"></circle><path d="M 488.33,47.53 L 486.67,48.36 L 485.83,49.19 L 485,50.03 L 483.33,50.86 L 482.5,51.69" fill="none" stroke="#3794ff" stroke-width="1"></path><path d="M 482.5,54.19 L 480.83,55.03 L 480.83,55.86 L 480,55.86 L 478.33,56.69 L 477.5,57.53 L 476.67,58.36 L 475.83,59.19 L 475,59.19" fill="none" stroke="#3794ff" stroke-width="1"></path><path d="M 481.67,58.36 L 480.83,59.19 L 479.17,60.86 L 477.5,61.69 L 475.83,62.53 L 475,63.36 L 474.17,64.19 L 471.67,65.86 L 469.17,67.53 L 468.33,68.36 L 466.67,69.19 L 465,70.86" fill="none" stroke="#3794ff" stroke-width="1"></path><path d="M 469.17,68.36 L 467.5,70.03 L 466.67,70.86 L 465,72.53 L 463.33,74.19 L 461.67,75.86 L 460.83,77.53 L 460,78.36 L 457.5,80.03 L 456.67,80.86 L 455,82.53 L 454.17,83.36 L 453.33,84.19 L 452.5,85.03 L 451.67,85.86 L 450.83,86.69" fill="none" stroke="#3794ff" stroke-width="1"></path><path d="M 459.17,78.36 L 458.33,80.03 L 456.67,80.03 L 455.83,80.86 L 455,81.69 L 453.33,83.36 L 452.5,84.19 L 450,85.86 L 449.17,86.69 L 447.5,88.36 L 445.83,89.19 L 445.83,90.03 L 444.17,91.69 L 442.5,92.53 L 440.83,94.19 L 440,95.03" fill="none" stroke="#3794ff" stroke-width="1"></path><path d="M 445.83,91.69 L 445,92.53 L 444.17,93.36 L 443.33,94.19 L 441.67,95.03 L 440.83,95.86 L 439.17,96.69 L 438.33,97.53 L 435.83,98.36 L 435,99.19 L 433.33,100.03 L 432.5,100.03 L 431.67,100.86 L 430.83,100.86 L 430,101.69 L 429.17,102.53 L 428.33,102.53 L 427.5,103.36 L 426.67,103.36 L 426.67,104.19 L 425.83,104.19 L 425.83,105.03 L 425.83,104.19 L 426.67,104.19 L 427.5,104.19 L 428.33,103.36" fill="none" stroke="#3794ff" stroke-width="1"></path><path d="M 429.17,103.36 L 430,102.53 L 430.83,102.53 L 431.67,101.69 L 432.5,101.69 L 433.33,101.69 L 433.33,100.86 L 434.17,100.86 L 433.33,100.86 L 432.5,101.69 L 431.67,102.53 L 430.83,103.36 L 430,103.36 L 428.33,105.03 L 426.67,105.86 L 425.83,105.86 L 425,106.69 L 425,107.53 L 424.17,107.53 L 423.33,108.36 L 422.5,109.19 L 421.67,109.19 L 421.67,110.03 L 420.83,110.03 L 420,110.86 L 420.83,110.86 L 420.83,110.03 L 421.67,110.03 L 422.5,110.03 L 421.67,110.03 L 421.67,110.86 L 420.83,110.86 L 420.83,111.69 L 420,111.69 L 420,112.53 L 419.17,112.53 L 418.33,113.36" fill="none" stroke="#3794ff" stroke-width="1"></path><path d="M 500,40.03 L 499.17,40.03 L 498.33,40.86 L 496.67,41.69 L 495.83,42.53 L 494.17,43.36 L 493.33,44.19 L 491.67,45.86 L 490,46.69 L 489.17,47.53 L 488.33,48.36 L 487.5,49.19 L 486.67,50.03" fill="none" stroke="#3794ff" stroke-width="1"></path><path d="M 495.83,44.19 L 495,45.03 L 492.5,46.69 L 491.67,47.53 L 490,48.36 L 489.17,49.19 L 487.5,50.86 L 486.67,51.69 L 485,52.53 L 482.5,54.19 L 481.67,54.19 L 480,55.86 L 478.33,56.69" fill="none" stroke="#3794ff" stroke-width="1"></path><path d="M 426.67,41.69 L 427.5,41.69 L 428.33,41.69 L 429.17,42.53 L 431.67,43.36 L 432.5,44.19 L 435,45.03 L 435.83,45.86 L 437.5,46.69 L 438.33,47.53 L 440,48.36 L 441.67,49.19 L 442.5,49.19 L 443.33,50.03" fill="none" stroke="#3794ff" stroke-width="1"></path><path d="M 435,47.53 L 435.83,48.36 L 436.67,48.36 L 437.5,50.03 L 438.33,50.03 L 439.17,50.86 L 440.83,51.69 L 441.67,52.53 L 443.33,54.19 L 444.17,55.03 L 445.83,55.86 L 446.67,56.69 L 447.5,57.53 L 449.17,58.36 L 449.17,59.19 L 450,60.03 L 450.83,60.03 L 450.83,60.86" fill="none" stroke="#3794ff" stroke-width="1"></path><path d="M 435.83,51.69 L 436.67,52.53 L 438.33,54.19 L 438.33,55.03 L 439.17,55.86 L 441.67,57.53 L 443.33,58.36 L 444.17,59.19 L 445.83,60.86 L 447.5,60.86 L 449.17,62.53 L 450,63.36 L 450.83,63.36 L 452.5,64.19 L 453.33,65.03 L 454.17,65.03" fill="none" stroke="#3794ff" stroke-width="1"></path><path d="M 451.67,65.03 L 452.5,65.86 L 453.33,66.69 L 455,67.53 L 455,68.36 L 456.67,69.19 L 457.5,70.03 L 459.17,70.86 L 460,71.69 L 460.83,72.53 L 461.67,73.36 L 462.5,73.36 L 462.5,74.19 L 463.33,74.19 L 464.17,75.03" fill="none" stroke="#3794ff" stroke-width="1"></path><path d="M 465.83,77.53 L 466.67,78.36 L 467.5,78.36 L 468.33,79.19 L 470,80.86 L 470.83,81.69 L 471.67,82.53 L 472.5,83.36 L 473.33,84.19 L 474.17,84.19 L 475,85.03 L 475.83,85.86 L 476.67,86.69 L 477.5,86.69 L 478.33,87.53 L 480,88.36 L 480.83,89.19" fill="none" stroke="#3794ff" stroke-width="1"></path><path d="M 474.17,86.69 L 475,86.69 L 475.83,87.53 L 477.5,88.36 L 479.17,90.03 L 480,90.86 L 481.67,91.69 L 482.5,92.53 L 484.17,93.36 L 484.17,94.19 L 485.83,95.03 L 486.67,95.86 L 487.5,96.69 L 488.33,97.53 L 489.17,98.36 L 490,99.19 L 490.83,100.03" fill="none" stroke="#3794ff" stroke-width="1"></path><path d="M 490,100.03 L 490.83,100.03 L 490.83,100.86 L 491.67,100.86 L 492.5,101.69 L 492.5,102.53 L 494.17,103.36 L 495,104.19 L 495.83,105.03 L 496.67,105.03 L 496.67,105.86 L 497.5,105.86 L 498.33,106.69 L 499.17,107.53 L 499.17,108.36 L 500,108.36 L 500,109.19" fill="none" stroke="#3794ff" stroke-width="1"></path><path d="M 499.17,107.53 L 500,107.53 L 500,108.36 L 500.83,109.19" fill="none" stroke="#3794ff" stroke-width="1"></path><path d="M 444.17,31.69 L 443.33,32.53 L 442.5,33.36 L 440.83,35.03 L 439.17,36.69 L 438.33,36.69 L 436.67,38.36 L 435.83,39.19 L 435,40.03 L 433.33,41.69 L 433.33,42.53 L 432.5,42.53 L 432.5,43.36" fill="none" stroke="#3794ff" stroke-width="1"></path><path d="M 453.33,31.69 L 452.5,32.53 L 451.67,33.36 L 450.83,33.36 L 450,34.19 L 449.17,35.03 L 447.5,35.86 L 445.83,36.69 L 444.17,38.36 L 443.33,39.19 L 440.83,40.86 L 440,41.69 L 439.17,42.53 L 439.17,43.36" fill="none" stroke="#3794ff" stroke-width="1"></path><path d="M 458.33,35.03 L 457.5,35.86 L 455.83,36.69 L 454.17,39.19 L 451.67,40.86 L 450.83,41.69 L 448.33,43.36 L 447.5,44.19 L 446.67,45.03 L 445,45.86 L 444.17,46.69" fill="none" stroke="#3794ff" stroke-width="1"></path><path d="M 468.33,34.19 L 467.5,35.03 L 465.83,35.86 L 463.33,38.36 L 462.5,39.19 L 460,40.86 L 459.17,41.69 L 458.33,43.36 L 455.83,45.03 L 453.33,46.69 L 452.5,47.53 L 451.67,48.36 L 450.83,49.19 L 450,50.86" fill="none" stroke="#3794ff" stroke-width="1"></path><path d="M 469.17,40.86 L 467.5,42.53 L 465.83,43.36 L 463.33,45.03 L 461.67,45.86 L 460.83,46.69 L 458.33,49.19" fill="none" stroke="#3794ff" stroke-width="1"></path><path d="M 480,40.03 L 476.67,42.53 L 475,44.19 L 471.67,45.86 L 470,47.53 L 468.33,48.36 L 465.83,50.86 L 465,51.69 L 462.5,54.19 L 460.83,55.86 L 459.17,56.69 L 459.17,57.53" fill="none" stroke="#3794ff" stroke-width="1"></path><path d="M 477.5,47.53 L 474.17,50.03 L 472.5,51.69 L 469.17,54.19 L 466.67,55.86 L 465,56.69 L 463.33,58.36 L 462.5,59.19 L 461.67,59.19 L 461.67,60.03 L 460.83,60.03" fill="none" stroke="#3794ff" stroke-width="1"></path><path d="M 484.17,46.69 L 480,48.36 L 478.33,50.03 L 475,52.53 L 471.67,54.19 L 470,55.86 L 467.5,58.36 L 465.83,59.19 L 465,60.03 L 463.33,60.86" fill="none" stroke="#3794ff" stroke-width="1"></path><path d="M 504.17,49.19 L 503.33,49.19 L 500.83,50.86 L 500,51.69 L 497.5,53.36 L 494.17,55.03 L 492.5,56.69 L 489.17,58.36 L 487.5,60.03 L 485.83,60.86 L 482.5,63.36 L 480.83,65.03 L 477.5,66.69 L 475,69.19 L 473.33,70.03 L 471.67,70.86 L 470.83,71.69 L 470,72.53" fill="none" stroke="#3794ff" stroke-width="1"></path><path d="M 497.5,60.03 L 495.83,60.86 L 493.33,62.53 L 492.5,63.36 L 489.17,65.86 L 487.5,66.69 L 485.83,67.53 L 483.33,70.03 L 482.5,70.86 L 480,72.53 L 478.33,73.36 L 477.5,74.19" fill="none" stroke="#3794ff" stroke-width="1"></path><path d="M 503.33,62.53 L 500.83,64.19 L 499.17,65.03 L 495.83,66.69 L 494.17,68.36 L 492.5,69.19 L 489.17,70.86 L 487.5,72.53 L 484.17,74.19 L 482.5,75.03 L 480,76.69 L 479.17,77.53 L 478.33,77.53 L 476.67,78.36 L 476.67,79.19" fill="none" stroke="#3794ff" stroke-width="1"></path><path d="M 500,70.86 L 498.33,71.69 L 495,74.19 L 491.67,75.86 L 490,76.69 L 487.5,78.36 L 486.67,79.19 L 485,80.86 L 482.5,81.69 L 481.67,82.53 L 480.83,84.19 L 480,84.19" fill="none" stroke="#3794ff" stroke-width="1"></path><path d="M 502.5,74.19 L 499.17,75.86 L 497.5,76.69 L 495,78.36 L 492.5,80.03 L 490.83,80.86 L 490,81.69 L 487.5,83.36 L 486.67,83.36 L 485.83,84.19 L 485,84.19 L 485,85.03" fill="none" stroke="#3794ff" stroke-width="1"></path><path d="M 507.5,76.69 L 504.17,78.36 L 502.5,79.19 L 499.17,81.69 L 498.33,82.53 L 495,84.19 L 494.17,85.03 L 491.67,86.69 L 490.83,87.53 L 490,88.36 L 489.17,89.19 L 488.33,90.03 L 487.5,90.03" fill="none" stroke="#3794ff" stroke-width="1"></path><path d="M 504.17,85.86 L 502.5,86.69 L 501.67,87.53 L 499.17,89.19 L 498.33,90.03 L 496.67,91.69 L 495.83,91.69 L 494.17,93.36 L 493.33,94.19" fill="none" stroke="#3794ff" stroke-width="1"></path><path d="M 509.17,89.19 L 507.5,90.03 L 505.83,90.86 L 504.17,92.53 L 503.33,92.53 L 502.5,93.36 L 501.67,94.19 L 500.83,95.03 L 500,95.03 L 500,95.86" fill="none" stroke="#3794ff" stroke-width="1"></path><path d="M 510.83,90.86 L 509.17,92.53 L 508.33,92.53 L 506.67,94.19 L 505.83,94.19 L 505,95.03 L 502.5,95.86 L 500.83,97.53 L 500,97.53 L 499.17,98.36 L 498.33,99.19" fill="none" stroke="#3794ff" stroke-width="1"></path><path d="M 465,82.53 L 464.17,82.53 L 462.5,84.19 L 461.67,84.19 L 459.17,86.69 L 458.33,87.53 L 455.83,89.19 L 453.33,90.03 L 451.67,91.69 L 448.33,94.19 L 445.83,95.03 L 442.5,97.53 L 439.17,99.19 L 437.5,100.03 L 434.17,102.53 L 433.33,103.36 L 431.67,103.36 L 430,105.03 L 429.17,105.86 L 428.33,105.86 L 427.5,105.86" fill="none" stroke="#3794ff" stroke-width="1"></path><path d="M 461.67,91.69 L 460.83,92.53 L 457.5,94.19 L 454.17,96.69 L 452.5,97.53 L 448.33,100.03 L 446.67,101.69 L 442.5,104.19 L 440.83,105.03 L 437.5,107.53 L 435,109.19 L 433.33,110.03 L 432.5,110.03 L 431.67,110.86 L 431.67,111.69 L 430.83,111.69 L 431.67,111.69" fill="none" stroke="#3794ff" stroke-width="1"></path><path d="M 463.33,98.36 L 461.67,99.19 L 460,100.86 L 455.83,103.36 L 453.33,104.19 L 450,106.69 L 447.5,108.36 L 445.83,109.19 L 441.67,111.69 L 438.33,113.36 L 437.5,115.03 L 435,115.86 L 433.33,116.69 L 432.5,117.53 L 431.67,118.36 L 430.83,118.36 L 430.83,119.19" fill="none" stroke="#3794ff" stroke-width="1"></path><path d="M 478.33,97.53 L 475,99.19 L 473.33,100.03 L 471.67,100.86 L 467.5,103.36 L 465.83,104.19 L 461.67,106.69 L 460,107.53 L 455.83,110.03 L 454.17,110.86 L 452.5,111.69 L 449.17,114.19 L 447.5,115.03 L 445.83,116.69 L 443.33,117.53 L 442.5,118.36 L 441.67,119.19" fill="none" stroke="#3794ff" stroke-width="1"></path><path d="M 485,100.03 L 484.17,100.86 L 480.83,101.69 L 477.5,103.36 L 475.83,105.03 L 473.33,105.86 L 469.17,108.36 L 466.67,109.19 L 465,110.03 L 462.5,111.69 L 460.83,112.53 L 456.67,115.03 L 455,115.86 L 451.67,117.53 L 450.83,118.36 L 448.33,120.03 L 446.67,120.86 L 445.83,121.69" fill="none" stroke="#3794ff" stroke-width="1"></path><path d="M 478.33,111.69 L 475,113.36 L 473.33,114.19 L 471.67,115.03 L 467.5,116.69 L 465.83,117.53 L 462.5,119.19 L 460.83,120.03 L 458.33,121.69 L 456.67,123.36 L 455.83,124.19 L 455,124.19 L 454.17,125.03" fill="none" stroke="#3794ff" stroke-width="1"></path><path d="M 487.5,112.53 L 486.67,113.36 L 485.83,114.19 L 484.17,115.03 L 482.5,116.69 L 480.83,117.53 L 478.33,119.19 L 477.5,120.03 L 475,120.86 L 474.17,121.69 L 472.5,122.53 L 470.83,124.19 L 469.17,125.03 L 467.5,125.86" fill="none" stroke="#3794ff" stroke-width="1"></path><path d="M 495,112.53 L 494.17,112.53 L 493.33,113.36 L 491.67,114.19 L 490,115.86 L 486.67,117.53 L 485,118.36 L 482.5,120.03 L 480.83,120.86 L 477.5,121.69 L 476.67,122.53 L 475,123.36 L 473.33,124.19 L 471.67,125.03 L 470.83,125.03" fill="none" stroke="#3794ff" stroke-width="1"></path><rect x="243.18" y="26.69" fill="rgba(240, 240,240, 0.4)" stroke="#BBB" stroke-width="1"></rect></svg>