<svg id="svg" xmlns="http://www.w3.org/2000/svg" viewBox="3.5542678833007812 2.7542686462402344 509.7757263183594 251.43572998046875" height="251.43572998046875"><circle cx="60.83" cy="60.03" fill="none" stroke="#3794ff" stroke-width="2" r="47.27572844494308" d="M 13.554271555056921 60.03 a 47.27572844494308 47.27572844494308 0 1 0 94.55145688988615 0a 47.27572844494308 47.27572844494308 0 1 0 -94.55145688988615 0 Z"></circle><path d="M 60.83,15.03 L 60.83,15.86 L 60.83,16.69 L 61.67,16.69 L 61.67,17.53 L 61.67,18.36 L 61.67,19.19 L 61.67,20.86 L 61.67,21.69 L 61.67,22.53 L 61.67,23.36 L 61.67,24.19" fill="none" stroke="#3794ff" stroke-width="2"></path><path d="M 60.83,31.69 L 60.83,32.53 L 60.83,33.36 L 61.67,34.19 L 61.67,35.03 L 61.67,35.86 L 61.67,36.69 L 61.67,37.53 L 61.67,38.36 L 61.67,39.19 L 62.5,40.03 L 62.5,40.86" fill="none" stroke="#3794ff" stroke-width="2"></path><path d="M 62.5,42.53 L 62.5,43.36 L 62.5,44.19 L 62.5,45.03 L 62.5,45.86 L 62.5,46.69 L 62.5,47.53 L 62.5,48.36 L 62.5,49.19 L 62.5,50.03 L 62.5,50.86 L 62.5,51.69 L 62.5,50.86" fill="none" stroke="#3794ff" stroke-width="2"></path><path d="M 60.83,35.86 L 60.83,34.19 L 60.83,33.36 L 60.83,32.53 L 60.83,31.69 L 60.83,30.86 L 60.83,30.03 L 60.83,29.19 L 60.83,28.36 L 60.83,27.53 L 60.83,26.69 L 60.83,25.86 L 60.83,25.03 L 60.83,25.86 L 60.83,26.69 L 60.83,27.53 L 60.83,28.36 L 60.83,29.19 L 60.83,30.03 L 60.83,30.86 L 60.83,31.69 L 60.83,32.53 L 60.83,33.36 L 60.83,34.19 L 60.83,35.03 L 60.83,35.86 L 60.83,37.53 L 60.83,38.36 L 60.83,39.19 L 60.83,40.03 L 60.83,40.86 L 60.83,41.69 L 60.83,42.53 L 60.83,43.36 L 60.83,44.19 L 60.83,45.03 L 60.83,45.86 L 60.83,46.69 L 60.83,47.53 L 60.83,48.36 L 60.83,49.19 L 60.83,50.03 L 60.83,50.86 L 60.83,51.69 L 61.67,51.69 L 61.67,50.86 L 61.67,50.03 L 61.67,49.19 L 61.67,48.36 L 61.67,49.19 L 61.67,50.03 L 61.67,50.86 L 61.67,51.69 L 61.67,52.53 L 60.83,52.53 L 60.83,53.36 L 60.83,52.53 L 61.67,52.53 L 61.67,51.69 L 61.67,50.86 L 61.67,50.03 L 61.67,49.19 L 60.83,50.03" fill="none" stroke="#3794ff" stroke-width="2"></path><path d="M 61.67,60.03 L 61.67,60.86 L 61.67,60.03 L 61.67,59.19 L 61.67,58.36 L 61.67,57.53 L 61.67,56.69 L 61.67,55.86 L 61.67,55.03 L 60.83,55.03 L 60.83,55.86 L 60.83,56.69 L 60.83,57.53 L 60.83,56.69 L 60.83,55.86 L 60.83,55.03 L 60,55.03 L 60,55.86 L 60,56.69" fill="none" stroke="#3794ff" stroke-width="2"></path><path d="M 64.17,60.03 L 65,60.03 L 65.83,60.03 L 66.67,60.03 L 66.67,59.19 L 67.5,59.19 L 68.33,59.19 L 70,58.36 L 70.83,58.36 L 72.5,57.53 L 74.17,57.53 L 75,57.53 L 75.83,56.69 L 76.67,56.69 L 77.5,56.69 L 78.33,56.69 L 79.17,56.69 L 80,55.86 L 81.67,55.86 L 82.5,55.86 L 83.33,55.03 L 84.17,55.03 L 85,55.03 L 85.83,55.03 L 86.67,55.03 L 87.5,54.19 L 88.33,54.19 L 89.17,54.19" fill="none" stroke="#3794ff" stroke-width="2"></path><path d="M 77.5,56.69 L 78.33,56.69 L 78.33,55.86 L 79.17,55.86 L 80,55.86 L 80.83,55.86 L 81.67,55.03 L 83.33,55.03 L 84.17,54.19 L 85,54.19 L 86.67,53.36 L 87.5,53.36 L 89.17,52.53 L 90,52.53 L 90.83,51.69 L 91.67,51.69 L 92.5,51.69 L 93.33,51.69 L 94.17,50.86 L 95,50.86 L 95.83,50.86 L 96.67,50.03 L 97.5,50.03 L 97.5,49.19 L 98.33,49.19 L 98.33,50.03 L 97.5,50.03 L 96.67,50.03 L 96.67,50.86 L 95.83,50.86 L 95,50.86 L 95,51.69 L 94.17,51.69 L 93.33,51.69 L 92.5,52.53 L 91.67,52.53 L 90.83,52.53 L 90.83,53.36 L 90,53.36 L 89.17,53.36 L 90,53.36 L 90,52.53 L 90.83,52.53 L 91.67,52.53 L 92.5,51.69 L 93.33,51.69 L 94.17,51.69 L 95,50.86 L 96.67,50.86 L 96.67,50.03 L 97.5,50.03 L 98.33,50.03 L 100,49.19 L 100.83,49.19 L 101.67,49.19 L 101.67,48.36 L 102.5,48.36 L 103.33,48.36 L 104.17,48.36 L 105,48.36 L 105,47.53 L 105.83,47.53" fill="none" stroke="#3794ff" stroke-width="2"></path><path d="M 16.67,43.36 L 17.5,43.36 L 17.5,44.19 L 18.33,44.19 L 19.17,44.19 L 20.83,44.19 L 21.67,44.19 L 22.5,45.03 L 23.33,45.03 L 24.17,45.03 L 25,45.03 L 25.83,45.03 L 26.67,45.03 L 27.5,45.86 L 28.33,45.86 L 29.17,45.86 L 30,45.86 L 30,46.69 L 30.83,46.69 L 31.67,46.69 L 32.5,46.69 L 33.33,47.53" fill="none" stroke="#3794ff" stroke-width="2"></path><path d="M 31.67,47.53 L 32.5,47.53 L 33.33,47.53 L 34.17,47.53 L 35,47.53 L 35.83,47.53 L 36.67,48.36 L 37.5,48.36 L 38.33,48.36 L 39.17,48.36 L 39.17,49.19 L 40,49.19 L 40.83,49.19 L 41.67,49.19 L 42.5,50.03 L 43.33,50.03 L 44.17,50.03 L 45,50.03 L 45.83,50.86 L 46.67,50.86 L 47.5,50.86 L 46.67,50.86 L 45.83,50.03 L 45,50.03 L 44.17,50.03 L 43.33,50.03 L 43.33,49.19 L 43.33,50.03 L 44.17,50.03 L 45,50.03 L 45.83,50.03 L 45.83,50.86 L 46.67,50.86 L 47.5,50.86 L 48.33,50.86 L 48.33,51.69 L 49.17,51.69 L 50,51.69 L 50.83,52.53 L 51.67,52.53 L 52.5,52.53 L 52.5,53.36 L 53.33,53.36 L 54.17,53.36 L 55,53.36 L 55.83,53.36 L 55.83,54.19 L 56.67,54.19 L 57.5,54.19 L 58.33,54.19 L 59.17,54.19 L 59.17,55.03 L 58.33,55.03 L 57.5,55.03 L 56.67,55.03 L 57.5,55.03 L 58.33,55.03 L 59.17,55.86 L 60,55.86 L 60.83,55.86" fill="none" stroke="#3794ff" stroke-width="2"></path><path d="M 60,56.69 L 60,57.53 L 59.17,57.53 L 59.17,58.36 L 58.33,59.19 L 57.5,60.03 L 57.5,60.86 L 56.67,60.86 L 56.67,61.69 L 55.83,62.53 L 55,63.36 L 55,64.19" fill="none" stroke="#3794ff" stroke-width="2"></path><path d="M 55.83,65.03 L 55,65.86 L 55,66.69 L 53.33,69.19 L 52.5,70.03 L 52.5,70.86 L 50.83,72.53 L 50.83,73.36 L 49.17,75.03 L 49.17,75.86 L 47.5,77.53 L 47.5,78.36 L 46.67,79.19 L 45.83,80.86 L 45,81.69 L 45,82.53 L 44.17,83.36 L 44.17,84.19 L 43.33,85.03 L 42.5,85.86 L 42.5,85.03" fill="none" stroke="#3794ff" stroke-width="2"></path><path d="M 53.33,65.86 L 52.5,66.69 L 52.5,67.53 L 50.83,70.03 L 49.17,71.69 L 49.17,72.53 L 48.33,73.36 L 46.67,75.86 L 45.83,77.53 L 45,78.36 L 44.17,80.03 L 43.33,80.86 L 42.5,82.53 L 41.67,83.36 L 40.83,85.03 L 40,85.86 L 39.17,87.53 L 38.33,88.36 L 38.33,89.19 L 37.5,90.03 L 37.5,90.86 L 36.67,90.86 L 36.67,91.69 L 35.83,91.69 L 35.83,92.53" fill="none" stroke="#3794ff" stroke-width="2"></path><path d="M 45,80.03 L 45,80.86 L 44.17,80.86 L 44.17,81.69 L 43.33,83.36 L 42.5,83.36 L 42.5,84.19 L 40.83,85.86 L 40,86.69 L 40,87.53 L 39.17,88.36 L 38.33,89.19 L 37.5,90.03 L 37.5,90.86 L 36.67,90.86 L 36.67,91.69 L 35.83,92.53" fill="none" stroke="#3794ff" stroke-width="2"></path><path d="M 60,60.86 L 60.83,61.69 L 62.5,63.36 L 63.33,64.19 L 63.33,65.03 L 64.17,65.86 L 65,66.69 L 66.67,68.36 L 67.5,70.03 L 68.33,70.86 L 69.17,72.53 L 70,73.36 L 70.83,73.36 L 71.67,75.03 L 72.5,75.86 L 72.5,76.69 L 73.33,76.69 L 73.33,77.53 L 74.17,77.53 L 74.17,78.36 L 75,78.36 L 75,79.19 L 74.17,79.19 L 74.17,78.36" fill="none" stroke="#3794ff" stroke-width="2"></path><path d="M 63.33,61.69 L 64.17,61.69 L 65,62.53 L 65,63.36 L 65.83,64.19 L 67.5,65.86 L 68.33,66.69 L 69.17,67.53 L 70,68.36 L 70.83,70.03 L 71.67,70.86 L 71.67,71.69 L 73.33,73.36 L 74.17,74.19 L 75,75.86 L 75.83,77.53 L 76.67,78.36 L 77.5,80.03 L 78.33,81.69 L 79.17,81.69 L 79.17,82.53 L 80,83.36 L 80,84.19 L 80.83,84.19 L 80.83,85.03 L 81.67,85.86 L 81.67,86.69 L 81.67,85.86 L 80.83,84.19 L 80,83.36 L 78.33,81.69 L 77.5,80.86 L 77.5,80.03" fill="none" stroke="#3794ff" stroke-width="2"></path><path d="M 73.33,74.19 L 72.5,74.19 L 73.33,75.03 L 73.33,75.86 L 74.17,77.53 L 75,77.53 L 75,78.36 L 75.83,79.19 L 75.83,80.03 L 77.5,81.69 L 78.33,83.36 L 78.33,84.19 L 80,85.86 L 80.83,86.69 L 80.83,87.53 L 81.67,88.36 L 82.5,89.19 L 83.33,90.03 L 84.17,90.86 L 85,91.69 L 85,92.53 L 85.83,93.36 L 86.67,94.19 L 86.67,95.03 L 87.5,95.03 L 87.5,95.86 L 88.33,95.86 L 88.33,96.69 L 88.33,95.86 L 87.5,95.86 L 87.5,95.03 L 86.67,95.03 L 86.67,94.19 L 85.83,94.19 L 85,92.53 L 84.17,91.69 L 84.17,90.86 L 83.33,90.86 L 82.5,90.03 L 82.5,89.19 L 81.67,89.19 L 81.67,88.36 L 80.83,88.36 L 80.83,87.53 L 81.67,88.36 L 81.67,89.19 L 82.5,89.19 L 82.5,90.03 L 83.33,90.86 L 84.17,91.69 L 85,91.69 L 85,92.53 L 85.83,93.36 L 85.83,94.19 L 86.67,94.19 L 86.67,95.03 L 87.5,95.03" fill="none" stroke="#3794ff" stroke-width="2"></path><path d="M 33.33,94.19 L 33.33,93.36 L 34.17,93.36 L 34.17,92.53 L 35,92.53 L 35,91.69 L 35.83,91.69 L 35.83,90.86 L 36.67,90.86 L 36.67,90.03 L 37.5,90.03 L 37.5,89.19 L 38.33,89.19 L 38.33,88.36 L 38.33,89.19 L 37.5,89.19 L 36.67,90.03 L 35.83,90.86 L 35.83,91.69 L 35,91.69 L 35,92.53 L 34.17,92.53 L 34.17,93.36 L 33.33,93.36 L 33.33,94.19 L 32.5,94.19 L 32.5,95.03 L 33.33,95.03 L 33.33,94.19 L 34.17,94.19 L 34.17,93.36 L 35,93.36 L 35,92.53 L 35.83,91.69 L 36.67,90.86 L 37.5,90.86 L 37.5,90.03 L 38.33,90.03 L 38.33,90.86 L 37.5,90.86 L 37.5,91.69 L 36.67,91.69 L 36.67,92.53 L 36.67,93.36 L 35.83,93.36 L 35.83,94.19 L 35,94.19 L 35,95.03 L 35,94.19" fill="none" stroke="#3794ff" stroke-width="2"></path><path d="M 59.17,58.36 L 58.33,58.36 L 57.5,58.36 L 56.67,58.36 L 56.67,59.19 L 57.5,59.19 L 58.33,59.19 L 59.17,59.19 L 59.17,58.36 L 59.17,57.53 L 58.33,57.53 L 57.5,57.53 L 57.5,58.36 L 56.67,58.36 L 56.67,59.19 L 56.67,60.03 L 57.5,60.86 L 57.5,61.69 L 58.33,61.69 L 59.17,61.69 L 60,61.69 L 60.83,60.86 L 61.67,60.86 L 61.67,60.03 L 61.67,59.19 L 61.67,58.36 L 60.83,57.53 L 60,57.53 L 59.17,57.53 L 58.33,58.36 L 57.5,59.19 L 57.5,60.03 L 56.67,60.03 L 56.67,60.86 L 56.67,61.69 L 57.5,61.69 L 57.5,62.53 L 58.33,62.53 L 59.17,62.53 L 59.17,63.36 L 60,63.36 L 60.83,63.36 L 60.83,62.53 L 61.67,62.53 L 61.67,61.69 L 61.67,60.86 L 60.83,60.86 L 60.83,60.03 L 60,60.03 L 60,59.19 L 59.17,59.19 L 58.33,59.19 L 57.5,60.03 L 56.67,60.03 L 56.67,60.86 L 55.83,60.86 L 55.83,61.69 L 55.83,62.53 L 56.67,62.53 L 56.67,63.36 L 57.5,63.36 L 58.33,63.36 L 59.17,63.36 L 60,62.53 L 60.83,62.53 L 60.83,61.69 L 61.67,61.69 L 61.67,60.86 L 62.5,60.86 L 62.5,60.03 L 63.33,60.03 L 63.33,59.19 L 63.33,58.36 L 63.33,57.53 L 62.5,57.53 L 61.67,57.53 L 61.67,56.69 L 60.83,56.69 L 60,56.69 L 59.17,56.69 L 58.33,56.69 L 57.5,56.69 L 57.5,57.53 L 56.67,57.53 L 55.83,57.53 L 55.83,58.36 L 55,58.36 L 55,59.19 L 55,60.03 L 55.83,60.03 L 56.67,60.86 L 57.5,60.86 L 58.33,60.86 L 59.17,61.69 L 60,61.69 L 60.83,60.86 L 61.67,60.86 L 62.5,60.86 L 62.5,60.03 L 63.33,60.03 L 63.33,59.19 L 62.5,59.19 L 62.5,58.36 L 61.67,58.36 L 61.67,57.53 L 60.83,57.53 L 60,57.53 L 59.17,57.53 L 59.17,58.36 L 58.33,58.36 L 58.33,59.19 L 58.33,60.03 L 59.17,60.03" fill="none" stroke="#3794ff" stroke-width="2"></path><path d="M 171.67,58.36 L 170.83,58.36 L 170,58.36 L 170.83,58.36 L 172.5,58.36 L 173.33,58.36 L 174.17,57.53 L 175,57.53 L 175.83,57.53 L 178.33,57.53 L 179.17,56.69 L 180,56.69 L 182.5,56.69 L 183.33,56.69 L 185,55.86 L 185.83,55.86 L 186.67,55.86 L 187.5,55.86 L 188.33,55.86 L 190,55.03 L 190.83,55.03 L 191.67,55.03 L 192.5,55.03 L 193.33,55.03 L 194.17,55.03 L 195,55.03 L 195,54.19 L 195.83,54.19 L 196.67,54.19" fill="none" stroke="#3794ff" stroke-width="2"></path><path d="M 181.67,65.03 L 182.5,65.03 L 182.5,65.86 L 181.67,65.86 L 181.67,66.69 L 181.67,67.53 L 181.67,68.36 L 180.83,69.19 L 180.83,70.03 L 181.67,70.03 L 181.67,69.19 L 182.5,69.19 L 183.33,69.19 L 184.17,69.19 L 185,69.19 L 185.83,69.19 L 186.67,69.19 L 187.5,69.19 L 187.5,70.03 L 188.33,70.03 L 189.17,70.03 L 189.17,70.86 L 190,70.86 L 190.83,70.86 L 190.83,71.69 L 190.83,72.53 L 190.83,73.36 L 190.83,74.19 L 190,74.19 L 190,75.03 L 189.17,75.03 L 188.33,75.03 L 188.33,75.86 L 187.5,75.86 L 186.67,76.69 L 185.83,76.69 L 185,76.69 L 184.17,77.53 L 183.33,77.53 L 182.5,77.53 L 181.67,77.53 L 180.83,77.53 L 180,77.53 L 179.17,77.53" fill="none" stroke="#3794ff" stroke-width="2"></path><path d="M 182.5,65.03 L 183.33,65.03 L 183.33,64.19 L 184.17,64.19 L 185,64.19 L 185.83,63.36 L 186.67,63.36 L 187.5,63.36 L 187.5,62.53 L 188.33,62.53 L 189.17,62.53 L 190,62.53 L 190.83,61.69 L 191.67,61.69" fill="none" stroke="#3794ff" stroke-width="2"></path><path d="M 20.83,49.19 L 20.83,50.03 L 20.83,50.86 L 20,51.69 L 19.17,51.69 L 19.17,52.53 L 18.33,53.36 L 18.33,54.19 L 17.5,55.03" fill="none" stroke="#f14c4c" stroke-width="2"></path><path d="M 25.83,48.36 L 25,48.36 L 25,49.19 L 24.17,50.03 L 23.33,50.86 L 22.5,51.69 L 21.67,52.53 L 20.83,53.36 L 20.83,54.19 L 19.17,55.86 L 18.33,56.69 L 18.33,57.53 L 17.5,58.36 L 16.67,58.36 L 16.67,59.19" fill="none" stroke="#f14c4c" stroke-width="2"></path><path d="M 25,51.69 L 24.17,52.53 L 23.33,54.19 L 22.5,54.19 L 21.67,55.86 L 20.83,56.69 L 20.83,57.53 L 19.17,59.19 L 18.33,60.03 L 17.5,60.86 L 16.67,61.69 L 16.67,62.53 L 15.83,62.53 L 15.83,63.36" fill="none" stroke="#f14c4c" stroke-width="2"></path><path d="M 30,50.86 L 30,51.69 L 29.17,52.53 L 28.33,53.36 L 27.5,55.03 L 26.67,55.86 L 25,57.53 L 23.33,60.03 L 22.5,60.86 L 20.83,62.53 L 20,63.36 L 19.17,65.03 L 18.33,66.69 L 17.5,66.69 L 17.5,67.53 L 16.67,68.36 L 16.67,69.19" fill="none" stroke="#f14c4c" stroke-width="2"></path><path d="M 32.5,53.36 L 33.33,52.53 L 34.17,51.69 L 33.33,52.53 L 33.33,53.36 L 32.5,54.19 L 31.67,54.19 L 30.83,55.86 L 30,56.69 L 28.33,58.36 L 27.5,60.03 L 25.83,61.69 L 25.83,62.53 L 24.17,64.19 L 23.33,65.03 L 22.5,65.86 L 21.67,66.69 L 21.67,67.53 L 20.83,68.36 L 20.83,69.19 L 20,69.19 L 20,70.03" fill="none" stroke="#f14c4c" stroke-width="2"></path><path d="M 28.33,61.69 L 26.67,64.19 L 25,66.69 L 24.17,67.53 L 22.5,69.19 L 21.67,70.86 L 20.83,71.69 L 20,73.36 L 19.17,74.19 L 19.17,75.03 L 18.33,75.86 L 18.33,76.69 L 17.5,77.53 L 18.33,77.53" fill="none" stroke="#f14c4c" stroke-width="2"></path><path d="M 37.5,54.19 L 37.5,55.03 L 36.67,55.86 L 35.83,56.69 L 35,57.53 L 33.33,60.03 L 32.5,61.69 L 30.83,64.19 L 28.33,66.69 L 27.5,68.36 L 25.83,70.86 L 25,71.69 L 24.17,74.19 L 23.33,75.03 L 21.67,77.53 L 21.67,78.36 L 20.83,79.19 L 20.83,80.03 L 20.83,80.86 L 20,80.86 L 20.83,80.86" fill="none" stroke="#f14c4c" stroke-width="2"></path><path d="M 43.33,53.36 L 43.33,54.19 L 42.5,55.03 L 42.5,55.86 L 40.83,57.53 L 40.83,58.36 L 38.33,60.86 L 37.5,61.69 L 36.67,63.36 L 35,65.86 L 34.17,67.53 L 31.67,70.03 L 30.83,70.86 L 29.17,73.36 L 28.33,75.03 L 27.5,75.86 L 27.5,76.69 L 26.67,78.36 L 25.83,78.36 L 25.83,79.19 L 25.83,80.03 L 25,80.03 L 25,80.86" fill="none" stroke="#f14c4c" stroke-width="2"></path><path d="M 44.17,57.53 L 44.17,56.69 L 45,56.69 L 44.17,57.53 L 43.33,58.36 L 42.5,60.03 L 41.67,60.86 L 40.83,61.69 L 39.17,64.19 L 38.33,65.86 L 35.83,68.36 L 35,70.03 L 32.5,72.53 L 31.67,74.19 L 30.83,75.03 L 29.17,77.53 L 27.5,80.03 L 26.67,80.86 L 25.83,82.53 L 25.83,83.36 L 25,84.19 L 25,85.03 L 24.17,85.03 L 24.17,85.86 L 25,85.86 L 25,85.03 L 25.83,84.19 L 27.5,82.53 L 28.33,81.69 L 30,79.19 L 30.83,78.36 L 32.5,75.86 L 34.17,74.19 L 35,73.36 L 36.67,70.86 L 38.33,69.19 L 40,66.69 L 41.67,65.03 L 42.5,64.19 L 44.17,61.69 L 45,61.69 L 45.83,60.86 L 46.67,60.03 L 46.67,59.19 L 47.5,59.19 L 47.5,58.36 L 47.5,59.19 L 46.67,60.03 L 45,60.86 L 45,61.69 L 43.33,64.19 L 42.5,65.03 L 40,67.53 L 39.17,69.19 L 37.5,70.86 L 35,73.36 L 33.33,75.86 L 32.5,77.53 L 30.83,79.19 L 29.17,81.69 L 28.33,82.53 L 27.5,83.36 L 26.67,84.19 L 26.67,85.03 L 25.83,85.86 L 25.83,86.69 L 25.83,85.86 L 26.67,85.03 L 27.5,85.03 L 28.33,84.19 L 30,82.53 L 30,81.69 L 31.67,80.86 L 33.33,78.36 L 35,75.03 L 36.67,74.19 L 38.33,71.69 L 39.17,70.86 L 41.67,68.36 L 42.5,66.69 L 43.33,65.86 L 44.17,64.19 L 45,63.36 L 46.67,61.69 L 46.67,60.86 L 47.5,60.86 L 46.67,61.69 L 45.83,62.53 L 45,63.36 L 44.17,64.19 L 43.33,65.86 L 42.5,68.36 L 40.83,69.19 L 39.17,71.69 L 37.5,74.19 L 36.67,75.86 L 35,77.53 L 34.17,79.19 L 33.33,80.03 L 32.5,81.69 L 31.67,82.53 L 30.83,84.19 L 30.83,85.03 L 30,85.03 L 30,85.86 L 29.17,86.69 L 30,86.69 L 30,85.86 L 30.83,85.03 L 32.5,83.36 L 32.5,82.53 L 34.17,80.03 L 35.83,78.36 L 37.5,76.69 L 39.17,74.19 L 40,72.53 L 41.67,71.69 L 43.33,69.19 L 44.17,67.53 L 46.67,65.86 L 47.5,65.03 L 48.33,63.36 L 49.17,62.53 L 50,61.69 L 50,60.86 L 50.83,60.86 L 50,61.69 L 49.17,62.53 L 48.33,63.36 L 47.5,64.19 L 45.83,65.86 L 44.17,68.36 L 43.33,69.19 L 41.67,71.69 L 40.83,73.36 L 39.17,74.19 L 37.5,76.69 L 36.67,78.36 L 35,80.86 L 33.33,82.53 L 32.5,84.19 L 31.67,85.03 L 30.83,86.69 L 30,87.53 L 29.17,88.36 L 29.17,89.19 L 28.33,89.19 L 28.33,90.03 L 29.17,90.03 L 30.83,88.36 L 30.83,87.53 L 31.67,86.69 L 33.33,85.03 L 34.17,83.36 L 35.83,80.86 L 37.5,78.36 L 38.33,77.53" fill="none" stroke="#f14c4c" stroke-width="2"></path><path d="M 186.67,35.86 L 186.67,35.03 L 186.67,35.86 L 186.67,36.69 L 186.67,37.53 L 185.83,38.36 L 185.83,39.19 L 185.83,40.03 L 185.83,40.86 L 185,40.86 L 185,41.69 L 185,42.53 L 185,43.36 L 185,44.19 L 185,45.03 L 185,45.86 L 185,46.69" fill="none" stroke="#f14c4c" stroke-width="2"></path><path d="M 40,200.03 L 40.83,200.03 L 41.67,200.03 L 42.5,200.03 L 43.33,200.03 L 44.17,200.03 L 45,200.03 L 45.83,200.03 L 46.67,200.03 L 47.5,200.03 L 48.33,200.03 L 49.17,200.03 L 50,200.03 L 51.67,200.03 L 52.5,200.03 L 55,199.19 L 55.83,199.19 L 56.67,199.19 L 57.5,199.19 L 58.33,199.19 L 60,199.19 L 60.83,199.19 L 61.67,199.19 L 62.5,199.19 L 64.17,200.03 L 65.83,200.03 L 67.5,200.03 L 68.33,200.03 L 70,200.03 L 70.83,200.03 L 72.5,200.03 L 73.33,200.03 L 74.17,200.03 L 76.67,200.03 L 77.5,200.03 L 79.17,200.03 L 81.67,200.86 L 82.5,200.86 L 83.33,200.86 L 84.17,200.86 L 85,200.86 L 85.83,200.86 L 86.67,200.86 L 88.33,200.86 L 89.17,201.69 L 90,201.69 L 90.83,201.69 L 91.67,201.69 L 92.5,201.69 L 94.17,201.69 L 95,201.69 L 95.83,201.69 L 96.67,201.69 L 98.33,201.69 L 99.17,201.69 L 100,201.69 L 100.83,201.69 L 101.67,201.69 L 102.5,201.69 L 103.33,201.69 L 104.17,201.69 L 105,201.69 L 105,200.86 L 106.67,200.86 L 107.5,200.86 L 108.33,200.86 L 109.17,200.86 L 110,200.86 L 110.83,200.86 L 111.67,200.86 L 112.5,200.86 L 113.33,200.86 L 114.17,200.86 L 115,200.86 L 115.83,200.86 L 116.67,200.86 L 117.5,200.86 L 118.33,200.86 L 119.17,200.86 L 120,200.86 L 120.83,200.86 L 121.67,200.86 L 122.5,200.86 L 123.33,200.86 L 124.17,200.86 L 125,200.86 L 125.83,200.86 L 126.67,200.86 L 127.5,200.86 L 129.17,200.86 L 130.83,200.86 L 131.67,200.86 L 132.5,200.86 L 133.33,200.86 L 134.17,200.86 L 135,200.86 L 135.83,200.86 L 137.5,200.86 L 138.33,200.86 L 139.17,200.86 L 140,200.86 L 141.67,200.86 L 142.5,200.86 L 143.33,200.86 L 144.17,200.86 L 145.83,200.86 L 146.67,200.86 L 147.5,200.86 L 148.33,200.86 L 149.17,200.86 L 150,200.86 L 151.67,200.86 L 152.5,200.86 L 153.33,200.86 L 154.17,200.86 L 155,200.86 L 155.83,200.86 L 157.5,200.86 L 158.33,200.86 L 159.17,200.86 L 160,200.86 L 160.83,200.86 L 161.67,200.86 L 163.33,200.86 L 164.17,200.86 L 165,200.86 L 165.83,200.86 L 166.67,200.86 L 167.5,200.86 L 168.33,200.86 L 169.17,200.86 L 170,200.86 L 170.83,200.86 L 171.67,200.86 L 172.5,200.86 L 173.33,200.86 L 174.17,200.86 L 175,200.86 L 175.83,200.86 L 176.67,200.86 L 177.5,200.86 L 178.33,200.86 L 179.17,200.86 L 180,200.86 L 180.83,200.86 L 181.67,200.86 L 182.5,200.86 L 183.33,200.86 L 184.17,200.86 L 185,200.86 L 185.83,200.86 L 186.67,200.86 L 187.5,200.86 L 188.33,200.86 L 189.17,200.86 L 190,200.86 L 190.83,200.86 L 191.67,200.86 L 192.5,201.69 L 193.33,201.69 L 194.17,201.69 L 195,201.69 L 195.83,201.69 L 196.67,201.69 L 197.5,201.69 L 198.33,201.69 L 199.17,201.69 L 200,201.69 L 201.67,201.69 L 202.5,201.69 L 203.33,201.69 L 204.17,201.69 L 205.83,201.69 L 206.67,201.69 L 207.5,201.69 L 209.17,201.69 L 210,201.69 L 210.83,201.69 L 212.5,201.69 L 215.83,201.69 L 217.5,201.69 L 218.33,201.69 L 219.17,201.69 L 220,201.69 L 220.83,201.69 L 221.67,201.69 L 223.33,201.69 L 224.17,201.69 L 225,201.69 L 225.83,201.69 L 227.5,201.69 L 229.17,201.69 L 230,201.69 L 230.83,201.69 L 231.67,201.69 L 232.5,201.69 L 233.33,201.69 L 234.17,201.69 L 235.83,201.69 L 236.67,201.69 L 237.5,201.69 L 238.33,201.69 L 240,201.69 L 240.83,201.69 L 241.67,201.69 L 244.17,201.69 L 245,201.69 L 246.67,200.86 L 248.33,200.86 L 249.17,200.86 L 250,200.86 L 250.83,200.86 L 251.67,200.86 L 253.33,200.86 L 254.17,200.86 L 255.83,200.86 L 256.67,200.86 L 257.5,200.86 L 259.17,200.86 L 260,200.03 L 260.83,200.03 L 261.67,200.03 L 263.33,200.03 L 264.17,200.03 L 265.83,200.03 L 266.67,200.03 L 269.17,200.03 L 270,200.03 L 270.83,200.03 L 271.67,200.03 L 272.5,200.03 L 274.17,200.03 L 275,200.03 L 276.67,200.03 L 277.5,200.03 L 279.17,200.03 L 280,200.03 L 280.83,200.03 L 282.5,200.03 L 283.33,200.03 L 285,200.03 L 286.67,200.03 L 287.5,200.03 L 288.33,200.03 L 289.17,200.03 L 290.83,200.03 L 291.67,200.03 L 292.5,200.03 L 294.17,200.03 L 295,200.03 L 295.83,200.03 L 296.67,200.03 L 297.5,200.03 L 299.17,200.03 L 300.83,200.03 L 301.67,200.03 L 303.33,200.03 L 304.17,200.03 L 305,200.03 L 305.83,200.03 L 306.67,200.03 L 307.5,200.03 L 308.33,200.03 L 310,200.03 L 310.83,200.03 L 311.67,200.03 L 312.5,200.03 L 313.33,200.03 L 315,200.03 L 315.83,200.03 L 316.67,200.03 L 317.5,200.03 L 319.17,200.03 L 320,200.03 L 320.83,200.03 L 321.67,200.03 L 323.33,200.03 L 324.17,200.03 L 326.67,200.03 L 327.5,200.03 L 328.33,200.03 L 330.83,200.03 L 331.67,200.03 L 332.5,200.03 L 335,200.03 L 335.83,200.03 L 337.5,200.03 L 338.33,200.03 L 340,200.03 L 340.83,200.86 L 341.67,200.86 L 343.33,200.86 L 344.17,200.86 L 345.83,200.86 L 346.67,200.86 L 347.5,200.86 L 348.33,200.86 L 350,200.86 L 351.67,200.86 L 352.5,200.86 L 354.17,200.86 L 355,200.86 L 355.83,200.86 L 356.67,200.86 L 357.5,200.86 L 359.17,200.86 L 360,200.86 L 360.83,200.86 L 362.5,200.86 L 363.33,200.86 L 364.17,200.86 L 365,200.86 L 365.83,200.86 L 366.67,200.86 L 367.5,200.86 L 368.33,201.69 L 369.17,201.69 L 370,201.69 L 370.83,201.69 L 371.67,201.69 L 372.5,200.86 L 373.33,200.86 L 374.17,200.86 L 375,200.86 L 375.83,200.86 L 376.67,200.86 L 377.5,200.86 L 378.33,200.86 L 379.17,200.86 L 380,200.86 L 380.83,200.86 L 381.67,200.86 L 382.5,200.86 L 383.33,200.86 L 384.17,201.69 L 385,201.69 L 385.83,201.69 L 387.5,201.69 L 388.33,201.69 L 389.17,201.69 L 390,201.69 L 390.83,201.69 L 392.5,201.69 L 393.33,201.69 L 394.17,201.69 L 395,201.69 L 395.83,201.69 L 397.5,201.69 L 398.33,201.69 L 400,201.69 L 400.83,201.69 L 402.5,201.69 L 403.33,201.69 L 404.17,201.69 L 405.83,202.53 L 406.67,202.53 L 408.33,202.53 L 409.17,202.53 L 410.83,202.53 L 411.67,202.53 L 412.5,202.53 L 413.33,202.53 L 414.17,202.53 L 415.83,202.53 L 416.67,202.53 L 417.5,202.53 L 419.17,202.53 L 420,202.53 L 420.83,202.53 L 421.67,202.53 L 422.5,202.53 L 423.33,202.53 L 424.17,202.53 L 425,202.53 L 426.67,202.53 L 427.5,202.53 L 429.17,202.53 L 430,202.53 L 430.83,202.53 L 431.67,202.53 L 432.5,202.53 L 433.33,202.53 L 434.17,202.53 L 435,202.53 L 435.83,202.53 L 436.67,202.53 L 437.5,202.53 L 438.33,202.53 L 439.17,202.53 L 440,202.53 L 440.83,202.53 L 441.67,202.53 L 442.5,202.53" fill="none" stroke="#3794ff" stroke-width="2"></path><path d="M 433.33,200.03 L 434.17,200.03 L 435,200.03 L 435.83,200.03 L 436.67,200.03 L 437.5,200.03 L 438.33,200.03 L 439.17,200.86 L 440,200.86 L 440.83,200.86 L 441.67,200.86 L 442.5,201.69 L 443.33,201.69 L 444.17,201.69 L 444.17,202.53 L 445,202.53 L 444.17,202.53 L 443.33,202.53 L 443.33,203.36 L 442.5,203.36 L 441.67,203.36 L 440.83,204.19 L 440,204.19 L 438.33,205.03 L 437.5,205.03 L 435.83,205.86 L 435,205.86 L 434.17,206.69 L 433.33,206.69 L 432.5,207.53 L 431.67,207.53 L 430.83,208.36 L 430,208.36 L 429.17,208.36 L 429.17,209.19 L 430,209.19 L 430.83,209.19 L 431.67,208.36 L 432.5,208.36 L 433.33,208.36 L 434.17,208.36 L 435,208.36" fill="none" stroke="#3794ff" stroke-width="2"></path><path d="M 53.33,197.53 L 53.33,196.69 L 53.33,197.53 L 53.33,198.36 L 52.5,198.36 L 52.5,199.19 L 52.5,200.03 L 52.5,200.86 L 51.67,201.69 L 51.67,202.53 L 51.67,203.36 L 51.67,204.19" fill="none" stroke="#f14c4c" stroke-width="2"></path><path d="M 50,211.69 L 49.17,211.69 L 48.33,211.69 L 47.5,211.69 L 46.67,212.53 L 46.67,213.36 L 45.83,213.36 L 45.83,214.19 L 45,215.03 L 45,215.86 L 45,216.69 L 45,217.53 L 45,218.36 L 45,219.19 L 45,220.03 L 45.83,220.86 L 45.83,221.69 L 46.67,221.69 L 46.67,222.53 L 47.5,222.53 L 48.33,223.36 L 49.17,223.36 L 49.17,224.19 L 50,224.19 L 50.83,224.19 L 51.67,224.19 L 52.5,224.19 L 53.33,223.36 L 54.17,223.36 L 55,222.53 L 55.83,222.53 L 55.83,221.69 L 56.67,220.86 L 56.67,220.03 L 57.5,220.03 L 57.5,219.19 L 57.5,218.36 L 57.5,217.53 L 56.67,216.69 L 56.67,215.86 L 55.83,215.03 L 55,214.19 L 54.17,213.36 L 53.33,213.36 L 52.5,212.53 L 51.67,212.53 L 50.83,212.53 L 50,212.53 L 49.17,212.53 L 48.33,212.53 L 48.33,213.36" fill="none" stroke="#f14c4c" stroke-width="2"></path><path d="M 240.83,196.69 L 240.83,197.53 L 240.83,198.36 L 240.83,199.19 L 240.83,200.86 L 240.83,201.69 L 240.83,202.53 L 240,203.36 L 240,204.19 L 240,205.03 L 240,205.86 L 240,207.53" fill="none" stroke="#f14c4c" stroke-width="2"></path><path d="M 240.83,217.53 L 241.67,217.53 L 241.67,218.36 L 241.67,219.19 L 241.67,220.03 L 241.67,220.86 L 241.67,221.69 L 241.67,222.53 L 241.67,223.36 L 241.67,224.19 L 241.67,225.03 L 241.67,225.86 L 241.67,226.69 L 241.67,227.53 L 241.67,228.36 L 241.67,229.19" fill="none" stroke="#f14c4c" stroke-width="2"></path><path d="M 416.67,198.36 L 416.67,199.19 L 416.67,200.03 L 416.67,200.86 L 416.67,201.69 L 416.67,202.53 L 416.67,203.36 L 416.67,204.19 L 416.67,205.03 L 416.67,205.86 L 416.67,206.69" fill="none" stroke="#f14c4c" stroke-width="2"></path><path d="M 414.17,216.69 L 413.33,216.69 L 413.33,215.86 L 412.5,215.86 L 413.33,215.03 L 414.17,215.03 L 415,214.19 L 415.83,214.19 L 416.67,214.19 L 417.5,214.19 L 418.33,214.19 L 419.17,214.19 L 420,215.03 L 420,215.86 L 420,216.69 L 420,217.53 L 420,218.36 L 420,219.19 L 419.17,219.19 L 419.17,220.03 L 418.33,220.86 L 418.33,221.69 L 417.5,222.53 L 416.67,223.36 L 416.67,224.19 L 415.83,224.19 L 415.83,225.03 L 415,225.03 L 415,225.86 L 414.17,225.86 L 414.17,226.69 L 413.33,226.69 L 412.5,226.69 L 412.5,227.53" fill="none" stroke="#f14c4c" stroke-width="2"></path><path d="M 412.5,227.53 L 413.33,227.53 L 414.17,227.53 L 415,227.53 L 415.83,227.53 L 416.67,227.53 L 417.5,227.53 L 418.33,227.53 L 419.17,227.53 L 420,227.53 L 421.67,226.69 L 422.5,226.69 L 423.33,226.69 L 424.17,226.69 L 425,227.53" fill="none" stroke="#f14c4c" stroke-width="2"></path><path d="M 90.83,197.53 L 90.83,198.36 L 90.83,199.19 L 91.67,200.03 L 91.67,200.86 L 91.67,201.69 L 91.67,202.53 L 91.67,203.36" fill="none" stroke="#f14c4c" stroke-width="2"></path><path d="M 127.5,196.69 L 127.5,197.53 L 127.5,198.36 L 127.5,199.19 L 127.5,200.03 L 128.33,200.86 L 128.33,201.69 L 128.33,202.53 L 128.33,203.36 L 128.33,204.19" fill="none" stroke="#f14c4c" stroke-width="2"></path><path d="M 169.17,196.69 L 169.17,197.53 L 169.17,198.36 L 169.17,199.19 L 169.17,200.03 L 169.17,200.86 L 169.17,201.69" fill="none" stroke="#f14c4c" stroke-width="2"></path><path d="M 205.83,197.53 L 206.67,198.36 L 206.67,199.19 L 206.67,200.03 L 206.67,200.86 L 206.67,201.69 L 206.67,202.53 L 206.67,203.36 L 205.83,204.19" fill="none" stroke="#f14c4c" stroke-width="2"></path><path d="M 90,178.36 L 90,179.19 L 90,180.03 L 89.17,180.03 L 89.17,180.86 L 89.17,181.69 L 90,181.69 L 90.83,182.53 L 91.67,182.53 L 92.5,182.53 L 92.5,183.36 L 93.33,183.36 L 93.33,184.19 L 94.17,184.19 L 94.17,185.03 L 94.17,185.86 L 94.17,186.69 L 93.33,186.69 L 92.5,187.53 L 91.67,187.53 L 90.83,188.36 L 90,188.36 L 89.17,188.36 L 88.33,188.36 L 87.5,188.36 L 86.67,188.36 L 86.67,187.53 L 85.83,187.53" fill="none" stroke="#3794ff" stroke-width="1"></path><path d="M 90,179.19 L 90.83,179.19 L 90.83,178.36 L 91.67,178.36 L 92.5,178.36 L 94.17,177.53 L 95,177.53 L 95.83,177.53 L 96.67,177.53 L 97.5,177.53 L 98.33,177.53" fill="none" stroke="#3794ff" stroke-width="1"></path><path d="M 84.17,173.36 L 85,173.36 L 85.83,173.36 L 86.67,173.36 L 87.5,173.36 L 88.33,173.36 L 89.17,173.36 L 91.67,173.36 L 92.5,173.36 L 94.17,173.36 L 95,173.36 L 95.83,173.36 L 97.5,173.36 L 98.33,173.36 L 99.17,173.36 L 100,173.36 L 100.83,173.36 L 101.67,173.36 L 102.5,173.36 L 102.5,174.19" fill="none" stroke="#3794ff" stroke-width="1"></path><path d="M 94.17,155.86 L 93.33,155.86 L 93.33,156.69 L 93.33,157.53 L 93.33,158.36 L 93.33,159.19 L 92.5,160.03 L 92.5,160.86 L 92.5,161.69 L 92.5,162.53 L 92.5,163.36 L 92.5,164.19 L 92.5,165.03 L 91.67,165.03 L 91.67,165.86 L 91.67,166.69" fill="none" stroke="#f14c4c" stroke-width="1"></path><path d="M 125,214.19 L 125.83,213.36 L 126.67,213.36 L 127.5,213.36 L 128.33,213.36 L 128.33,214.19 L 129.17,215.03 L 128.33,215.86 L 128.33,216.69 L 128.33,217.53 L 127.5,217.53 L 127.5,218.36 L 126.67,219.19 L 125.83,219.19 L 125.83,220.03 L 125,220.03 L 125,220.86 L 124.17,220.86 L 124.17,221.69 L 125,221.69 L 125.83,221.69 L 126.67,221.69 L 127.5,221.69 L 128.33,221.69 L 129.17,221.69" fill="none" stroke="#f14c4c" stroke-width="1"></path><path d="M 168.33,157.53 L 169.17,157.53 L 170,157.53 L 170,158.36 L 170.83,158.36 L 170.83,159.19 L 170.83,160.03 L 170.83,160.86 L 170,161.69 L 170,162.53 L 170,163.36 L 169.17,164.19 L 169.17,165.03 L 170,165.03 L 170,164.19 L 170.83,164.19 L 171.67,164.19 L 171.67,165.03 L 172.5,165.03 L 173.33,165.86 L 174.17,165.86 L 174.17,166.69 L 174.17,167.53 L 173.33,167.53 L 173.33,168.36 L 172.5,169.19 L 171.67,169.19 L 170.83,170.03 L 170,170.03 L 169.17,170.03 L 168.33,170.03 L 167.5,170.03 L 166.67,170.03 L 165.83,170.03 L 165,170.03 L 164.17,170.03" fill="none" stroke="#f14c4c" stroke-width="1"></path><path d="M 202.5,213.36 L 202.5,214.19 L 202.5,215.03 L 203.33,215.03 L 203.33,215.86 L 203.33,216.69 L 204.17,216.69 L 204.17,217.53 L 205,217.53 L 205,216.69 L 205.83,216.69 L 206.67,216.69 L 207.5,215.86 L 208.33,215.86 L 208.33,215.03 L 208.33,215.86 L 208.33,216.69 L 208.33,217.53 L 208.33,218.36 L 207.5,219.19 L 207.5,220.03 L 207.5,220.86 L 207.5,221.69 L 207.5,222.53 L 208.33,222.53" fill="none" stroke="#f14c4c" stroke-width="1"></path><path d="M 240,158.36 L 240,159.19 L 240,160.03 L 240,160.86 L 240,161.69 L 240,162.53 L 240,163.36 L 240.83,163.36 L 241.67,163.36 L 242.5,163.36 L 243.33,164.19 L 244.17,164.19 L 244.17,165.03 L 245,165.03 L 245,165.86 L 245,166.69 L 245.83,166.69 L 245.83,167.53 L 245.83,168.36 L 245,168.36 L 245,169.19 L 244.17,170.03 L 243.33,170.03 L 242.5,170.03 L 241.67,170.03 L 240.83,170.03 L 240,169.19 L 239.17,169.19 L 239.17,168.36 L 238.33,168.36" fill="none" stroke="#f14c4c" stroke-width="1"></path><path d="M 240.83,159.19 L 240.83,158.36 L 241.67,157.53 L 242.5,157.53 L 242.5,156.69 L 243.33,156.69 L 244.17,156.69 L 245,155.86 L 245.83,155.86 L 246.67,155.86 L 247.5,155.86 L 248.33,155.86" fill="none" stroke="#f14c4c" stroke-width="1"></path><path d="M 161.67,175.03 L 160.83,175.03 L 161.67,175.03 L 162.5,175.03 L 163.33,175.03 L 165,175.03 L 165.83,175.03 L 166.67,175.03 L 167.5,175.03 L 169.17,175.03 L 170,175.03 L 170.83,175.03 L 172.5,175.03 L 173.33,175.03 L 175,175.03 L 175.83,175.03 L 176.67,175.03 L 177.5,175.03" fill="none" stroke="#3794ff" stroke-width="1"></path><path d="M 168.33,180.03 L 168.33,180.86 L 167.5,181.69 L 167.5,182.53 L 168.33,182.53 L 169.17,182.53 L 170,182.53 L 170,183.36 L 170.83,183.36 L 171.67,183.36 L 171.67,184.19 L 172.5,184.19 L 172.5,185.03 L 172.5,185.86 L 172.5,186.69 L 171.67,186.69 L 171.67,187.53 L 170.83,187.53 L 170,187.53 L 170,188.36 L 169.17,188.36 L 168.33,188.36 L 167.5,188.36 L 166.67,188.36 L 165.83,188.36 L 165,188.36" fill="none" stroke="#3794ff" stroke-width="1"></path><path d="M 167.5,180.86 L 168.33,180.86 L 169.17,180.86 L 170,180.86 L 170.83,180.03 L 171.67,180.03 L 172.5,180.03 L 173.33,180.03 L 175.83,179.19 L 176.67,179.19 L 178.33,179.19 L 179.17,179.19 L 180,179.19" fill="none" stroke="#3794ff" stroke-width="1"></path><path d="M 240,175.03 L 239.17,175.03 L 238.33,175.03 L 237.5,175.03 L 237.5,175.86 L 236.67,175.86 L 235.83,175.86 L 235,175.86 L 234.17,175.86 L 234.17,176.69 L 235,176.69 L 235.83,176.69 L 236.67,176.69 L 237.5,176.69 L 238.33,176.69 L 239.17,176.69 L 240,176.69 L 241.67,176.69 L 242.5,176.69 L 244.17,176.69 L 245,176.69 L 245.83,176.69 L 246.67,176.69 L 247.5,176.69 L 248.33,176.69 L 249.17,176.69 L 250,176.69 L 250.83,176.69" fill="none" stroke="#3794ff" stroke-width="1"></path><path d="M 240.83,182.53 L 240,182.53 L 240,183.36 L 240,184.19 L 239.17,184.19 L 240,184.19 L 240.83,184.19 L 241.67,184.19 L 242.5,184.19 L 243.33,184.19 L 244.17,184.19 L 244.17,185.03 L 245,185.03 L 245,185.86 L 245.83,185.86 L 245.83,186.69 L 245,187.53 L 244.17,187.53 L 244.17,188.36 L 243.33,188.36 L 242.5,188.36 L 241.67,188.36 L 240.83,188.36 L 240,188.36 L 239.17,188.36 L 238.33,188.36" fill="none" stroke="#3794ff" stroke-width="1"></path><path d="M 240,181.69 L 240.83,181.69 L 241.67,181.69 L 242.5,181.69 L 243.33,181.69 L 244.17,181.69 L 245,181.69 L 245.83,181.69 L 246.67,181.69 L 247.5,181.69 L 248.33,181.69 L 249.17,181.69 L 249.17,180.86 L 250,180.86" fill="none" stroke="#3794ff" stroke-width="1"></path><path d="M 120.83,225.86 L 120,225.86 L 120.83,225.86 L 122.5,225.86 L 123.33,225.86 L 124.17,225.86 L 125,225.86 L 125.83,225.86 L 126.67,225.86 L 128.33,225.86 L 129.17,225.86 L 130,225.86 L 130.83,225.86 L 131.67,225.86" fill="none" stroke="#3794ff" stroke-width="1"></path><path d="M 125.83,233.36 L 125.83,234.19 L 125.83,235.03 L 125.83,235.86 L 125,235.86 L 125,236.69 L 125,237.53 L 125,236.69 L 125.83,236.69 L 126.67,236.69 L 127.5,236.69 L 128.33,236.69 L 129.17,236.69 L 130,236.69 L 130.83,236.69 L 130.83,237.53 L 131.67,237.53 L 131.67,238.36 L 132.5,239.19 L 132.5,240.03 L 131.67,240.03 L 131.67,240.86 L 131.67,241.69 L 130.83,241.69 L 130.83,242.53 L 130,242.53 L 129.17,242.53 L 128.33,243.36 L 127.5,243.36 L 126.67,243.36 L 125.83,243.36 L 125,243.36 L 124.17,243.36 L 124.17,244.19 L 123.33,244.19 L 122.5,244.19 L 122.5,243.36" fill="none" stroke="#3794ff" stroke-width="1"></path><path d="M 129.17,234.19 L 129.17,233.36 L 130,233.36 L 130.83,233.36 L 131.67,232.53 L 132.5,232.53 L 133.33,232.53 L 134.17,232.53 L 135,232.53 L 135,231.69 L 135.83,231.69 L 137.5,231.69 L 138.33,231.69" fill="none" stroke="#3794ff" stroke-width="1"></path><path d="M 201.67,228.36 L 202.5,228.36 L 203.33,228.36 L 205.83,227.53 L 207.5,227.53 L 209.17,227.53 L 210.83,227.53 L 211.67,227.53 L 213.33,227.53 L 214.17,227.53 L 215,227.53 L 215.83,227.53 L 216.67,227.53 L 217.5,227.53 L 218.33,227.53" fill="none" stroke="#3794ff" stroke-width="1"></path><path d="M 205.83,234.19 L 205.83,235.03 L 205,235.03 L 205,235.86 L 205.83,235.86 L 206.67,235.86 L 207.5,235.86 L 208.33,236.69 L 209.17,236.69 L 210,236.69 L 210,237.53 L 210.83,237.53 L 211.67,238.36 L 211.67,239.19 L 212.5,239.19 L 212.5,240.03 L 212.5,240.86 L 211.67,240.86 L 211.67,241.69 L 210.83,241.69 L 210.83,242.53 L 210,242.53 L 209.17,242.53 L 209.17,243.36 L 208.33,243.36 L 207.5,243.36 L 206.67,243.36 L 206.67,244.19 L 205.83,244.19 L 205,244.19 L 204.17,244.19 L 203.33,244.19 L 202.5,244.19 L 201.67,244.19" fill="none" stroke="#3794ff" stroke-width="1"></path><path d="M 205.83,235.03 L 206.67,235.03 L 207.5,235.03 L 208.33,235.03 L 209.17,234.19 L 210,234.19 L 212.5,234.19 L 214.17,233.36 L 215,233.36 L 215.83,233.36 L 216.67,233.36 L 217.5,233.36 L 218.33,233.36 L 219.17,232.53 L 220,232.53" fill="none" stroke="#3794ff" stroke-width="1"></path><path d="M 325.83,46.69 L 325.83,47.53 L 325.83,48.36 L 325.83,49.19 L 325.83,50.03 L 325.83,50.86 L 325,50.86 L 325,51.69 L 325,52.53 L 325.83,52.53 L 326.67,52.53 L 327.5,52.53 L 328.33,53.36 L 329.17,53.36 L 330,53.36 L 330,54.19 L 330.83,54.19 L 331.67,55.03 L 332.5,55.86 L 333.33,56.69 L 332.5,57.53 L 332.5,58.36 L 331.67,58.36 L 330.83,58.36 L 330,59.19 L 329.17,59.19 L 328.33,59.19 L 327.5,59.19 L 326.67,59.19 L 325.83,59.19 L 325,59.19 L 324.17,59.19 L 324.17,58.36 L 323.33,58.36 L 322.5,58.36 L 322.5,57.53" fill="none" stroke="#3794ff" stroke-width="2"></path><path d="M 324.17,46.69 L 325,46.69 L 325.83,46.69 L 326.67,45.86 L 328.33,45.86 L 329.17,45.86 L 330,45.86 L 330.83,45.86 L 331.67,45.86 L 332.5,45.86 L 333.33,45.86 L 335.83,45.03 L 336.67,45.03 L 337.5,45.03 L 337.5,45.86" fill="none" stroke="#3794ff" stroke-width="2"></path><path d="M 319.17,65.86 L 318.33,65.86 L 319.17,65.86 L 320,65.86 L 320.83,65.86 L 321.67,65.86 L 325,65.86 L 325.83,65.86 L 328.33,65.86 L 329.17,65.86 L 330.83,65.86 L 333.33,65.86 L 334.17,65.86 L 335,65.86 L 335.83,65.86 L 336.67,65.86 L 337.5,65.86 L 338.33,65.86" fill="none" stroke="#3794ff" stroke-width="2"></path><path d="M 325,75.03 L 325,75.86 L 325,76.69 L 324.17,77.53 L 324.17,78.36 L 323.33,78.36 L 323.33,79.19 L 323.33,80.03 L 324.17,80.03 L 325,80.03 L 325.83,80.03 L 326.67,80.03 L 327.5,80.03 L 328.33,80.03 L 329.17,80.03 L 329.17,80.86 L 330,80.86 L 330.83,80.86 L 330.83,81.69 L 331.67,82.53 L 331.67,83.36 L 331.67,84.19 L 331.67,85.03 L 331.67,85.86 L 330.83,85.86 L 330.83,86.69 L 330,86.69 L 329.17,86.69 L 328.33,86.69 L 327.5,87.53 L 326.67,87.53 L 325.83,87.53 L 325,87.53 L 324.17,87.53 L 323.33,87.53 L 322.5,87.53 L 321.67,87.53 L 320.83,87.53" fill="none" stroke="#3794ff" stroke-width="2"></path><path d="M 323.33,78.36 L 324.17,77.53 L 325,77.53 L 325.83,77.53 L 327.5,77.53 L 329.17,76.69 L 330,76.69 L 330.83,76.69 L 332.5,76.69 L 334.17,75.86 L 335,75.86 L 335.83,75.86 L 336.67,75.86" fill="none" stroke="#3794ff" stroke-width="2"></path><path d="M 360,63.36 L 359.17,63.36 L 360,63.36 L 360.83,63.36 L 361.67,63.36 L 362.5,63.36 L 363.33,63.36 L 364.17,63.36 L 365,63.36 L 365.83,63.36 L 366.67,63.36" fill="none" stroke="#3794ff" stroke-width="2"></path><path d="M 358.33,68.36 L 359.17,68.36 L 360,68.36 L 360.83,68.36 L 361.67,68.36 L 363.33,68.36 L 364.17,68.36 L 365,68.36 L 366.67,68.36 L 367.5,68.36 L 368.33,68.36 L 369.17,68.36 L 370,68.36" fill="none" stroke="#3794ff" stroke-width="2"></path><path d="M 386.67,61.69 L 387.5,61.69 L 388.33,61.69 L 389.17,60.86 L 390,60.86 L 390.83,60.03 L 391.67,60.03 L 392.5,59.19 L 393.33,58.36 L 394.17,58.36 L 394.17,57.53 L 395,57.53 L 395,56.69 L 395.83,56.69 L 395.83,55.86 L 395.83,55.03 L 395,55.03 L 394.17,55.03 L 394.17,55.86 L 393.33,56.69 L 393.33,57.53 L 393.33,58.36 L 392.5,58.36 L 392.5,59.19 L 392.5,60.03 L 392.5,60.86 L 392.5,61.69 L 392.5,62.53 L 391.67,62.53 L 391.67,64.19 L 391.67,65.03 L 391.67,65.86 L 391.67,66.69 L 391.67,67.53 L 391.67,68.36 L 391.67,69.19 L 391.67,70.03 L 390.83,70.86 L 390.83,71.69 L 390.83,72.53 L 390,72.53 L 389.17,73.36 L 388.33,73.36 L 387.5,73.36 L 386.67,73.36 L 386.67,74.19 L 385.83,74.19 L 385,74.19 L 384.17,74.19 L 385,74.19 L 385.83,74.19 L 386.67,74.19 L 387.5,74.19 L 388.33,74.19 L 390,74.19 L 392.5,73.36 L 394.17,73.36 L 395,73.36 L 395.83,73.36 L 396.67,73.36 L 397.5,73.36 L 398.33,73.36" fill="none" stroke="#3794ff" stroke-width="2"></path><path d="M 418.33,64.19 L 419.17,64.19 L 420,64.19 L 420.83,64.19 L 421.67,64.19 L 422.5,64.19 L 423.33,64.19 L 424.17,64.19 L 425,64.19 L 425.83,64.19 L 426.67,64.19 L 427.5,64.19 L 428.33,65.03" fill="none" stroke="#3794ff" stroke-width="2"></path><path d="M 419.17,69.19 L 420,69.19 L 420,70.03 L 421.67,70.03 L 422.5,70.03 L 424.17,70.03 L 425.83,69.19 L 426.67,69.19 L 427.5,69.19 L 428.33,69.19" fill="none" stroke="#3794ff" stroke-width="2"></path><path d="M 443.33,60.03 L 442.5,60.03 L 443.33,60.03 L 443.33,60.86 L 444.17,61.69 L 444.17,62.53 L 445,63.36 L 445,64.19 L 445.83,65.03 L 445.83,65.86 L 446.67,66.69 L 446.67,67.53 L 446.67,68.36 L 447.5,69.19 L 447.5,70.03 L 447.5,70.86 L 448.33,70.86 L 448.33,70.03 L 449.17,70.03 L 449.17,69.19 L 449.17,68.36 L 449.17,67.53 L 450,66.69 L 450,65.86 L 450,65.03 L 450,64.19 L 450.83,63.36 L 450.83,62.53 L 450.83,61.69 L 450.83,60.86 L 450.83,61.69 L 451.67,61.69 L 451.67,62.53 L 451.67,63.36 L 451.67,64.19 L 452.5,65.03 L 452.5,65.86 L 452.5,66.69 L 452.5,67.53 L 453.33,68.36 L 453.33,69.19 L 454.17,69.19 L 454.17,70.03 L 454.17,69.19 L 455,69.19 L 455,68.36 L 455.83,67.53 L 455.83,66.69 L 455.83,65.86 L 456.67,65.03 L 456.67,64.19 L 457.5,62.53 L 457.5,61.69 L 458.33,60.86 L 459.17,60.03 L 459.17,59.19 L 460,59.19 L 460,58.36 L 460.83,58.36" fill="none" stroke="#3794ff" stroke-width="2"></path><path d="M 464.17,54.19 L 464.17,55.03 L 464.17,55.86 L 464.17,56.69 L 464.17,57.53 L 465,58.36 L 465,59.19 L 465,60.03 L 465,60.86 L 465,62.53 L 465,63.36 L 465,64.19 L 465,65.03 L 464.17,65.86 L 464.17,66.69 L 464.17,67.53 L 464.17,68.36 L 464.17,69.19 L 465,69.19 L 465,68.36 L 465,67.53 L 465.83,67.53 L 465.83,66.69 L 465.83,65.86 L 466.67,65.86 L 467.5,64.19 L 467.5,63.36 L 468.33,63.36 L 468.33,62.53 L 469.17,62.53 L 469.17,61.69 L 470,61.69 L 470,60.86 L 470.83,60.86 L 470.83,61.69 L 470.83,62.53 L 470.83,63.36 L 470.83,64.19 L 470.83,65.03 L 470.83,65.86 L 470.83,66.69 L 470.83,67.53 L 470.83,68.36 L 470.83,69.19 L 470.83,70.03 L 470.83,70.86 L 470.83,71.69" fill="none" stroke="#3794ff" stroke-width="2"></path><path d="M 477.5,65.03 L 477.5,65.86 L 476.67,66.69 L 476.67,67.53 L 476.67,68.36 L 477.5,69.19 L 477.5,70.03 L 477.5,70.86 L 478.33,70.86 L 479.17,70.86 L 480,70.03 L 480,69.19 L 480,68.36 L 480,67.53 L 480,66.69 L 480,65.86 L 479.17,65.03 L 479.17,64.19 L 479.17,63.36 L 478.33,63.36 L 478.33,62.53 L 478.33,61.69 L 477.5,61.69 L 476.67,61.69 L 476.67,62.53" fill="none" stroke="#3794ff" stroke-width="2"></path><path d="M 484.17,65.03 L 485,65.03 L 485,64.19 L 485.83,64.19 L 485.83,63.36 L 486.67,62.53 L 487.5,61.69 L 487.5,60.03 L 488.33,59.19 L 488.33,58.36 L 489.17,56.69 L 489.17,55.86 L 489.17,55.03 L 489.17,54.19 L 488.33,53.36 L 488.33,52.53 L 487.5,53.36 L 486.67,53.36 L 485,54.19 L 485,55.03 L 484.17,56.69 L 483.33,58.36 L 482.5,59.19 L 482.5,60.03 L 481.67,61.69 L 481.67,62.53 L 480.83,63.36 L 480.83,65.03 L 480.83,65.86 L 480.83,66.69 L 480.83,67.53 L 481.67,67.53 L 481.67,69.19 L 482.5,69.19 L 482.5,70.03 L 483.33,70.03 L 484.17,70.86 L 485,70.86 L 485.83,70.86 L 486.67,70.86 L 487.5,70.86 L 488.33,70.03 L 489.17,70.03 L 490,70.03 L 490,69.19 L 490.83,69.19" fill="none" stroke="#3794ff" stroke-width="2"></path><path d="M 492.5,67.53 L 493.33,67.53 L 493.33,66.69 L 494.17,66.69 L 495,66.69 L 495,65.86 L 495.83,65.86 L 496.67,65.03 L 497.5,65.03 L 497.5,64.19 L 498.33,64.19 L 499.17,63.36 L 499.17,62.53 L 500,62.53 L 500,61.69 L 499.17,60.86 L 499.17,60.03 L 498.33,60.03 L 497.5,60.03 L 496.67,60.86 L 495.83,60.86 L 495,61.69 L 494.17,62.53 L 493.33,62.53 L 492.5,63.36 L 492.5,64.19 L 492.5,65.03 L 492.5,65.86 L 492.5,66.69 L 492.5,67.53 L 493.33,67.53 L 494.17,68.36 L 495.83,68.36 L 496.67,68.36 L 497.5,68.36 L 498.33,68.36 L 499.17,68.36 L 500,67.53 L 500.83,67.53 L 501.67,67.53 L 502.5,67.53 L 503.33,67.53" fill="none" stroke="#3794ff" stroke-width="2"></path></svg>