<?xml version="1.0" encoding="utf-8"?>
<svg version="1.1" xmlns="http://www.w3.org/2000/svg" xmlns:xlink="http://www.w3.org/1999/xlink" xml:space="preserve" viewBox="192.7028 250.6989 228.6889 105.5836">
    <path fill="none" opacity="1" stroke="#000000" stroke-width="1.79999995231628" stroke-height="3.59999990463257" stroke-linecap="round" d="M229.044052124023,252.608108520508 L229.044052124023,255.267593383789 L228.838470458984,257.973327636719 L229.044052124023,260.494049072266 L229.044052124023,263.014801025391 L229.044052124023,265.419921875 L229.352432250977,267.778778076172 L229.558029174805,269.952606201172 L230.174789428711,272.010803222656 L230.688751220703,273.930267333984 L231.202697753906,275.757232666016 L231.408309936523,276.404754638672 L231.716354370117,277.352905273438 L231.921936035156,278.347351074219 L232.435882568359,279.295501708984 L233.258255004883,280.174285888672 L233.772201538086,280.983673095703 L234.594207763672,281.631225585938 L235.313766479492,282.093719482422 L236.444488525391,282.463745117188 L237.472427368164,282.509979248047 L238.500030517578,282.394378662109 L241.377883911133,281.631225585938 L242.919784545898,280.821807861328 L244.769729614258,279.873626708984 L246.619995117188,278.763580322266 L248.161560058594,277.468536376953 L249.703460693359,276.173492431641 L251.245040893555,274.762786865234 L252.889709472656,273.421478271484 L254.431274414063,272.010803222656 L255.973175048828,270.715759277344 L257.000793457031,269.536315917969 L257.514739990234,269.073822021484 L258.337097167969,268.472534179688 L258.851043701172,267.894378662109 L259.673065185547,267.293121337891 L260.187042236328,266.714965820313 L260.700988769531,266.252410888672 L261.214965820313,265.882415771484 L261.420562744141,265.604919433594 L261.934509277344,265.419921875 L262.242889404297,265.373657226563 L262.55126953125,265.373657226563 L262.756530761719,265.720520019531 L263.064910888672,266.252410888672 L263.2705078125,267.015594482422 L263.578887939453,267.940643310547 L263.784454345703,268.958160400391 L264.092834472656,270.114471435547 L264.298431396484,271.363250732422 L264.606781005859,272.588958740234 L265.326354980469,275.525970458984 L265.942779541016,277.121643066406 L266.456726074219,278.879241943359 L267.176300048828,280.289916992188 L268.204223632813,281.631225585938 L269.334625244141,282.741271972656 L270.568145751953,283.990081787109 L271.904449462891,285.100128173828 L273.240417480469,286.094543457031 L274.782318115234,286.742065429688 L276.632263183594,287.158355712891 L278.687805175781,287.343353271484 L281.052032470703,287.20458984375 L283.415924072266,287.042694091797 L285.779846191406,286.927062988281"/>
    <path fill="none" opacity="1" stroke="#000000" stroke-width="1.79999995231628" stroke-height="3.59999990463257" stroke-linecap="round" d="M208.179397583008,326.403137207031 L207.97380065918,328.206970214844 L207.459838867188,330.149536132813 L206.945877075195,332.138366699219 L206.637496948242,334.034698486328 L206.12385559082,335.792297363281 L205.815475463867,337.503570556641 L205.609893798828,338.197357177734 L205.609893798828,339.191772460938 L205.095932006836,340.324981689453 L204.787551879883,341.481262207031 L204.581970214844,342.614440917969 L204.581970214844,343.608825683594 L204.273590087891,344.533874511719 L204.067993164063,345.435760498047 L203.759613037109,346.245239257813 L203.759613037109,346.892730712891 L203.451248168945,347.424652099609 L203.451248168945,347.771545410156 L203.245971679688,347.956573486328 L203.245971679688,348.072174072266 L203.245971679688,347.956573486328"/>
    <path fill="none" opacity="1" stroke="#000000" stroke-width="1.79999995231628" stroke-height="3.59999990463257" stroke-linecap="round" d="M194.612030029297,314.123229980469 L194.098083496094,313.938201904297 L193.892486572266,313.753204345703 L193.584426879883,313.706970214844 L193.276062011719,313.59130859375 L193.070465087891,313.52197265625 L193.070465087891,313.406311035156 L192.762084960938,313.360046386719 L192.762084960938,313.360046386719 L192.556503295898,313.244445800781 L192.556503295898,313.244445800781 L192.556503295898,313.244445800781 L192.556503295898,313.244445800781 L192.556503295898,313.244445800781 L192.762084960938,313.244445800781 L193.276062011719,313.360046386719 L193.892486572266,313.475708007813 L194.612030029297,313.59130859375 L195.63996887207,313.753204345703 L196.976272583008,313.891967773438 L198.312240600586,314.007598876953 L201.395706176758,314.354461669922 L202.423645019531,314.354461669922 L205.301513671875,314.400726318359 L207.665420532227,314.585754394531 L210.029342651367,314.655120849609 L212.393569946289,314.770751953125 L214.963073730469,314.770751953125 L217.121398925781,314.886383056641 L219.382507324219,315.002014160156 L221.74674987793,315.048248291016 L222.568771362305,315.163879394531 L223.596694946289,315.233276367188 L224.932998657227,315.302673339844 L226.474563598633,315.348907470703 L227.810882568359,315.418273925781 L229.044052124023,315.464538574219 L230.38037109375,315.533905029297 L231.716354370117,315.533905029297 L232.744262695313,315.649536132813 L233.772201538086,315.76513671875 L234.594207763672,315.880798339844"/>
    <path fill="none" opacity="1" stroke="#000000" stroke-width="1.79999995231628" stroke-height="3.59999990463257" stroke-linecap="round" d="M238.705612182617,329.848876953125 L238.705612182617,329.68701171875 L238.705612182617,329.502014160156 L238.705612182617,329.340148925781 L238.705612182617,329.085723876953 L238.500030517578,328.923858642578 L238.191650390625,328.623229980469 L237.986053466797,328.391967773438 L237.472427368164,328.091339111328 L236.958465576172,327.813812255859 L236.136108398438,327.559448242188 L235.313766479492,327.443786621094 L234.286163330078,327.51318359375 L233.052642822266,327.628814697266 L231.921936035156,327.860046386719 L230.894317626953,328.206970214844 L229.558029174805,328.576965332031 L228.530090332031,329.085723876953 L225.960601806641,330.380767822266 L224.624618530273,331.259582519531 L224.110656738281,331.629577636719 L223.596694946289,332.207733154297 L222.774337768555,332.855285644531 L222.054794311523,333.618438720703 L221.541152954102,334.381561279297 L221.027191162109,335.260375976563 L220.513229370117,336.092895507813 L219.999267578125,336.9716796875 L219.690887451172,337.850494384766 L219.382507324219,338.659881591797 L219.176910400391,339.561798095703 L219.176910400391,340.186187744141 L219.176910400391,340.903137207031 L219.176910400391,341.481262207031 L219.382507324219,342.128784179688 L219.999267578125,342.660675048828 L220.513229370117,343.123168945313 L221.027191162109,343.539489746094 L221.541152954102,343.840118408203 L222.054794311523,344.025146484375 L222.568771362305,344.140747070313 L223.082717895508,344.18701171875 L223.905075073242,344.18701171875 L224.624618530273,344.071380615234 L225.446640014648,343.840118408203 L226.16618347168,343.493255615234 L227.296905517578,343.007598876953 L228.016448974609,342.429412841797 L228.838470458984,341.781890869141 L229.558029174805,341.134368896484 L230.38037109375,340.440582275391 L231.202697753906,339.723693847656 L231.921936035156,338.960540771484 L232.744262695313,338.266754150391 L233.258255004883,337.619232177734 L233.772201538086,336.856048583984 L234.286163330078,336.324188232422 L234.799819946289,335.722869873047 L235.108200073242,335.260375976563 L235.313766479492,334.913482666016 L235.622146606445,334.612854003906 L235.622146606445,334.381561279297 L235.827728271484,334.150329589844 L235.827728271484,334.034698486328 L235.827728271484,333.919067382813 L236.136108398438,333.849670410156 L236.136108398438,333.849670410156 L235.827728271484,333.849670410156 L235.827728271484,333.96533203125 L235.827728271484,334.150329589844 L235.827728271484,334.381561279297 L235.827728271484,334.612854003906 L235.622146606445,334.913482666016 L235.622146606445,335.445373535156 L235.313766479492,335.977294921875 L235.313766479492,336.624786376953 L235.108200073242,337.387969970703 L234.799819946289,338.081726074219 L234.594207763672,338.844879150391 L234.594207763672,339.677429199219 L234.286163330078,340.440582275391 L234.286163330078,341.134368896484 L234.286163330078,341.712524414063 L234.286163330078,342.360046386719 L234.286163330078,342.891937255859 L234.286163330078,343.308197021484 L234.286163330078,343.655090332031"/>
    <path fill="none" opacity="1" stroke="#000000" stroke-width="1.79999995231628" stroke-height="3.59999990463257" stroke-linecap="round" d="M249.49787902832,332.138366699219 L248.881118774414,332.855285644531 L248.367172241211,333.687805175781 L247.853179931641,334.612854003906 L247.339233398438,335.561004638672 L246.825607299805,336.555450439453 L246.311614990234,337.549835205078 L245.797668457031,338.613616943359 L245.283706665039,339.608062744141 L244.769729614258,340.602478027344 L244.461349487305,341.596893310547 L243.947387695313,342.545043945313 L243.742141723633,343.308197021484 L243.43376159668,344.140747070313 L243.228164672852,344.834533691406 L242.919784545898,345.435760498047 L242.611404418945,345.898345947266 L242.405822753906,346.314575195313 L242.405822753906,346.661468505859 L242.405822753906,346.962127685547 L242.405822753906,347.193389892578 L242.405822753906,347.355255126953 L242.405822753906,347.470886230469 L242.405822753906,347.540252685547 L242.611404418945,347.540252685547 L242.611404418945,347.470886230469 L242.919784545898,347.355255126953 L243.43376159668,347.077758789063 L244.255767822266,346.545837402344 L244.975326538086,345.898345947266 L245.797668457031,345.250793457031 L246.619995117188,344.533874511719 L248.675537109375,342.730041503906 L250.011840820313,341.596893310547 L251.245040893555,340.671844482422 L252.581344604492,339.561798095703 L253.608947753906,338.498016357422 L254.122909545898,338.012359619141 L254.63688659668,337.387969970703 L256.48681640625,335.792297363281 L257.000793457031,335.445373535156 L257.514739990234,334.913482666016 L258.337097167969,334.265960693359 L259.159423828125,333.618438720703 L259.673065185547,333.086517333984 L260.392608642578,332.554626464844 L260.906585693359,332.092132568359 L261.420562744141,331.675842285156 L261.728942871094,331.375213623047 L261.934509277344,331.143951416016 L262.242889404297,331.097686767578 L262.55126953125,331.097686767578 L262.55126953125,331.097686767578 L262.55126953125,331.213317871094 L262.242889404297,331.444580078125 L261.934509277344,331.860870361328 L261.728942871094,332.392730712891 L261.214965820313,333.040283203125 L260.700988769531,333.734039306641 L260.187042236328,334.497222900391 L258.542663574219,336.555450439453 L258.337097167969,336.9716796875 L257.823120117188,337.619232177734 L257.309173583984,338.382385253906 L256.795196533203,339.191772460938 L255.973175048828,339.954925537109 L255.459213256836,340.787506103516 L254.945266723633,341.550628662109 L254.431274414063,342.360046386719 L253.917327880859,343.123168945313 L253.403366088867,343.840118408203 L253.095321655273,344.533874511719 L252.889709472656,345.135162353516 L252.581344604492,345.667053222656 L252.272964477539,346.129608154297 L252.272964477539,346.545837402344 L252.272964477539,346.892730712891 L252.272964477539,347.239624023438 L252.272964477539,347.540252685547 L252.581344604492,347.771545410156 L252.889709472656,348.002807617188 L253.095321655273,348.187774658203 L253.917327880859,348.419036865234 L254.431274414063,348.604095458984 L255.150848388672,348.719696044922 L255.973175048828,348.835327148438 L256.795196533203,348.835327148438 L257.823120117188,348.835327148438 L258.542663574219,348.719696044922 L259.673065185547,348.604095458984 L260.392608642578,348.488464355469 L261.420562744141,348.303466796875 L262.55126953125,348.072174072266 L263.578887939453,347.840881347656 L264.606781005859,347.540252685547 L265.634735107422,347.239624023438 L266.662353515625,346.892730712891"/>
    <path fill="none" opacity="1" stroke="#000000" stroke-width="1.79999995231628" stroke-height="3.59999990463257" stroke-linecap="round" d="M303.458282470703,331.860870361328 L303.458282470703,331.675842285156 L303.458282470703,331.629577636719 L303.458282470703,331.560211181641 L303.458282470703,331.560211181641 L303.458282470703,331.444580078125 L303.458282470703,331.444580078125 L303.458282470703,331.444580078125 L303.252990722656,331.513977050781 L302.944610595703,331.560211181641 L302.944610595703,331.745239257813 L302.739044189453,332.092132568359 L302.4306640625,332.6240234375 L301.916717529297,333.202178955078 L301.711120605469,333.919067382813 L301.094360351563,334.682220458984 L300.888763427734,335.445373535156 L300.374816894531,336.208526611328 L300.066772460938,336.9716796875 L299.861175537109,337.73486328125 L299.552795410156,338.544281005859 L299.347198486328,339.261169433594 L299.347198486328,339.954925537109 L299.038818359375,340.602478027344 L299.038818359375,341.319366455078 L298.833251953125,341.966888427734 L298.833251953125,342.498779296875 L298.833251953125,342.961334228516 L298.833251953125,343.423828125 L299.038818359375,343.724487304688 L299.038818359375,343.955718994141 L299.347198486328,344.140747070313 L299.552795410156,344.25634765625 L299.861175537109,344.302612304688 L300.066772460938,344.302612304688 L300.374816894531,344.302612304688 L300.888763427734,344.140747070313 L301.711120605469,343.886383056641 L302.22509765625,343.539489746094 L302.944610595703,343.192596435547 L303.766662597656,342.730041503906 L304.280609130859,342.244415283203 L305.102935791016,341.712524414063 L305.822509765625,341.134368896484 L306.336456298828,340.486846923828 L307.158477783203,339.839324951172 L307.672454833984,339.261169433594 L308.494781494141,338.729278564453 L309.008758544922,338.197357177734 L309.522705078125,337.73486328125 L309.727966308594,337.249206542969 L310.241943359375,336.9716796875 L310.550323486328,336.740417480469 L310.550323486328,336.555450439453 L310.755920410156,336.370422363281 L311.064270019531,336.324188232422 L311.064270019531,336.208526611328 L311.064270019531,336.092895507813 L311.269866943359,336.023529052734 L311.269866943359,336.023529052734 L311.269866943359,336.092895507813 L311.269866943359,336.13916015625 L311.269866943359,336.324188232422 L311.064270019531,336.786682128906 L310.755920410156,337.434204101563 L310.755920410156,338.081726074219 L310.550323486328,338.844879150391 L310.241943359375,339.677429199219 L310.036346435547,340.440582275391 L310.036346435547,341.203735351563 L309.727966308594,342.013153076172 L309.727966308594,342.776306152344 L309.727966308594,343.539489746094 L309.727966308594,344.418304443359 L309.727966308594,345.250793457031 L309.727966308594,346.129608154297 L310.036346435547,346.962127685547 L310.241943359375,347.725280761719 L310.550323486328,348.488464355469 L310.755920410156,349.135955810547 L311.269866943359,349.598480224609 L311.886627197266,350.014739990234"/>
    <path fill="none" opacity="1" stroke="#000000" stroke-width="1.79999995231628" stroke-height="3.59999990463257" stroke-linecap="round" d="M345.496307373047,344.372039794922 L345.496307373047,344.487640380859 L346.010284423828,344.487640380859 L346.318664550781,344.487640380859 L346.524230957031,344.487640380859 L347.038208007813,344.487640380859 L347.654632568359,344.487640380859 L348.374176025391,344.302612304688 L349.402099609375,344.025146484375 L350.224456787109,343.724487304688 L351.252044677734,343.423828125 L352.074401855469,343.076904296875 L353.102325439453,342.660675048828 L355.157836914063,341.365631103516 L355.671844482422,341.088134765625 L356.185791015625,340.718109130859 L357.0078125,340.255584716797 L357.521789550781,339.723693847656 L358.035736083984,339.191772460938 L358.549713134766,338.544281005859 L359.063659667969,337.896728515625 L359.57763671875,337.249206542969 L359.885681152344,336.624786376953 L360.091278076172,335.977294921875 L360.399658203125,335.376007080078 L360.708038330078,334.844116210938 L360.708038330078,334.381561279297 L360.399658203125,333.849670410156 L360.091278076172,333.317779541016 L359.885681152344,332.785888671875 L359.372039794922,332.323364257813 L358.858093261719,331.907104492188 L358.035736083984,331.675842285156 L357.316192626953,331.513977050781 L356.494171142578,331.444580078125 L355.671844482422,331.444580078125 L354.952270507813,331.560211181641 L353.924346923828,331.791473388672 L353.102325439453,332.092132568359 L352.279998779297,332.438995361328 L351.560424804688,332.855285644531 L350.429718017578,333.433441162109 L349.710479736328,334.080932617188 L348.888153076172,334.728485107422 L348.374176025391,335.445373535156 L347.654632568359,336.208526611328 L347.038208007813,337.017944335938 L346.524230957031,337.850494384766 L346.010284423828,338.613616943359 L345.8046875,339.423034667969 L345.496307373047,340.255584716797 L345.290710449219,341.088134765625 L345.290710449219,341.851287841797 L345.290710449219,342.614440917969 L345.290710449219,343.423828125 L345.496307373047,344.071380615234 L345.8046875,344.718902587891 L346.318664550781,345.297027587891 L346.832611083984,345.782684326172 L347.346252441406,346.245239257813 L347.860229492188,346.592102050781 L348.682556152344,346.892730712891 L349.402099609375,347.193389892578 L350.224456787109,347.355255126953 L351.046478271484,347.540252685547 L352.074401855469,347.586517333984 L353.102325439453,347.586517333984 L353.924346923828,347.586517333984 L355.157836914063,347.470886230469 L355.980194091797,347.355255126953 L357.0078125,347.193389892578 L358.035736083984,347.008331298828 L359.372039794922,346.777130126953 L360.399658203125,346.545837402344 L361.427581787109,346.314575195313 L362.455505371094,346.060211181641 L363.483123779297,345.828918457031"/>
    <path fill="none" opacity="1" stroke="#000000" stroke-width="1.79999995231628" stroke-height="3.59999990463257" stroke-linecap="round" d="M380.545074462891,337.966125488281 L380.545074462891,337.73486328125 L380.545074462891,337.434204101563 L380.545074462891,337.202972412109 L380.545074462891,336.856048583984 L380.545074462891,336.624786376953 L380.545074462891,336.324188232422 L380.545074462891,336.023529052734 L380.545074462891,335.722869873047 L380.236694335938,335.445373535156 L380.236694335938,335.144744873047 L380.031127929688,334.913482666016 L380.031127929688,334.566589355469 L379.414367675781,334.265960693359 L379.208801269531,333.849670410156 L378.694793701172,333.618438720703 L378.386749267578,333.433441162109 L377.872802734375,333.317779541016 L377.667236328125,333.202178955078 L377.153228759766,333.086517333984 L376.536499023438,333.271545410156 L375.816955566406,333.502777099609 L375.302978515625,333.618438720703 L374.48095703125,333.96533203125 L373.761413574219,334.450988769531 L372.939056396484,334.913482666016 L372.117065429688,335.445373535156 L371.603088378906,336.092895507813 L370.883544921875,336.786682128906 L370.369567871094,337.387969970703 L370.061187744141,338.012359619141 L369.547241210938,338.659881591797 L369.033264160156,339.307434082031 L368.725219726563,339.954925537109 L368.519622802734,340.556213378906 L368.519622802734,341.088134765625 L368.211242675781,341.481262207031 L368.211242675781,341.966888427734 L368.211242675781,342.360046386719 L368.211242675781,342.845703125 L368.519622802734,343.308197021484 L369.033264160156,343.655090332031 L369.238861083984,344.071380615234 L369.752807617188,344.418304443359 L370.369567871094,344.788269042969 L371.089111328125,344.950164794922 L372.117065429688,345.065795898438 L372.939056396484,345.135162353516 L373.967010498047,345.135162353516 L374.994934082031,345.135162353516 L376.022521972656,345.065795898438 L377.358856201172,344.950164794922 L378.386749267578,344.834533691406 L379.414367675781,344.718902587891 L380.545074462891,344.533874511719 L381.778259277344,344.302612304688 L382.806213378906,344.071380615234 L383.936920166016,343.840118408203 L384.964538574219,343.493255615234 L385.992462158203,343.076904296875 L387.328765869141,342.660675048828 L388.047973632813,342.313812255859 L389.075927734375,341.897552490234 L390.206634521484,341.365631103516 L391.234252929688,340.833740234375 L391.953765869141,340.371215820313 L392.776153564453,339.954925537109 L393.598480224609,339.376770019531 L394.317718505859,338.775512695313 L395.140045166016,338.197357177734 L395.654022216797,337.549835205078 L396.476348876953,336.9716796875 L396.990325927734,336.439788818359 L397.503967285156,335.861633300781 L397.709533691406,335.445373535156 L398.017913818359,335.029113769531 L398.223510742188,334.682220458984 L398.531890869141,334.381561279297 L398.737487792969,334.080932617188 L398.737487792969,333.849670410156 L399.045867919922,333.549041748047 L399.045867919922,333.387176513672 L399.251434326172,333.202178955078 L399.251434326172,333.155914306641 L399.251434326172,333.086517333984 L399.251434326172,333.086517333984 L399.251434326172,333.086517333984 L399.251434326172,333.155914306641 L399.251434326172,333.202178955078 L399.045867919922,333.387176513672 L398.737487792969,333.734039306641 L398.531890869141,334.265960693359 L398.223510742188,334.844116210938 L398.017913818359,335.561004638672 L397.709533691406,336.324188232422 L397.195587158203,337.087341308594 L396.990325927734,337.896728515625 L396.681945800781,338.729278564453 L396.16796875,339.561798095703 L395.859588623047,340.371215820313 L395.654022216797,341.203735351563 L395.345642089844,342.013153076172 L395.140045166016,342.845703125 L394.831665039063,343.655090332031 L394.626098632813,344.487640380859 L394.317718505859,345.181396484375 L394.112121582031,345.828918457031 L393.804046630859,346.430206298828 L393.804046630859,346.892730712891 L393.598480224609,347.309020996094 L393.598480224609,347.586517333984 L393.598480224609,347.840881347656 L393.598480224609,348.002807617188 L393.598480224609,348.118438720703 L393.598480224609,348.187774658203 L393.598480224609,348.187774658203 L393.598480224609,348.187774658203 L393.598480224609,348.072174072266 L393.598480224609,347.956573486328 L393.598480224609,347.840881347656"/>
    <path fill="none" opacity="1" stroke="#000000" stroke-width="1.79999995231628" stroke-height="3.59999990463257" stroke-linecap="round" d="M390.926208496094,335.861633300781 L390.720581054688,335.214141845703 L390.412200927734,334.728485107422 L389.898254394531,334.265960693359 L389.589874267578,333.849670410156 L389.384307861328,333.433441162109 L389.075927734375,332.970886230469 L388.870330810547,332.6240234375 L388.561950683594,332.277130126953 L388.561950683594,331.907104492188 L388.356353759766,331.629577636719 L388.047973632813,331.328979492188 L388.047973632813,331.097686767578 L388.047973632813,330.866424560547 L387.842407226563,330.612030029297 L387.842407226563,330.450164794922 L387.534362792969,330.265167236328 L387.534362792969,330.103271484375 L387.534362792969,329.918273925781 L387.534362792969,329.733276367188 L387.534362792969,329.617614746094 L387.534362792969,329.502014160156 L387.534362792969,329.455749511719 L387.328765869141,329.386383056641 L387.328765869141,329.201354980469 L387.328765869141,329.085723876953 L387.328765869141,328.970123291016 L387.328765869141,328.854461669922 L387.328765869141,328.738861083984 L387.328765869141,328.623229980469 L387.328765869141,328.623229980469 L387.328765869141,328.576965332031 L387.328765869141,328.438201904297 L387.328765869141,328.391967773438 L387.328765869141,328.391967773438 L387.328765869141,328.391967773438 L387.328765869141,328.322570800781 L387.534362792969,328.206970214844 L387.842407226563,328.206970214844 L388.047973632813,328.206970214844 L388.356353759766,328.091339111328 L388.561950683594,328.091339111328 L388.870330810547,328.091339111328 L389.384307861328,328.091339111328 L390.206634521484,328.091339111328 L391.234252929688,328.091339111328 L392.262145996094,328.091339111328 L393.290100097656,328.160705566406 L394.626098632813,328.322570800781 L395.859588623047,328.438201904297 L397.195587158203,328.507568359375 L398.531890869141,328.576965332031 L400.073760986328,328.623229980469 L401.615325927734,328.738861083984 L402.95166015625,328.854461669922 L404.493225097656,328.970123291016 L405.829528808594,329.201354980469 L407.165496826172,329.502014160156 L408.399017333984,329.617614746094 L409.529754638672,329.848876953125"/>
    <path fill="none" opacity="1" stroke="#000000" stroke-width="1.79999995231628" stroke-height="3.59999990463257" stroke-linecap="round" d="M414.463165283203,331.976470947266 L414.15478515625,331.976470947266 L414.15478515625,332.022735595703 L414.15478515625,332.092132568359 L413.640808105469,332.438995361328 L413.435211181641,332.855285644531 L412.921264648438,333.271545410156 L412.613220214844,333.849670410156 L412.099243164063,334.497222900391 L411.585266113281,335.329742431641 L411.071319580078,336.092895507813 L410.762939453125,336.856048583984 L410.248962402344,337.619232177734 L410.043395996094,338.498016357422 L409.529754638672,339.423034667969 L409.221374511719,340.255584716797 L408.912994384766,341.134368896484 L408.707397460938,342.013153076172 L408.399017333984,342.845703125 L408.399017333984,343.655090332031 L408.193450927734,344.603271484375 L408.193450927734,345.435760498047 L408.193450927734,346.198974609375 L408.193450927734,346.892730712891 L408.399017333984,347.586517333984 L408.399017333984,348.187774658203 L408.707397460938,348.765930175781 L409.221374511719,349.3671875 L409.735015869141,349.829742431641 L410.043395996094,350.245971679688 L410.557342529297,350.662322998047 L411.071319580078,350.893524169922 L411.790863037109,351.055450439453 L412.304840087891,351.171020507813 L412.921264648438,351.309814453125 L413.435211181641,351.309814453125 L413.640808105469,351.309814453125 L414.463165283203,351.171020507813 L414.977111816406,351.009185791016 L415.491058349609,350.708526611328 L415.696685791016,350.407897949219 L416.313110351563,350.130401611328 L416.518676757813,349.899108886719 L416.827056884766,349.598480224609 L417.032623291016,349.135955810547 L417.032623291016,348.765930175781 L417.032623291016,348.419036865234 L417.032623291016,348.002807617188 L417.032623291016,347.655883789063 L417.032623291016,347.309020996094 L417.032623291016,346.962127685547 L416.827056884766,346.661468505859 L416.827056884766,346.476470947266 L416.313110351563,346.245239257813 L415.696685791016,345.944610595703 L415.491058349609,345.667053222656 L414.977111816406,345.482025146484 L414.668731689453,345.435760498047 L414.15478515625,345.366455078125 L413.640808105469,345.366455078125 L413.435211181641,345.366455078125 L412.921264648438,345.482025146484 L412.304840087891,345.667053222656 L412.099243164063,345.782684326172 L411.585266113281,345.944610595703 L411.276885986328,346.129608154297"/>
</svg>